<?xml version="1.0" encoding="UTF-8"?>
<!-- Generator: visioncortex VTracer 0.6.3 -->
<svg version="1.1" xmlns="http://www.w3.org/2000/svg" width="1280" height="29">
<path d="M0 0 C422.4 0 844.8 0 1280 0 C1280 6.93 1280 13.86 1280 21 C1271.2 21 1271.2 21 1267.5 20.44 C1264.38 20.04 1261.67 20.06 1258.56 20.5 C1255 21 1255 21 1253 20 C1253 20.66 1253 21.32 1253 22 C1245.09 22.1 1237.37 22.05 1229.5 21.23 C1222.78 20.59 1222.78 20.59 1216.14 21.5 C1213.94 22.01 1212.02 22.13 1209.76 22.15 C1208.93 22.15 1208.1 22.16 1207.25 22.16 C1206.36 22.17 1205.47 22.17 1204.55 22.17 C1203.15 22.17 1203.15 22.17 1201.72 22.18 C1199.74 22.18 1197.76 22.19 1195.78 22.19 C1192.8 22.19 1189.83 22.21 1186.85 22.22 C1176.81 22.25 1167.11 21.92 1157.19 20.33 C1154.06 20.01 1152.03 20.32 1149 21 C1146.53 21.08 1144.05 21.11 1141.58 21.1 C1140.88 21.1 1140.19 21.09 1139.47 21.09 C1137.25 21.09 1135.03 21.08 1132.81 21.06 C1131.31 21.06 1129.81 21.05 1128.31 21.05 C1124.54 21.04 1120.77 21.02 1117 21 C1116.34 21 1115.68 21 1115 21 C1112.29 20.79 1109.69 20.43 1107 20 C1106.67 19.34 1106.34 18.68 1106 18 C1105.63 18.49 1105.25 18.98 1104.87 19.49 C1102.23 21.62 1100.41 21.27 1097.06 21.12 C1093.43 20.99 1090.51 21.11 1087 22 C1086.34 21.67 1085.68 21.34 1085 21 C1084.01 21 1083.02 21 1082 21 C1080.66 20.69 1079.32 20.37 1078 20 C1078 20.66 1078 21.32 1078 22 C1076.39 21.78 1076.39 21.78 1074.75 21.56 C1064.69 20.1 1064.69 20.1 1054.62 20.56 C1051.25 21.12 1049.17 20.17 1046 19 C1044.68 19 1043.36 19 1042 19 C1042 19.66 1042 20.32 1042 21 C1032.25 22.26 1032.25 22.26 1028 20 C1025.7 18.85 1023.92 18.69 1021.38 18.44 C1020.56 18.35 1019.74 18.27 1018.9 18.18 C1018.27 18.12 1017.65 18.06 1017 18 C1017 18.66 1017 19.32 1017 20 C1012.27 20.23 1008.51 19.39 1004 18 C1003.34 18 1002.68 18 1002 18 C1001.15 17.81 1000.31 17.63 999.44 17.44 C998.63 17.29 997.83 17.15 997 17 C996.67 17.33 996.34 17.66 996 18 C993.67 18.04 991.33 18.04 989 18 C989 18.99 989 19.98 989 21 C989.99 21.33 990.98 21.66 992 22 C992 22.66 992 23.32 992 24 C988.7 24 985.4 24 982 24 C981.67 24.66 981.34 25.32 981 26 C980.34 26 979.68 26 979 26 C979 25.34 979 24.68 979 24 C977.68 24 976.36 24 975 24 C973.25 22.5 973.25 22.5 972 21 C972 21.66 972 22.32 972 23 C972.66 23.33 973.32 23.66 974 24 C970.25 25.12 970.25 25.12 968 24 C968 23.01 968 22.02 968 21 C967.34 21 966.68 21 966 21 C966 20.34 966 19.68 966 19 C965.09 19.02 964.18 19.04 963.25 19.06 C956.94 18.94 956.94 18.94 954 16 C953.67 16.99 953.34 17.98 953 19 C952.34 18.79 951.68 18.59 951 18.38 C946.9 17.86 943.96 18.86 940 20 C940 19.34 940 18.68 940 18 C934.43 17.81 930.19 17.8 925 20 C924.01 19.34 923.02 18.68 922 18 C922 18.66 922 19.32 922 20 C921.34 20 920.68 20 920 20 C920 19.34 920 18.68 920 18 C914.23 16.14 908.75 18.22 903.12 19.81 C902.42 19.87 901.72 19.94 901 20 C900 19 899 18 898 17 C895.13 17.29 892.74 18.09 890 19 C890 18.01 890 17.02 890 16 C888.72 16.1 887.45 16.19 886.13 16.29 C884.46 16.4 882.79 16.51 881.12 16.62 C880.28 16.69 879.44 16.75 878.57 16.82 C877.37 16.9 877.37 16.9 876.13 16.98 C875.39 17.03 874.65 17.08 873.88 17.14 C872 17 872 17 870 15 C869.67 15.66 869.34 16.32 869 17 C868.37 16.84 867.74 16.69 867.09 16.53 C860.47 15.09 854.64 15.01 847.91 15.64 C843.38 16.06 838.86 16.32 834.31 16.56 C833.53 16.61 832.76 16.65 831.95 16.69 C826.82 16.98 822.13 16.93 817.04 16.22 C814.68 15.93 814.68 15.93 811 16 C810.01 15.67 809.02 15.34 808 15 C806.31 14.91 804.63 14.87 802.94 14.88 C802.06 14.87 801.18 14.87 800.28 14.87 C797.97 14.85 797.97 14.85 796 16 C792.71 16.12 789.72 16.16 786.5 15.44 C783.17 14.86 780.32 15.46 777 16 C775.68 16 774.36 16 773 16 C771.3 16.03 771.3 16.03 769.56 16.06 C766 16 766 16 763.38 15.38 C760.37 14.9 758.69 15.69 756 17 C756 15.68 756 14.36 756 13 C755.01 13 754.02 13 753 13 C753 14.65 753 16.3 753 18 C752.14 17.82 751.28 17.63 750.4 17.44 C746.83 16.98 744.15 17.27 740.62 17.94 C739.57 18.13 738.51 18.33 737.41 18.53 C736.22 18.76 736.22 18.76 735 19 C735.33 18.01 735.66 17.02 736 16 C735.01 16.33 734.02 16.66 733 17 C731.11 17.07 729.21 17.08 727.31 17.06 C726.32 17.05 725.32 17.04 724.3 17.04 C723.16 17.02 723.16 17.02 722 17 C721.67 17.66 721.34 18.32 721 19 C719.01 18.97 717.03 18.93 715.04 18.9 C712.8 18.92 712.8 18.92 710 20 C710 19.01 710 18.02 710 17 C712.47 16.51 712.47 16.51 715 16 C714.34 15.34 713.68 14.68 713 14 C709.89 14.67 709.89 14.67 708.81 17.06 C708.21 17.7 707.62 18.34 707 19 C705 19.06 703 19.12 701.01 19.01 C698.35 19 696.36 19.82 694 21 C694 20.34 694 19.68 694 19 C687.07 18.67 680.14 18.34 673 18 C673 17.34 673 16.68 673 16 C672.36 16.16 671.72 16.32 671.06 16.49 C667.04 17.16 663.13 17.18 659.06 17.19 C657.88 17.21 657.88 17.21 656.68 17.22 C652.01 17.24 648.43 16.63 644 15 C642.68 15 641.36 15 640 15 C639.67 15.66 639.34 16.32 639 17 C638.34 17 637.68 17 637 17 C637 15.68 637 14.36 637 13 C636.32 13.22 635.64 13.43 634.95 13.66 C628.46 15.6 622.76 16.4 616 16 C616 14.68 616 13.36 616 12 C615.01 12 614.02 12 613 12 C612.67 13.32 612.34 14.64 612 16 C612 15.34 612 14.68 612 14 C610.68 14 609.36 14 608 14 C607.34 13.34 606.68 12.68 606 12 C605.67 12.66 605.34 13.32 605 14 C603.39 13.91 601.79 13.8 600.19 13.69 C599.29 13.63 598.4 13.57 597.48 13.51 C594.66 12.93 593.75 12.24 592 10 C591.67 9.34 591.34 8.68 591 8 C590.28 8.16 589.56 8.33 588.81 8.5 C585.29 9.13 582.28 9.36 578.81 8.38 C577.92 8.19 577.92 8.19 577 8 C576.34 8.66 575.68 9.32 575 10 C575.66 10.33 576.32 10.66 577 11 C576.67 11.99 576.34 12.98 576 14 C573.69 13.34 571.38 12.68 569 12 C568.67 12.99 568.34 13.98 568 15 C567.34 15 566.68 15 566 15 C565.34 13.68 564.68 12.36 564 11 C562.68 11.33 561.36 11.66 560 12 C560 12.66 560 13.32 560 14 C559.34 13.67 558.68 13.34 558 13 C558.33 12.01 558.66 11.02 559 10 C555.88 10.65 555.88 10.65 555 13 C553.25 12.86 551.5 12.71 549.75 12.56 C548.78 12.48 547.8 12.4 546.8 12.32 C544.44 12.05 542.28 11.65 540 11 C540 11.66 540 12.32 540 13 C534.58 14.23 534.58 14.23 531.62 13.06 C531.09 12.71 530.55 12.36 530 12 C530 12.66 530 13.32 530 14 C528.25 14.36 526.5 14.72 524.75 15.06 C523.78 15.26 522.8 15.46 521.8 15.66 C519.08 15.99 517.57 15.74 515 15 C513 15.33 511 15.66 509 16 C508.01 15.67 507.02 15.34 506 15 C506 13.68 506 12.36 506 11 C504.35 11 502.7 11 501 11 C500.67 11.99 500.34 12.98 500 14 C497.03 14 494.06 14 491 14 C491.66 14.33 492.32 14.66 493 15 C493 15.66 493 16.32 493 17 C490.98 16.67 488.96 16.35 486.95 16.02 C486.3 16.02 485.66 16.01 485 16 C484.34 16.66 483.68 17.32 483 18 C481.33 17.7 479.66 17.36 478 17 C475.33 16.91 472.68 16.95 470 17 C470 17.66 470 18.32 470 19 C464.15 19.02 458.29 19.04 452.44 19.05 C450.45 19.06 448.46 19.07 446.47 19.08 C443.61 19.09 440.74 19.09 437.87 19.1 C436.99 19.1 436.11 19.11 435.2 19.11 C430.36 19.11 425.8 18.73 421 18 C420.09 18.16 419.19 18.33 418.25 18.5 C415.27 18.96 413.21 18.89 410.25 18.56 C402.19 17.69 394.1 17.92 386 18 C386 17.01 386 16.02 386 15 C385.34 15.99 384.68 16.98 384 18 C383.34 17.34 382.68 16.68 382 16 C381.67 16.33 381.34 16.66 381 17 C375.92 17.27 370.82 17.36 365.81 16.38 C360.71 15.69 355.82 17.39 351 19 C349 18.67 347 18.33 345 18 C344.01 18.33 343.02 18.66 342 19 C341.01 18.67 340.02 18.34 339 18 C335.83 18.18 332.69 18.45 329.54 18.77 C325.7 19.1 323.28 19.06 320 17 C318.34 16.62 316.68 16.28 315 16 C315 15.34 315 14.68 315 14 C308.71 13.73 308.71 13.73 303 16 C301.68 16 300.36 16 299 16 C299 15.34 299 14.68 299 14 C296.36 14.33 293.72 14.66 291 15 C290.67 15.99 290.34 16.98 290 18 C289.34 18 288.68 18 288 18 C287.9 17.36 287.79 16.72 287.69 16.06 C287.46 15.38 287.23 14.7 287 14 C286.01 13.67 285.02 13.34 284 13 C283.67 13.66 283.34 14.32 283 15 C282 16 282 16 279.44 16.06 C278.63 16.04 277.83 16.02 277 16 C276.67 15.01 276.34 14.02 276 13 C276 14.32 276 15.64 276 17 C271.54 17.21 268.14 16.7 264 15 C263.34 14.34 262.68 13.68 262 13 C260.68 13.66 259.36 14.32 258 15 C258.66 15.66 259.32 16.32 260 17 C258.06 17.56 258.06 17.56 256 18 C255.67 17.67 255.34 17.34 255 17 C251.66 16.97 248.34 17.07 245 17.16 C242 17 242 17 240 15 C239.34 15 238.68 15 238 15 C237.67 15.66 237.34 16.32 237 17 C235.61 16.94 235.61 16.94 234.19 16.88 C230.84 16.73 230.84 16.73 228 19 C225.3 19.42 222.7 19.39 220 19 C218.98 18.02 217.98 17.02 217 16 C212.29 15.62 207.73 16.22 203.07 16.77 C198.12 17.32 194.69 16.74 190 15 C190.33 15.99 190.66 16.98 191 18 C190.01 17.67 189.02 17.34 188 17 C187.67 16.34 187.34 15.68 187 15 C186.67 15.66 186.34 16.32 186 17 C185.42 16.79 184.84 16.59 184.25 16.38 C181.48 15.91 180.35 16.57 178 18 C177.67 17.01 177.34 16.02 177 15 C174.69 15.31 172.37 15.62 170.06 15.94 C168.77 16.11 167.49 16.29 166.16 16.46 C163.15 16.66 163.15 16.66 162 18 C161.34 18.33 160.68 18.66 160 19 C159.01 17.52 159.01 17.52 158 16 C157.44 16.52 156.89 17.03 156.31 17.56 C154 19 154 19 151.25 18.69 C150.51 18.46 149.76 18.23 149 18 C149 18.66 149 19.32 149 20 C148.34 20 147.68 20 147 20 C146.67 19.67 146.34 19.34 146 19 C145.07 19.25 145.07 19.25 144.12 19.5 C142 20 142 20 139 19 C138.67 19.66 138.34 20.32 138 21 C136.02 20.67 134.04 20.34 132 20 C132 19.34 132 18.68 132 18 C131.05 18.19 130.1 18.37 129.12 18.56 C126 19 126 19 124 18 C124 18.66 124 19.32 124 20 C122.37 19.91 120.75 19.8 119.12 19.69 C117.77 19.6 117.77 19.6 116.38 19.51 C114 19 114 19 112 16 C111.31 16.15 110.61 16.31 109.89 16.46 C106.82 17.03 103.8 17.32 100.69 17.56 C99.08 17.69 99.08 17.69 97.45 17.82 C96.64 17.88 95.83 17.94 95 18 C94.5 17.01 94.5 17.01 94 16 C92.68 16.33 91.36 16.66 90 17 C90 16.34 90 15.68 90 15 C87.03 15.99 84.06 16.98 81 18 C81 18.66 81 19.32 81 20 C79.91 19.84 78.81 19.67 77.69 19.5 C74.12 18.93 74.12 18.93 71 19 C70.01 19 69.02 19 68 19 C66.7 19.03 66.7 19.03 65.38 19.06 C63 19 63 19 62 18 C62 18.33 62 18.66 62 19 C59.62 19.12 59.62 19.12 57 19 C56.34 18.34 55.68 17.68 55 17 C54.51 17.49 54.51 17.49 54 18 C51.98 18.23 49.96 18.41 47.94 18.56 C46.28 18.69 46.28 18.69 44.59 18.82 C43.31 18.91 43.31 18.91 42 19 C42 19.66 42 20.32 42 21 C41.27 21.05 40.55 21.1 39.8 21.15 C34.38 21.55 29.14 22.12 23.81 23.19 C18.32 24.16 14.28 23.55 9 22 C7 21.65 5 21.31 3 21 C3 20.34 3 19.68 3 19 C2.01 18.67 1.02 18.34 0 18 C0 12.06 0 6.12 0 0 Z M497 1 C497 2.65 497 4.3 497 6 C497.99 6 498.98 6 500 6 C499.34 4.35 498.68 2.7 498 1 C497.67 1 497.34 1 497 1 Z M292 3 C291.01 4.48 291.01 4.48 290 6 C291.98 6 293.96 6 296 6 C295.01 5.67 294.02 5.34 293 5 C292.67 4.34 292.34 3.68 292 3 Z M492 5 C491.01 6.48 491.01 6.48 490 8 C491.65 8 493.3 8 495 8 C495 7.01 495 6.02 495 5 C494.01 5 493.02 5 492 5 Z M534 5 C534 5.66 534 6.32 534 7 C534.66 7 535.32 7 536 7 C536 6.34 536 5.68 536 5 C535.34 5 534.68 5 534 5 Z M559 5 C559.33 5.99 559.66 6.98 560 8 C560.66 7.67 561.32 7.34 562 7 C561.01 6.34 560.02 5.68 559 5 Z M543 6 C543.66 6.66 544.32 7.32 545 8 C545 7.34 545 6.68 545 6 C544.34 6 543.68 6 543 6 Z M497 7 C497 7.99 497 8.98 497 10 C498.32 9.67 499.64 9.34 501 9 C499.68 8.34 498.36 7.68 497 7 Z M264 8 C264 8.66 264 9.32 264 10 C264.66 9.67 265.32 9.34 266 9 C265.34 8.67 264.68 8.34 264 8 Z M485 8 C486 10 486 10 486 10 Z M552 8 C552 8.99 552 9.98 552 11 C552.66 10.67 553.32 10.34 554 10 C554 9.34 554 8.68 554 8 C553.34 8 552.68 8 552 8 Z M523 9 C523 9.99 523 10.98 523 12 C523.66 12 524.32 12 525 12 C525.33 11.01 525.66 10.02 526 9 C525.01 9 524.02 9 523 9 Z M621 9 C622 11 622 11 622 11 Z M270 10 C270.33 10.99 270.66 11.98 271 13 C271.66 13 272.32 13 273 13 C273 12.01 273 11.02 273 10 C272.01 10 271.02 10 270 10 Z M527 10 C526.01 11.48 526.01 11.48 525 13 C526.32 13 527.64 13 529 13 C528.67 12.01 528.34 11.02 528 10 C527.67 10 527.34 10 527 10 Z M724 10 C724.33 10.66 724.66 11.32 725 12 C725.33 11.34 725.66 10.68 726 10 C725.34 10 724.68 10 724 10 Z M248 11 C248.33 11.66 248.66 12.32 249 13 C249.33 12.34 249.66 11.68 250 11 C249.34 11 248.68 11 248 11 Z M516 11 C515.67 11.66 515.34 12.32 515 13 C515.66 13 516.32 13 517 13 C516.67 12.34 516.34 11.68 516 11 Z M730 11 C729.67 11.99 729.34 12.98 729 14 C729.99 13.67 730.98 13.34 732 13 C732 12.34 732 11.68 732 11 C731.34 11 730.68 11 730 11 Z M895 12 C895 12.66 895 13.32 895 14 C895.99 13.67 896.98 13.34 898 13 C897.01 12.67 896.02 12.34 895 12 Z M724 13 C725 15 725 15 725 15 Z M700 14 C700.99 15.32 701.98 16.64 703 18 C703.99 17.67 704.98 17.34 706 17 C704.69 15.44 704.69 15.44 703 14 C702.01 14 701.02 14 700 14 Z " fill="#FAFCFC" transform="translate(0,0)"/>
<path d="M0 0 C2.6 0.49 5.05 0.99 7.54 1.89 C7.87 2.55 8.2 3.21 8.54 3.89 C5.55 5.61 3.37 6.16 -0.08 6.14 C-0.86 6.15 -1.63 6.15 -2.43 6.16 C-4.46 5.89 -4.46 5.89 -6.46 3.89 C-4.63 1.06 -3.46 -0.15 0 0 Z " fill="#F8FAFA" transform="translate(586.45703125,10.109375)"/>
<path d="M0 0 C0.99 0 1.98 0 3 0 C2.67 0.99 2.34 1.98 2 3 C1.01 2.67 0.02 2.34 -1 2 C-0.67 1.34 -0.34 0.68 0 0 Z " fill="#F2F4F4" transform="translate(641,15)"/>
<path d="M0 0 C0.66 0 1.32 0 2 0 C2 0.66 2 1.32 2 2 C2.99 1.67 3.98 1.34 5 1 C5.33 1.66 5.66 2.32 6 3 C4.35 3 2.7 3 1 3 C0.67 2.01 0.34 1.02 0 0 Z " fill="#F6F8F8" transform="translate(530,14)"/>
<path d="M0 0 C0.33 1.32 0.66 2.64 1 4 C0.01 4.33 -0.98 4.66 -2 5 C-1.34 3.35 -0.68 1.7 0 0 Z " fill="#F6F8F8" transform="translate(579,12)"/>
<path d="M0 0 C0.66 0.33 1.32 0.66 2 1 C2 1.66 2 2.32 2 3 C1.01 2.67 0.02 2.34 -1 2 C-0.67 1.34 -0.34 0.68 0 0 Z " fill="#FBFDFD" transform="translate(263,16)"/>
<path d="M0 0 C0.99 0.33 1.98 0.66 3 1 C2.01 1.33 1.02 1.66 0 2 C0 1.34 0 0.68 0 0 Z " fill="#F3F5F5" transform="translate(246,17)"/>
<path d="M0 0 C0.99 0 1.98 0 3 0 C2.67 0.66 2.34 1.32 2 2 C1.34 1.34 0.68 0.68 0 0 Z " fill="#F1F3F3" transform="translate(171,17)"/>
<path d="M0 0 C0.99 0.5 0.99 0.5 2 1 C1.01 1.5 1.01 1.5 0 2 C0 1.34 0 0.68 0 0 Z " fill="#EEF0F0" transform="translate(978,27)"/>
<path d="M0 0 C0.33 0.66 0.66 1.32 1 2 C0.34 1.67 -0.32 1.34 -1 1 C-0.67 0.67 -0.34 0.34 0 0 Z " fill="#FBFDFD" transform="translate(994,22)"/>
<path d="M0 0 C3 1 3 1 3 1 Z " fill="#EEF0F0" transform="translate(130,22)"/>
<path d="M0 0 C0.66 0.66 1.32 1.32 2 2 C1.34 2 0.68 2 0 2 C0 1.34 0 0.68 0 0 Z " fill="#FBFDFD" transform="translate(992,19)"/>
<path d="M0 0 C3 1 3 1 3 1 Z " fill="#FBFDFD" transform="translate(605,14)"/>
<path d="" fill="#FBFDFD" transform="translate(0,0)"/>
<path d="" fill="#FBFDFD" transform="translate(0,0)"/>
<path d="" fill="#FBFDFD" transform="translate(0,0)"/>
<path d="" fill="#E7E9E9" transform="translate(0,0)"/>
<path d="" fill="#E7E9E9" transform="translate(0,0)"/>
<path d="" fill="#FBFDFD" transform="translate(0,0)"/>
<path d="" fill="#FBFDFD" transform="translate(0,0)"/>
<path d="" fill="#D4D6D6" transform="translate(0,0)"/>
<path d="" fill="#FBFDFD" transform="translate(0,0)"/>
<path d="" fill="#FBFDFD" transform="translate(0,0)"/>
<path d="" fill="#FBFDFD" transform="translate(0,0)"/>
<path d="" fill="#D4D6D6" transform="translate(0,0)"/>
<path d="" fill="#FBFDFD" transform="translate(0,0)"/>
<path d="" fill="#FBFDFD" transform="translate(0,0)"/>
<path d="" fill="#FBFDFD" transform="translate(0,0)"/>
<path d="" fill="#FBFDFD" transform="translate(0,0)"/>
<path d="" fill="#FBFDFD" transform="translate(0,0)"/>
<path d="" fill="#D4D6D6" transform="translate(0,0)"/>
<path d="" fill="#FBFDFD" transform="translate(0,0)"/>
<path d="" fill="#FBFDFD" transform="translate(0,0)"/>
<path d="" fill="#D4D6D6" transform="translate(0,0)"/>
<path d="" fill="#D4D6D6" transform="translate(0,0)"/>
<path d="" fill="#FBFDFD" transform="translate(0,0)"/>
<path d="" fill="#D4D6D6" transform="translate(0,0)"/>
<path d="" fill="#D4D6D6" transform="translate(0,0)"/>
<path d="" fill="#FBFDFD" transform="translate(0,0)"/>
<path d="" fill="#FBFDFD" transform="translate(0,0)"/>
<path d="" fill="#FBFDFD" transform="translate(0,0)"/>
</svg>
