<svg xmlns="http://www.w3.org/2000/svg" width="1920" height="40" viewBox="0 0 1920 40" fill="none">
  <path d="M1919.78 39.995C1919.78 39.995 1919.78 36.9838 1919.78 36.1142C1919.78 35.6793 1919.78 34.5083 1919.78 34.5083V33.1098C1919.78 33.1098 1910.53 31.8353 1910.97 32.0527C1913.39 32.7049 1915.51 34.1633 1917.94 33.511C1918.6 33.2936 1919.12 40.2124 1919.78 39.995L1920 19.6597C1919.12 19.6597 1918.24 19.8771 1917.36 20.0946C1916.26 20.312 1915.16 20.5294 1914.05 20.7468C1913.61 20.7468 1912.95 20.7468 1912.51 20.7468C1908.99 20.9642 1905.47 20.5294 1901.94 19.6597C1898.86 18.79 1896.44 20.7468 1893.8 20.0946C1893.57 19.8771 1893.13 19.6597 1892.91 19.6597C1892.69 19.6597 1892.47 19.6597 1892.25 19.8771C1891.59 20.312 1887.41 20.312 1886.75 20.0946C1886.31 19.8771 1885.87 19.2249 1885.43 19.2249C1881.46 20.0946 1877.28 19.4423 1873.1 20.0946C1867.59 20.0946 1862.09 20.312 1856.8 20.312C1854.82 20.312 1852.62 20.312 1850.63 20.312C1847.99 20.312 1845.57 22.4862 1842.93 20.9642C1842.71 20.7468 1842.49 20.7468 1842.49 20.5294C1841.39 19.8771 1839.18 21.1817 1838.96 19.4423C1838.74 17.9204 1840.28 17.0507 1841.61 16.3984C1841.61 16.181 1841.61 15.9636 1841.61 15.7462C1842.27 15.7462 1842.93 15.7462 1843.59 15.7462C1844.03 15.7462 1844.47 15.7462 1844.91 15.7462C1845.13 15.7462 1845.35 15.7462 1845.79 15.7462C1847.55 15.7462 1849.09 15.9636 1850.63 15.0939C1856.14 15.0939 1861.64 14.8765 1867.15 14.8765C1867.37 14.8765 1867.81 14.8765 1868.03 14.8765C1868.47 14.8765 1868.91 14.8765 1869.35 14.8765C1871.55 14.0068 1873.76 15.5287 1875.96 14.4416C1877.5 14.4416 1878.82 14.2242 1879.48 12.7023C1880.36 14.2242 1881.68 14.6591 1883.23 14.6591C1883.89 14.6591 1884.55 14.6591 1884.99 14.4416C1893.8 12.7023 1902.82 13.7894 1911.85 13.3545C1911.85 12.9197 1912.29 13.1371 1912.51 13.1371C1912.73 13.1371 1912.95 13.1371 1912.95 12.7023C1913.83 10.3106 1915.82 10.3106 1917.8 10.5281C1918.24 10.7455 1918.9 11.1803 1919.56 11.1803V4.65774C1918.9 4.65774 1918.46 4.65774 1917.8 4.44032C1917.58 4.65774 1917.36 4.87516 1917.14 5.09258C1916.92 5.09258 1916.7 5.09258 1916.26 5.09258C1915.82 5.09258 1915.6 5.09258 1915.16 5.09258V4.87516C1912.51 2.91838 1909.65 5.09259 1907.01 4.22291C1907.01 4.22291 1907.01 4.22291 1906.79 4.22291C1906.13 4.44033 1905.03 4.22291 1904.14 3.78807C1902.38 3.35323 1902.38 4.22291 1902.6 5.31001C1901.5 5.96227 1900.84 4.87516 1899.96 4.65774C1899.52 4.2229 1899.08 4.00548 1898.42 4.00548C1897.98 4.00548 1897.54 4.00548 1896.88 4.00548C1896.88 3.78806 1896.88 3.57064 1896.66 3.35322C1895.78 3.35322 1894.46 3.57064 1895.34 2.0487C1895.56 -0.125499 1894.02 -0.1255 1892.47 0.0919199C1890.05 0.0919199 1887.19 -0.342925 1887.41 3.35322C1887.19 3.35322 1886.97 3.35322 1886.75 3.57064C1886.53 3.57064 1886.31 3.57064 1886.09 3.57064C1884.99 3.57064 1883.67 2.48354 1882.56 3.35322C1881.9 2.70096 1881.24 2.91838 1880.36 2.91838V2.70096C1879.7 2.70096 1879.26 2.70096 1878.6 2.91838C1878.6 2.70096 1878.6 2.48354 1878.38 2.26612C1876.4 0.744182 1874.42 0.0919206 1871.77 0.961601C1871.33 2.0487 1871.55 3.78807 1869.79 4.22291C1869.79 4.22291 1869.79 4.22291 1869.57 4.22291C1869.57 4.00549 1869.57 3.78806 1869.57 3.57064C1870.89 2.70096 1870.01 1.83128 1869.57 0.961601C1868.91 1.17902 1868.25 1.39644 1867.59 1.61386V2.91838C1867.37 3.1358 1867.15 3.35322 1866.93 3.35322C1866.05 2.70096 1865.39 1.61385 1864.73 0.744173C1863.85 0.744173 1862.75 0.744173 1861.86 0.744173C1860.76 2.48353 1863.85 2.0487 1863.19 3.35322C1862.09 3.57064 1861.64 5.09258 1860.54 5.09258C1860.32 5.09258 1860.1 5.09258 1859.66 4.87516V4.65774C1859.44 3.78806 1858.56 3.35322 1857.9 3.1358C1856.8 2.91838 1855.92 3.35323 1855.26 4.22291C1854.16 4.22291 1852.84 4.2229 1851.74 4.44032C1849.75 3.57064 1847.55 2.91839 1845.35 3.78807C1844.91 4.22291 1844.47 4.65774 1844.03 4.87516C1843.81 4.65774 1843.59 4.44033 1843.15 4.22291C1839.4 3.57065 1835.66 3.1358 1831.92 3.1358C1830.82 3.1358 1829.93 3.57065 1829.05 4.22291C1824.87 4.22291 1820.69 4.22291 1816.28 4.22291H1802.19C1799.33 4.22291 1796.46 4.00548 1793.6 4.87516V5.09258C1792.94 5.09258 1792.28 4.87516 1791.62 4.87516C1790.74 5.52742 1790.3 6.83194 1788.98 6.83194C1788.98 6.17968 1789.86 4.87517 1788.76 5.31001C1786.55 6.17969 1785.01 4.65774 1783.25 4.44032C1783.25 4.65774 1783.25 4.87516 1783.25 5.09258C1783.25 6.17968 1783.69 6.61452 1784.57 6.83194C1784.13 7.04936 1783.69 7.26678 1783.25 7.70162C1781.49 8.13646 1779.29 7.26677 1777.52 8.57129V8.35387C1777.08 8.13645 1776.64 7.91904 1776.42 7.91904C1775.54 7.70162 1775.32 7.26678 1774.88 6.61452C1774.22 5.96226 1773.34 5.74485 1772.68 5.31001C1771.14 3.78807 1769.16 5.74484 1767.62 4.65774C1764.97 4.65774 1762.55 4.65774 1759.91 4.65774C1757.93 4.65774 1755.72 4.65774 1753.74 4.65774C1752.86 4.65774 1751.76 4.65774 1750.88 4.65774C1749.34 4.65774 1748.24 4.65774 1747.14 3.35322C1745.81 2.91838 1746.04 4.44032 1744.93 4.65774C1744.93 4.87516 1744.93 5.09259 1744.93 5.31001C1743.39 5.09259 1742.51 5.96226 1741.41 6.61452C1740.31 6.83194 1738.99 7.04936 1737.89 7.26678C1737.01 6.83194 1735.91 6.3971 1735.02 5.96226C1733.04 6.61452 1733.92 9.00613 1732.16 9.87581C1731.5 9.44097 1731.06 8.78871 1729.96 9.44097C1729.74 10.0932 1729.3 10.5281 1728.64 10.7455C1727.98 10.3107 1727.32 10.3106 1727.32 11.1803C1726.66 10.5281 1725.56 10.9629 1725.12 10.0932C1724.9 8.57129 1724.67 7.04936 1722.25 7.70162V7.91904C1722.25 7.91904 1722.25 8.13645 1722.47 8.13645C1722.91 8.57129 1723.35 9.00613 1723.79 9.44097C1721.81 10.7455 1719.17 9.6584 1717.41 11.3978C1717.19 11.3978 1716.97 11.3978 1716.75 11.3978C1715.65 11.1803 1713.22 12.2674 1714.77 9.44097C1715.21 8.78871 1712.56 8.13645 1711.02 8.13645V6.61452C1711.02 6.17968 1711.02 5.52743 1710.8 5.31001C1711.24 5.31001 1711.46 5.31001 1711.9 5.31001C1714.1 6.39711 1716.09 4.87516 1718.29 4.65774C1717.85 4.44032 1717.19 4.2229 1716.75 4.00548C1714.32 4.87516 1711.9 4.00548 1709.7 4.00548C1708.82 4.00548 1707.72 4.00548 1706.84 4.00548C1706.84 4.2229 1706.84 4.44032 1706.84 4.65774C1706.4 5.09258 1705.74 5.09258 1705.3 5.09258C1703.98 5.09258 1702.65 4.00548 1701.11 4.00548C1700.89 4.00548 1700.67 3.78807 1700.45 3.78807C1699.57 4.22291 1699.79 5.31 1699.57 5.96226C1699.57 5.96226 1699.79 5.96226 1699.79 6.17968C1699.79 6.61452 1700.45 6.83194 1699.79 7.26678C1699.79 7.4842 1699.79 7.70162 1699.79 7.91904C1698.91 7.91904 1697.81 7.91903 1697.81 9.22355C1698.69 9.65839 1699.35 10.3107 1700.23 9.65839C1700.45 9.65839 1700.67 9.87581 1701.11 9.87581C1701.77 9.87581 1702.21 9.87581 1702.87 9.87581C1702.43 10.0932 1701.99 10.3107 1701.55 10.3107C1700.67 10.5281 1699.57 10.5281 1698.47 10.7455C1698.25 10.7455 1698.03 10.7455 1697.81 10.9629C1697.37 10.7455 1696.93 10.7455 1696.49 10.7455H1696.27C1696.27 10.7455 1696.49 10.5281 1696.27 10.5281C1696.27 10.3106 1696.05 10.3107 1696.05 10.3107C1694.95 10.0932 1696.49 8.13645 1694.73 8.13645C1694.07 8.57129 1693.41 9.00613 1692.74 9.44097C1693.18 9.87581 1693.41 10.3107 1693.18 10.7455C1692.52 10.7455 1691.86 10.7455 1691.42 10.9629C1691.42 10.7455 1691.2 10.7455 1690.98 10.5281C1689.66 10.0932 1688.34 9.87582 1687.02 10.7455C1684.82 10.9629 1682.61 11.1803 1680.63 10.0932C1680.19 9.65839 1679.53 9.65839 1679.09 9.65839C1677.77 10.0932 1676.01 10.0932 1675.79 11.8326C1675.57 11.8326 1675.13 11.6152 1674.91 11.3978C1674.69 11.3978 1674.47 11.3977 1674.25 11.1803C1672.04 9.87581 1669.4 10.9629 1667.2 10.5281C1666.98 10.5281 1666.76 10.5281 1666.54 10.5281V10.3107C1664.12 9.65839 1661.7 9.44097 1659.27 10.0932C1657.95 10.9629 1656.19 9.22355 1654.87 10.7455C1651.35 10.7455 1647.82 10.9629 1644.3 10.9629C1642.98 11.8326 1641.66 11.1803 1640.33 11.3978H1640.11C1639.67 11.3978 1639.01 11.3978 1638.35 11.3978C1639.01 10.5281 1639.89 10.5281 1641 10.5281C1642.1 10.3106 1643.2 10.3107 1644.3 9.87581C1645.84 8.57129 1646.06 7.04936 1644.96 5.52742C1645.18 5.52742 1645.4 5.52743 1645.62 5.31001C1645.62 5.31001 1645.62 5.09258 1645.84 5.09258C1645.84 4.87516 1645.84 4.65774 1645.84 4.44032C1645.62 4.2229 1645.4 4.00549 1645.18 3.78807C1643.86 2.91839 1643.64 3.78806 1643.42 4.65774V4.87516C1643.2 4.87516 1643.2 4.87516 1642.98 4.87516C1641.88 4.87516 1641 4.87516 1640.11 5.52742C1639.01 5.31 1637.91 5.31001 1636.81 5.31001C1635.05 5.31001 1633.29 5.52742 1631.75 6.3971C1630.65 6.83194 1629.32 6.83193 1629.54 8.35387C1631.09 10.0932 1633.51 10.0932 1635.49 10.9629C1635.49 10.9629 1635.71 10.9629 1635.71 11.1803C1634.39 11.8326 1632.85 11.8326 1632.41 13.572C1630.43 14.0068 1628.66 13.3545 1626.9 12.9197C1626.24 12.2674 1625.58 12.2674 1624.7 12.4849C1624.7 12.4849 1624.48 12.4849 1624.26 12.4849C1623.38 12.4849 1621.84 13.1371 1622.5 11.1803H1622.72C1623.16 10.5281 1623.6 9.87581 1623.6 9.22355C1623.82 9.00613 1623.82 8.78871 1624.04 8.57129C1625.14 8.35387 1625.8 7.70162 1626.68 6.3971H1621.84C1620.96 6.3971 1619.86 6.3971 1618.97 6.3971C1618.75 6.3971 1618.53 6.17968 1618.31 6.17968C1616.11 6.3971 1613.91 5.96226 1611.93 7.04936C1611.71 7.04936 1611.49 7.04936 1611.27 7.04936C1611.05 7.91904 1610.83 8.78871 1610.39 9.65839C1610.83 10.0932 1611.27 10.3107 1611.93 10.3107C1612.15 10.3107 1612.37 10.5281 1612.37 10.5281C1614.57 12.05 1612.15 13.1371 1611.71 14.4416C1608.62 14.8765 1605.54 15.3113 1602.46 15.3113C1601.36 15.3113 1600.26 15.3113 1599.16 15.0939C1598.72 15.3113 1598.05 15.5287 1597.61 15.7462C1597.39 15.7462 1597.17 15.7462 1597.17 15.7462C1595.63 15.5287 1594.09 14.6591 1592.77 14.6591C1592.55 14.6591 1592.33 14.6591 1592.11 14.6591C1589.47 15.0939 1589.91 14.2242 1590.35 13.3545H1590.57C1591.67 13.3545 1592.99 13.3545 1593.87 12.7023C1595.19 14.0068 1596.95 14.4416 1598.72 14.8765C1599.82 14.2242 1600.48 13.1371 1601.14 12.2674C1601.8 12.4849 1602.46 12.05 1603.12 12.05C1604.22 11.3977 1604.44 10.7455 1603.12 10.0932C1602.68 9.22355 1602.46 7.91903 1600.92 8.78871C1600.92 8.57129 1600.7 8.57129 1600.7 8.57129C1600.7 8.35387 1600.7 8.13646 1600.7 7.91904C1600.92 5.74484 1599.6 5.09258 1597.61 4.87516C1595.85 5.31 1594.31 4.2229 1592.77 4.87516C1591.01 5.96226 1591.67 6.83194 1592.99 7.70162C1592.77 7.91904 1592.55 7.91903 1592.11 8.13645C1591.23 8.13645 1590.13 8.13645 1589.25 8.13645C1589.03 7.70161 1588.15 6.83194 1589.03 6.3971C1591.89 4.87516 1589.91 4.2229 1588.59 3.57064C1587.48 4.44032 1586.6 5.31 1585.06 5.52742C1585.06 5.52742 1585.06 5.74484 1584.84 5.74484L1585.06 5.52742C1584.18 4.2229 1582.86 4.22291 1581.54 4.22291C1580.44 5.96227 1582.64 5.31 1582.86 6.17968C1582.2 6.61452 1581.54 6.83194 1580.88 6.83194C1579.12 6.83194 1577.36 5.74484 1575.81 6.83194C1575.59 6.83194 1575.37 6.83194 1575.15 6.83194C1574.71 6.83194 1574.27 6.83194 1573.83 6.83194C1573.17 6.83194 1572.51 6.83194 1571.85 6.83194C1571.19 6.61452 1570.75 6.61452 1570.09 6.61452C1568.33 6.61452 1566.56 7.04936 1564.58 7.26678C1562.6 6.17968 1560.62 6.83194 1558.42 6.83194C1558.2 6.61452 1557.98 6.61452 1557.76 6.3971H1557.54C1557.98 5.96226 1558.86 5.96227 1558.86 5.31001C1556.44 5.09259 1554.01 5.09258 1551.81 5.09258C1550.27 4.87516 1548.73 4.65774 1547.19 4.87516C1544.76 4.87516 1542.12 4.87516 1539.7 4.87516C1538.38 4.87516 1537.06 4.87516 1535.74 4.87516C1535.08 4.87516 1534.19 4.87516 1533.53 4.87516C1533.53 5.09258 1533.31 5.31001 1533.31 5.31001C1533.09 5.31001 1532.87 5.31001 1532.87 5.31001C1532.65 5.09259 1532.43 4.87516 1532.21 4.65774C1530.45 4.2229 1528.91 4.2229 1527.15 4.65774L1527.37 4.87516C1523.62 4.44032 1520.32 5.96226 1516.58 5.96226C1516.14 5.96226 1515.7 5.96226 1515.04 5.96226C1513.94 5.96226 1512.61 5.31 1511.73 6.17968C1510.63 7.4842 1513.05 7.91903 1513.05 9.22355C1512.61 9.44097 1512.17 9.65839 1511.73 9.87581C1510.85 9.44097 1509.97 9.00613 1508.87 8.57129V8.35387V8.13645C1510.19 6.17967 1508.87 5.96226 1507.33 5.96226C1507.33 6.3971 1507.33 6.83194 1507.33 7.26678C1507.33 7.70162 1507.33 8.13645 1507.33 8.57129C1506.67 8.78871 1506.23 9.22355 1506.45 9.87581C1506.23 9.87581 1506.23 9.87581 1506.01 9.87581C1505.79 9.44097 1505.35 9.00613 1505.13 8.57129C1504.03 7.70161 1505.79 5.09259 1502.92 5.31001C1501.16 5.52743 1498.96 4.2229 1497.2 5.74484C1497.86 6.3971 1497.2 7.04936 1497.42 7.70162C1497.42 7.91904 1497.42 7.91903 1497.42 8.13645L1497.2 8.35387C1496.98 8.13645 1496.98 8.13646 1496.76 7.91904C1496.76 7.4842 1496.76 7.26678 1496.54 6.83194C1496.1 5.96226 1495.44 5.31 1495 4.44032C1492.35 4.00548 1493.9 6.3971 1493.02 7.04936C1492.8 7.26678 1492.8 7.4842 1492.8 7.91904C1492.8 9.22356 1493.9 10.5281 1493.02 11.6152C1493.68 12.2674 1494.34 12.4849 1495.22 12.7023C1495.66 12.7023 1496.1 12.7023 1496.32 12.4849C1496.76 13.1371 1497.2 13.3545 1497.86 13.572C1499.18 13.7894 1500.06 12.9197 1501.38 12.7023C1501.16 13.1371 1501.16 13.7894 1502.26 13.7894C1502.48 13.7894 1502.7 13.7894 1502.7 13.7894C1503.81 13.7894 1504.91 13.572 1505.79 14.4416C1506.01 14.2242 1506.23 14.2242 1506.67 14.0068C1506.89 14.0068 1507.11 14.0068 1507.33 14.0068C1507.77 14.0068 1508.21 14.0068 1508.65 14.0068C1509.31 14.2242 1509.75 14.4416 1510.41 14.4416C1510.63 14.4416 1510.85 14.4416 1511.07 14.2242C1511.29 14.4416 1511.51 14.8765 1511.95 15.0939C1512.39 15.5287 1512.83 15.7462 1513.49 16.181C1511.51 16.181 1509.31 16.181 1507.33 16.181C1506.89 16.181 1506.45 16.181 1505.79 16.181C1505.35 16.181 1504.69 16.181 1504.03 16.181C1501.82 16.181 1499.4 16.6158 1497.2 15.5287C1496.98 15.0939 1496.32 14.8765 1495.88 14.8765C1495.66 14.8765 1495.22 14.6591 1495 14.6591V14.4416C1494.78 13.3545 1494.12 12.9197 1493.02 13.1371C1492.35 13.1371 1491.69 13.1371 1491.03 13.1371C1490.59 13.572 1489.05 12.9197 1489.49 14.4416C1490.59 15.3113 1489.93 15.9636 1489.05 15.7462C1485.09 15.5287 1481.34 16.3984 1477.38 15.3113C1477.16 15.0939 1476.94 14.6591 1476.72 14.4416V14.6591C1476.5 14.6591 1476.5 14.6591 1476.28 14.6591C1475.4 14.6591 1474.96 16.181 1473.86 15.7462C1474.52 14.8765 1474.96 14.0068 1475.62 12.9197C1474.3 12.2674 1472.76 12.4849 1471.43 12.4849C1471.43 12.2674 1471.43 12.05 1471.43 12.05C1471.43 11.8326 1471.21 11.8326 1471.21 11.6152C1471.65 11.1803 1471.88 10.7455 1471.88 10.3107C1471.88 10.0932 1470.99 10.0932 1470.55 9.87581C1470.55 9.65839 1470.55 9.44097 1470.55 9.22355C1468.79 8.57129 1466.81 8.57129 1464.83 8.57129C1464.39 9.00613 1463.73 8.78871 1463.29 9.22355H1461.97V9.44097C1461.97 9.22355 1461.75 9.22355 1461.75 9.00613C1460.42 9.00613 1459.1 8.78871 1457.78 9.22355C1457.56 9.22355 1457.34 9.44097 1457.12 9.44097C1456.02 9.87581 1455.14 9.00613 1454.26 9.22355C1453.82 9.22355 1453.16 9.22355 1452.72 9.44097C1451.18 9.87581 1449.63 10.5281 1451.62 12.2674C1452.5 12.9197 1452.06 14.2242 1452.94 14.8765C1453.82 15.3113 1454.92 15.3113 1455.8 14.8765C1456.02 14.6591 1456.02 14.4416 1456.24 14.4416C1456.68 14.8765 1456.9 14.6591 1456.9 14.2242C1457.12 14.0068 1457.56 13.572 1458 13.3545C1458.22 13.3545 1458.44 13.572 1458.66 13.572C1459.1 13.572 1459.54 13.572 1459.98 13.3545C1460.2 13.7894 1460.64 14.0068 1461.31 14.0068C1461.31 14.0068 1461.31 14.0068 1461.53 14.0068C1461.97 15.0939 1461.75 15.7462 1459.98 15.5287C1459.1 15.3113 1458.22 15.5287 1457.34 15.3113C1453.82 14.8765 1450.07 15.0939 1446.55 14.6591C1446.99 14.6591 1447.21 14.6591 1447.43 14.6591C1447.87 14.6591 1448.31 14.6591 1448.75 14.6591C1448.75 14.4416 1448.97 14.2242 1448.97 14.2242C1449.63 14.2242 1450.29 14.2242 1450.96 14.2242C1451.4 14.2242 1451.84 14.2242 1452.28 14.2242C1451.62 13.3545 1450.96 12.4849 1450.29 11.6152C1450.07 11.1803 1449.41 10.9629 1448.75 10.9629C1447.87 13.572 1445.01 12.7023 1443.03 13.572C1442.81 13.3545 1442.59 13.1371 1442.37 12.9197C1441.49 12.2674 1440.39 12.2674 1439.5 12.9197C1439.5 13.1371 1439.5 13.3545 1439.5 13.572C1440.39 14.0068 1441.27 14.4416 1442.37 14.8765C1442.59 14.8765 1442.81 15.0939 1442.81 15.0939C1442.81 15.3113 1442.81 15.5287 1442.81 15.5287C1442.59 15.7462 1442.37 15.7462 1442.37 15.9636C1442.15 15.7462 1441.93 15.7462 1441.49 15.5287H1441.27C1439.72 13.7894 1437.52 14.8765 1435.54 14.8765C1435.54 14.8765 1435.54 14.8765 1435.32 14.8765C1434.88 14.2242 1434 13.7894 1433.56 12.9197C1434.22 11.6152 1436.2 12.05 1436.64 10.7455C1436.64 10.5281 1436.64 10.5281 1436.64 10.3107C1436.42 9.87581 1436.42 9.65839 1435.98 9.65839C1435.1 9.22355 1434.22 9.22355 1433.34 9.22355C1431.58 9.44097 1429.82 9.65839 1428.27 10.3107C1428.05 10.5281 1427.83 10.7455 1427.61 10.9629C1427.61 11.1803 1427.83 11.1803 1427.83 11.3978C1427.83 11.3978 1427.83 11.3978 1427.61 11.3978L1427.39 11.1803C1426.95 11.1803 1426.73 11.1803 1426.29 11.3978C1425.63 10.9629 1424.75 10.9629 1424.09 11.3978C1424.09 11.3978 1424.09 11.3977 1424.09 11.6152C1423.87 11.6152 1423.87 11.6152 1423.65 11.6152C1422.99 11.3977 1421.89 11.3977 1421.23 11.1803C1420.35 10.9629 1419.69 10.7455 1419.47 9.44097H1419.69C1420.57 8.78871 1420.35 7.91904 1419.69 7.26678C1418.58 5.96226 1417.26 4.87516 1415.28 5.52742C1415.72 5.09258 1415.94 4.44033 1415.94 3.78807C1416.16 3.78807 1416.6 3.78807 1416.82 3.78807C1417.04 3.78807 1417.04 4.00548 1417.26 4.00548C1418.14 4.44032 1419.03 4.44033 1419.91 4.22291C1420.79 3.78807 1422.11 3.78806 1422.11 2.26612C1421.45 1.17902 1420.35 0.961601 1419.25 0.961601C1418.58 2.70096 1416.16 0.309342 1415.5 2.26612C1415.28 2.26612 1415.06 2.26612 1415.06 2.26612C1413.74 2.26612 1412.2 2.0487 1410.88 2.91838C1411.54 4.00548 1413.74 3.78806 1413.52 5.52742C1413.3 5.52742 1413.08 5.52742 1413.08 5.52742C1410.88 5.52742 1408.68 4.00548 1406.69 6.17968C1406.25 5.52742 1405.59 5.09258 1404.93 5.09258H1404.71C1404.71 5.31 1404.71 5.52742 1404.49 5.52742C1403.17 5.52742 1401.85 5.52742 1400.31 5.74484C1400.31 5.52742 1400.09 5.52743 1400.09 5.31001C1398.77 5.31001 1397.44 3.78806 1396.12 5.09258C1396.12 5.31 1396.12 5.31 1396.12 5.52742C1395.9 5.74484 1395.46 5.74484 1395.02 5.96226C1395.46 5.74484 1395.68 5.74484 1396.12 5.52742C1394.58 5.52742 1392.82 5.52742 1391.28 5.52742C1390.84 5.31 1390.4 5.31 1389.74 5.09258C1386.21 4.44032 1382.69 4.00548 1379.39 6.17968C1379.17 6.3971 1379.17 6.61452 1379.17 6.61452C1379.17 6.61452 1379.17 6.61452 1379.39 6.83194C1379.39 7.26678 1379.39 7.4842 1379.39 7.91904C1379.61 8.13646 1379.61 8.13645 1379.61 8.35387C1382.03 9.00613 1384.23 10.7455 1386.87 9.44097C1386.87 9.65839 1387.31 10.0932 1387.54 10.3107C1387.76 10.3107 1387.98 10.3107 1387.98 10.3107C1387.76 10.5281 1387.54 10.7455 1387.31 10.9629C1386.87 11.1803 1386.21 11.1803 1385.55 11.1803C1384.23 11.1803 1382.91 11.1803 1383.13 12.7023C1381.15 12.4849 1379.17 13.572 1376.97 12.9197C1376.3 12.9197 1375.42 12.9197 1374.76 13.3545C1374.32 14.0068 1374.32 14.4416 1374.54 14.8765C1373.88 14.6591 1373.44 14.2242 1372.78 14.2242C1372.78 14.2242 1372.78 14.2242 1372.78 14.0068C1372.78 13.572 1372.56 13.3545 1372.34 13.1371C1371.46 12.4849 1370.36 12.2674 1369.26 12.4849C1366.4 12.9197 1363.75 14.0068 1360.89 14.0068C1359.79 14.4416 1360.23 14.8765 1360.67 15.5287C1360.01 15.5287 1359.57 14.6591 1359.13 14.4416C1358.91 14.2242 1358.47 14.2242 1358.25 14.4416C1356.49 15.3113 1354.72 15.9636 1352.74 14.4416C1320.59 17.7029 1288.22 15.0939 1256.07 15.9636C1254.75 15.9636 1253.43 16.181 1252.55 15.0939C1252.33 14.8765 1251.89 14.6591 1251.67 14.6591C1245.72 17.4855 1239.55 15.3113 1233.61 15.9636C1233.17 15.9636 1232.73 16.181 1232.29 16.3984C1231.63 16.3984 1230.97 16.3984 1230.31 16.3984C1229.65 15.7462 1228.98 15.7462 1228.32 15.7462C1227.66 15.7462 1227 15.7462 1226.34 15.7462C1219.52 15.7462 1212.47 15.7462 1205.64 15.7462C1204.1 14.4416 1202.12 15.0939 1200.36 14.8765C1197.94 14.8765 1195.73 15.0939 1193.31 14.6591C1192.21 14.4416 1191.33 14.6591 1190.67 15.5287V15.7462C1189.79 15.0939 1188.47 14.8765 1187.59 14.4416C1187.37 14.4416 1186.92 14.4416 1186.7 14.4416C1186.04 14.6591 1185.38 14.8765 1184.72 14.8765C1184.94 14.8765 1185.16 14.8765 1185.16 14.8765C1184.06 14.0068 1188.03 12.9197 1185.16 12.05C1183.4 11.8326 1183.4 12.7023 1183.62 13.572H1183.4C1182.08 13.3545 1180.76 13.3545 1179.44 14.0068C1179.66 13.3545 1179.88 12.9197 1180.1 12.2674C1179.88 12.2674 1179.66 12.2674 1179.44 12.2674C1178.78 12.7023 1177.02 12.4849 1178.12 14.2242C1178.56 14.4416 1178.78 14.6591 1179.22 14.8765V15.0939C1179.44 15.7462 1179.88 15.9636 1180.32 15.9636C1180.1 16.181 1180.1 16.3984 1179.88 16.6158C1179.66 16.3984 1179.44 16.3984 1179.22 16.3984C1179 16.3984 1178.78 16.3984 1178.34 16.3984C1177.9 16.181 1177.46 15.9636 1177.02 15.7462C1176.58 15.0939 1175.91 14.4416 1175.03 14.8765C1174.81 15.3113 1174.59 15.7462 1174.15 15.9636C1174.15 15.7462 1174.37 15.5287 1174.37 15.3113C1174.37 14.4416 1174.59 13.572 1174.59 12.7023C1174.37 12.4849 1174.15 12.05 1174.15 11.8326C1175.03 10.9629 1176.13 11.6152 1177.24 12.05C1178.12 12.2674 1178.78 11.8326 1179.66 11.6152C1180.54 11.1803 1181.86 11.1803 1182.52 10.5281L1182.74 10.7455C1183.4 11.1803 1184.06 11.6152 1184.94 10.9629C1185.16 10.7455 1185.38 10.5281 1185.6 10.3107V10.0932C1185.82 10.3106 1186.04 10.5281 1186.04 10.7455C1187.59 11.1803 1189.13 11.1803 1190.67 10.7455C1191.99 10.3107 1191.77 9.22355 1191.77 8.13645C1191.77 7.91903 1191.55 7.4842 1191.33 7.26678C1190.89 7.04936 1190.23 7.04936 1189.79 7.26678C1186.48 9.22356 1183.84 5.74484 1180.54 6.83194C1180.32 7.04936 1180.32 7.26678 1180.54 7.4842C1180.32 7.4842 1180.1 7.4842 1179.88 7.70162C1178.12 7.70162 1176.58 7.70162 1174.81 7.70162C1174.37 7.70162 1173.93 7.70162 1173.49 7.4842C1173.49 7.04936 1173.49 6.3971 1174.15 6.17968C1174.15 5.09258 1173.71 5.09258 1172.83 5.52742C1170.63 6.83194 1168.43 3.78807 1166.23 5.31001L1166.45 5.52742C1166.89 5.96226 1167.33 6.3971 1167.77 6.61452C1167.77 6.61452 1167.77 6.61452 1167.99 6.61452C1167.55 7.04936 1167.11 7.70161 1166.67 8.35387C1166.23 9.00613 1166.01 9.65839 1166.01 10.3107C1166.23 10.9629 1166.23 11.6152 1166.01 12.2674C1166.01 12.7023 1166.23 12.9197 1166.45 13.3545C1165.56 13.3545 1164.9 12.9197 1164.24 13.7894C1163.36 14.6591 1162.48 15.3113 1161.16 15.5287C1160.94 15.5287 1160.94 15.7462 1160.72 15.7462C1160.94 15.5287 1161.16 15.0939 1161.16 14.6591C1161.16 13.572 1160.06 13.7894 1159.4 13.572C1158.52 12.9197 1158.52 10.9629 1156.54 12.05C1155.88 12.4849 1155.21 12.05 1154.77 11.3978C1154.99 11.3978 1154.99 11.3977 1155.21 11.1803C1156.32 10.7455 1158.3 11.3977 1158.74 9.44097C1158.74 9.22355 1158.74 9.00613 1158.74 8.78871C1158.74 8.57129 1158.74 8.57129 1158.74 8.35387C1156.98 8.35387 1155.44 8.13645 1153.89 8.13645C1153.45 8.35387 1152.79 8.57129 1152.35 8.78871C1149.93 9.22355 1147.73 8.13645 1145.53 8.13645C1145.53 8.35387 1145.53 8.78871 1145.31 9.00613C1144.42 8.13644 1142.88 7.91904 1141.56 7.91904C1141.12 7.91904 1140.9 7.91904 1140.46 7.70162C1140.68 7.70162 1140.9 7.70162 1141.12 7.70162C1141.78 7.4842 1142.44 7.4842 1142.88 6.83194C1142.22 4.87516 1140.46 5.96226 1139.36 5.52742C1138.92 5.09258 1138.48 5.31 1137.82 5.52742C1136.72 6.61452 1135.62 6.17968 1134.3 5.96226C1133.85 5.74484 1133.19 5.74484 1132.75 5.96226C1132.53 6.17968 1132.31 6.3971 1131.87 6.61452C1131.65 7.91904 1132.75 7.91903 1133.41 8.13645C1132.31 7.91903 1130.99 8.13646 1130.55 6.83194H1129.23C1129.01 6.83194 1128.79 6.83194 1128.79 6.83194C1127.69 6.83194 1126.81 7.4842 1125.71 6.83194C1125.93 7.4842 1126.15 8.13645 1126.37 8.78871C1125.71 9.00613 1125.71 9.44097 1125.71 10.0932C1125.93 10.9629 1126.59 11.3978 1127.25 11.8326C1127.03 12.05 1126.81 12.05 1126.37 12.2674C1126.81 11.1803 1125.49 10.9629 1125.05 10.3107C1123.5 11.3978 1120.64 9.44097 1119.98 12.2674V12.9197C1119.76 12.9197 1119.54 12.9197 1119.32 12.9197C1118.22 11.1803 1116.68 11.1803 1115.14 12.2674C1114.48 12.7023 1114.04 13.7894 1112.93 13.572C1112.71 13.7894 1112.71 14.0068 1112.93 14.2242C1113.16 14.6591 1113.38 14.0068 1113.15 14.4416C1112.93 14.8765 1112.71 14.4416 1112.27 14.6591C1112.05 14.6591 1111.83 14.8765 1111.61 15.0939C1111.17 15.7462 1111.17 16.3984 1111.61 17.0507H1110.29C1110.07 16.6158 1109.85 16.181 1109.85 15.9636C1107.87 17.4855 1105.89 15.3113 1103.91 15.7462C1103.91 15.5287 1103.91 15.3113 1103.91 15.3113C1105.23 15.0939 1106.77 15.0939 1108.09 14.8765C1109.63 14.6591 1108.31 13.7894 1108.31 13.3545C1107.87 12.9197 1107.21 12.9197 1106.55 12.9197C1106.11 12.9197 1105.67 13.1371 1105.23 12.9197H1105.01C1105.01 12.7023 1105.23 12.4849 1105.23 12.2674C1105.23 12.05 1105.01 11.6152 1104.79 11.3978C1102.59 10.3107 1100.38 11.3977 1098.18 11.1803C1096.2 10.9629 1097.74 13.1371 1098.18 14.4416C1096.2 14.4416 1094.44 15.0939 1094.88 12.2674C1095.1 11.3978 1094.22 10.3106 1092.9 11.1803C1092.01 11.6152 1092.9 12.9197 1092.01 13.3545C1090.69 13.3545 1090.69 12.4849 1090.69 11.6152C1090.47 11.1803 1090.47 10.7455 1090.03 10.5281C1088.93 10.7455 1087.61 11.6152 1086.95 9.65839C1086.73 9.22355 1086.07 9.87581 1085.85 10.3107C1084.97 10.3107 1084.09 10.3106 1083.21 10.5281C1083.65 11.3977 1083.65 12.05 1082.33 11.8326C1080.12 7.91903 1079.9 11.6152 1079.02 12.4849H1078.8C1077.92 13.3545 1078.8 14.0068 1079.46 14.4416C1079.46 15.0939 1079.24 15.5287 1079.02 15.7462C1078.8 15.7462 1078.8 15.7462 1078.58 15.5287C1076.6 14.6591 1075.28 15.0939 1074.62 16.181C1072.2 15.7462 1069.99 15.9636 1067.79 16.3984C1067.13 15.9636 1066.25 15.7462 1065.81 16.3984C1065.15 16.3984 1064.49 16.6158 1064.05 17.0507C1062.73 17.0507 1061.41 17.0507 1060.08 17.0507H1059.86C1059.42 15.9636 1058.54 15.5287 1056.56 17.2681C1056.12 17.2681 1055.9 17.0507 1055.46 17.0507C1055.24 16.8333 1055.24 16.8333 1055.02 16.8333C1054.8 16.6158 1054.58 16.181 1054.36 15.9636C1053.92 16.181 1053.48 16.181 1053.04 16.3984C1052.6 16.181 1052.38 15.9636 1052.16 15.3113C1051.94 13.7894 1050.4 14.0068 1049.29 13.3545C1048.19 13.3545 1046.87 13.3545 1045.77 13.1371C1044.23 12.4849 1043.57 13.3545 1043.13 14.4416C1042.25 14.6591 1041.37 14.2242 1040.71 13.7894C1040.27 13.572 1039.83 13.3545 1039.39 13.572C1038.72 14.0068 1038.5 14.6591 1038.28 15.3113C1037.84 14.8765 1037.18 14.6591 1036.74 14.8765C1033.88 15.5287 1034.98 13.7894 1035.2 12.7023C1035.2 12.7023 1034.98 12.4849 1034.98 12.2674C1034.54 12.05 1034.1 12.05 1033.44 12.05C1033.22 12.2674 1033 12.4849 1032.78 12.7023C1032.34 13.1371 1032.34 13.7894 1032.34 14.4416C1031.46 14.2242 1031.02 13.572 1030.14 13.3545C1029.92 14.2242 1029.7 15.0939 1029.7 15.7462C1029.7 15.9636 1029.7 16.181 1029.7 16.181C1028.37 16.181 1027.05 16.181 1025.51 16.181C1024.41 15.9636 1023.31 15.7462 1022.21 16.181C1021.55 16.181 1021.11 16.3984 1020.67 16.8333C1020.01 17.2681 1019.13 17.9204 1018.69 17.9204C1018.25 17.9204 1018.02 17.4855 1018.02 16.181C1018.02 16.181 1018.02 15.9636 1018.25 15.9636C1018.25 15.3113 1018.02 15.0939 1017.36 15.3113C1013.62 15.7462 1009.88 16.181 1006.13 15.3113C1005.69 15.0939 1005.25 14.8765 1004.59 14.8765C1003.71 15.0939 1002.83 15.3113 1002.17 15.7462C1001.95 15.7462 1001.95 15.7462 1001.73 15.7462C1001.29 15.7462 1000.63 15.7462 1000.41 16.181C1000.19 16.181 999.747 16.181 999.307 16.181C999.087 15.7462 998.646 15.5287 998.206 15.7462C997.545 15.9636 997.545 16.3984 997.986 17.0507C997.986 17.2681 998.206 17.4855 998.206 17.4855C997.105 18.3552 996.004 17.7029 994.903 16.3984C994.903 16.3984 994.462 16.6158 994.022 16.8333C993.802 16.8333 993.582 16.8333 993.141 16.8333C992.04 16.8333 990.939 16.6158 990.058 17.2681C989.177 17.2681 988.297 17.4855 987.416 17.4855C986.975 17.2681 986.535 16.8333 985.874 16.6158C985.874 16.6158 985.874 16.6158 985.654 16.3984C985.654 16.3984 985.654 16.3984 985.434 16.6158V16.3984C984.993 15.3113 985.654 14.2242 984.994 13.1371C984.994 12.9197 984.994 12.7023 984.994 12.7023C985.214 12.4849 985.434 12.2674 985.874 12.05C986.755 12.05 987.636 11.3978 988.517 11.3978C987.196 14.6591 987.196 14.8765 990.058 14.8765C990.499 14.2242 990.499 13.3545 990.939 12.7023C990.939 12.7023 991.159 12.9197 991.38 12.9197C991.38 13.1371 991.38 13.3545 991.38 13.3545C993.802 14.0068 995.564 13.7894 994.683 10.7455L994.463 10.5281C994.463 10.5281 994.242 10.5281 994.242 10.7455C994.022 10.7455 993.802 10.7455 993.582 10.7455C993.361 10.5281 993.141 10.3106 992.701 10.0932C993.141 9.65839 993.582 9.65839 994.022 9.65839C995.564 9.65839 996.444 7.91903 998.206 8.35387C999.087 8.35387 999.527 7.91904 999.968 7.4842C999.968 7.70162 999.968 7.70162 999.968 7.91904C1000.19 8.35388 1000.63 8.78871 1001.29 8.78871C1001.51 8.57129 1001.73 8.35387 1001.95 8.13645C1001.95 8.13645 1001.95 8.35387 1002.17 8.35387C1005.03 9.00613 1007.67 8.57129 1010.54 8.13645C1010.1 9.22355 1010.76 9.87581 1011.64 10.3107C1011.86 10.3107 1012.08 10.3107 1012.3 10.3107C1012.52 10.9629 1012.52 11.3977 1012.08 12.05C1011.64 12.7023 1011.64 13.3545 1012.52 13.572C1014.5 14.0068 1013.62 12.05 1014.28 11.3978C1014.94 10.5281 1014.5 10.0932 1014.06 9.44097C1014.28 9.44097 1014.5 9.22355 1014.72 9.22355C1015.82 8.78871 1016.92 9.22355 1017.8 9.00613C1018.25 9.00613 1018.25 8.78871 1018.47 8.35387C1018.47 8.35387 1018.47 8.35387 1018.69 8.35387V8.57129C1019.13 9.00613 1019.57 9.22355 1020.23 9.44097C1021.11 9.65839 1021.99 10.0932 1022.87 10.3107C1023.31 10.5281 1023.75 10.5281 1024.41 10.3107C1024.63 10.3107 1024.63 10.3106 1024.85 10.0932C1025.07 10.3106 1025.29 10.3107 1025.51 10.3107C1026.39 10.3107 1027.49 11.3977 1027.93 10.5281C1028.82 8.78871 1026.39 9.87581 1025.95 9.00613C1026.39 8.57129 1026.83 8.35386 1027.71 9.00613C1030.8 12.4848 1031.68 12.7023 1034.32 10.7455C1034.54 10.5281 1034.54 10.0932 1034.54 9.87581C1035.2 9.44097 1034.32 9.00613 1034.32 8.78871C1033.88 8.78871 1033.66 8.78871 1033.22 8.78871C1033.22 9.00613 1033.22 9.00613 1033 9.22355C1031.68 8.13645 1030.36 7.26678 1028.59 6.83194C1027.71 6.61452 1026.83 6.3971 1025.95 6.17968C1025.73 5.96226 1025.51 5.96226 1025.07 5.96226C1024.63 6.17968 1024.19 6.17968 1023.97 6.17968C1024.19 5.96226 1024.41 5.74484 1024.63 5.52742C1024.63 4.65774 1023.97 4.22291 1023.31 4.22291C1022.65 4.65775 1021.77 5.09258 1021.11 5.52742C1019.13 6.61452 1017.14 6.3971 1015.16 5.74484C1013.84 5.31 1012.3 5.09258 1011.2 6.61452C1010.32 5.52742 1008.78 5.31 1007.45 4.87516C1005.91 5.74484 1004.81 6.3971 1003.05 4.65774C1001.95 3.57064 1000.63 5.09258 999.307 5.74484C999.087 5.74484 998.867 5.96226 998.646 5.96226C997.986 6.61452 997.325 5.52742 996.444 5.74484C995.343 4.87516 994.463 6.3971 993.582 5.74484C993.361 5.74484 993.141 5.74484 993.141 5.74484C992.701 5.52742 992.04 5.31001 991.6 5.31001C991.38 5.31001 991.159 5.31001 990.719 5.31001H988.957V5.09258C988.957 4.44032 988.737 3.57065 987.636 3.78807C986.755 4.00549 986.315 3.57064 985.654 3.35322C985.214 2.91838 984.773 2.91838 984.333 3.35322C983.892 4.00548 984.553 5.31 983.452 5.74484C983.232 5.74484 983.012 5.74484 982.791 5.96226C981.69 5.96226 980.369 5.96226 979.488 6.61452C979.048 5.96226 978.387 5.31001 977.727 5.31001H977.506C977.066 5.74485 976.405 5.31 975.965 5.96226C975.745 5.96226 975.745 6.17968 975.745 6.3971C974.644 6.3971 973.543 6.61452 972.442 6.17968C972.221 6.17968 972.001 6.17968 971.781 6.17968C971.561 6.61452 971.341 6.83194 971.12 7.04936C970.9 6.83194 970.46 6.61452 970.019 6.83194C969.799 7.26678 969.579 7.4842 969.579 7.91904C969.138 8.13646 968.918 8.35387 968.478 8.57129C968.037 8.35387 967.817 8.35387 967.377 8.35387C967.157 8.35387 966.716 8.35387 966.496 8.78871C966.056 9.65839 964.734 9.65839 964.514 11.1803C964.514 11.1803 964.514 10.9629 964.294 10.9629C963.633 10.7455 962.752 10.7455 962.312 11.3978C962.532 11.8326 962.752 12.2674 962.973 12.7023C963.193 12.7023 963.193 12.7023 963.413 12.7023C962.973 13.1371 962.092 13.1371 961.211 13.1371C959.449 12.9197 957.467 12.7023 958.569 15.5287C959.009 15.7462 959.009 16.181 958.789 16.3984C957.908 16.3984 957.027 16.3984 956.146 16.6158C956.146 16.3984 955.926 16.181 955.926 16.181C953.724 15.9636 951.302 16.6158 949.54 14.8765C949.76 14.6591 949.98 14.4416 950.421 14.4416C952.623 14.0068 955.045 13.3545 957.247 13.3545C957.247 12.9197 957.247 12.4849 957.247 12.05H957.467C959.009 12.2674 959.449 11.1803 959.89 10.0932C960.33 9.44097 961.651 9.44097 961.211 8.35387C960.11 7.70161 959.009 7.70162 957.688 7.70162C957.027 7.04936 955.926 7.04936 955.045 7.04936C954.164 7.04936 953.283 6.83194 952.623 5.74484C951.081 5.52742 949.76 4.2229 948.219 5.74484C947.998 6.61452 948.439 7.91903 946.897 8.35387V8.57129H945.796C945.796 9.44097 946.677 9.87581 947.118 10.5281C946.677 11.3977 946.017 11.8326 944.916 11.8326C944.255 10.7455 943.594 9.65839 942.934 8.57129C942.273 8.78871 941.612 9.00613 940.952 9.00613C940.511 7.26676 939.19 6.83194 937.649 6.3971C937.428 6.17968 937.428 5.96226 937.428 5.74484C936.327 5.31 936.107 3.57065 934.566 3.78807C934.566 4.22291 934.566 4.65774 934.566 5.09258C935.226 5.52742 935.887 5.96226 936.548 6.3971H936.768C936.548 6.83194 936.988 7.26678 937.208 7.70162C936.768 6.83194 935.887 6.3971 934.786 6.3971C932.364 6.17968 930.382 8.35388 927.739 7.91904C926.198 7.4842 924.876 7.48418 924.656 9.44097C924.656 10.7455 926.198 11.1803 927.299 10.9629C929.721 10.5281 931.703 11.6152 934.125 11.6152C934.345 11.3977 934.566 11.3977 935.006 11.1803C935.887 11.3977 936.988 11.6152 937.869 11.8326C938.089 12.05 938.309 12.2674 938.529 12.4849V13.1371C941.392 12.9197 944.035 12.7023 946.897 12.4849C947.558 13.1371 948.439 13.7894 949.099 14.4416C948.879 16.6158 947.118 15.7462 945.796 15.7462C933.244 15.7462 920.693 15.7462 908.141 15.7462C908.361 14.2242 906.819 13.572 905.718 13.1371C905.058 12.9197 904.177 12.4849 903.516 12.2674C904.177 12.2674 904.617 12.2674 905.278 12.2674C905.939 11.8326 906.819 11.3977 907.48 10.9629C906.379 10.9629 905.058 10.9629 903.957 10.9629C903.516 10.7455 903.076 10.7455 902.635 10.9629C901.534 10.0932 899.773 10.5281 898.672 9.65839C897.13 9.00613 895.809 7.91902 894.048 9.00613C893.607 9.00613 893.167 9.22355 892.506 9.22355C887.221 7.26677 881.936 6.83194 876.211 7.04936C875.991 7.04936 875.77 6.83194 875.55 6.83194C874.449 5.96226 873.128 7.04936 872.027 6.3971C870.706 6.17968 869.164 5.96226 867.843 5.74484C867.182 4.65774 866.742 4.22291 866.301 4.22291C865.42 4.22291 864.98 5.96226 864.319 6.3971C863.439 5.96226 862.558 5.31 861.677 4.87516C861.677 4.87516 861.457 4.87516 861.457 5.09258L861.677 4.87516C861.677 4.65774 861.677 4.44032 861.457 4.44032C860.356 4.44032 859.255 5.31 857.933 4.87516C856.392 4.00548 854.63 4.44033 853.089 4.22291V4.44032C853.089 4.44032 853.089 4.22291 853.309 4.22291C851.547 3.13581 850.006 2.91838 848.905 4.87516C848.024 3.78806 847.363 2.70096 845.822 3.35322C845.822 2.91838 845.602 2.70096 845.381 2.26612C845.161 2.26612 844.941 2.26612 844.721 2.0487C844.06 1.61386 843.4 1.61386 842.519 2.0487C842.519 2.0487 842.299 2.0487 842.078 2.26612C841.638 1.83128 840.757 1.83128 840.317 1.61386C838.995 1.61386 837.454 1.39644 836.133 1.61386C834.591 1.83128 834.811 2.48354 835.913 3.1358C836.133 3.1358 836.133 3.1358 836.353 3.1358C836.573 3.1358 836.573 3.1358 836.793 3.1358C837.014 3.1358 837.234 3.35323 837.454 3.78807H838.775C839.216 4.00549 839.876 4.2229 840.317 4.44032C841.858 5.09258 843.4 5.31 844.941 5.52742C846.482 5.74484 848.024 6.17968 849.565 7.04936C849.125 8.13646 847.804 7.48419 847.143 8.13645C846.042 9.44097 850.666 7.70161 848.024 9.65839C846.923 9.44097 845.822 9.87581 844.941 8.35387C844.06 6.39709 842.299 5.96226 840.096 7.04936C842.959 7.04936 843.84 9.22355 845.161 10.9629C844.721 11.6152 844.501 12.05 844.501 12.2674C844.501 13.3545 847.143 12.7023 847.143 13.572C846.262 13.572 845.822 14.0068 845.822 14.6591C845.822 14.8765 845.822 14.8765 845.822 15.0939C846.042 15.7462 846.703 16.181 846.923 16.8333C846.042 16.6158 844.941 16.8333 844.06 16.8333C843.84 16.8333 843.62 16.6158 843.62 16.6158C843.62 16.6158 843.62 16.6158 843.62 16.8333C843.179 16.8333 842.739 16.8333 842.519 17.0507L842.299 17.2681C842.519 17.0507 842.739 16.8333 842.739 16.6158C841.198 15.3113 839.656 14.8765 838.335 15.0939L838.115 14.8765C837.014 14.0068 835.692 13.3545 834.151 14.4416C832.83 15.3113 831.068 14.4416 829.306 15.0939C828.205 15.5287 830.187 12.9197 828.205 12.7023C826.003 13.1371 828.425 15.3113 827.104 16.181C826.664 14.8765 825.783 14.6591 824.902 14.6591C823.801 14.6591 822.7 14.8765 822.039 14.2242C821.599 13.7894 821.158 13.3545 820.718 12.9197C820.718 12.2674 820.498 12.05 820.057 11.6152C820.057 11.1803 820.718 10.3106 819.837 10.5281C818.956 10.7455 817.195 10.5281 817.195 11.3978C817.415 14.0068 814.993 14.4416 813.671 15.5287C813.671 15.0939 813.671 14.6591 813.671 14.2242C813.671 14.0068 813.892 13.7894 813.892 13.7894C813.892 12.4849 812.13 11.6152 813.011 10.3107C812.13 10.3107 811.249 10.3106 810.148 10.5281C809.487 10.7455 808.827 10.9629 807.946 11.1803C806.625 10.9629 805.524 11.1803 804.423 11.8326C801.56 11.8326 798.697 11.3978 795.834 12.2674C795.614 12.2674 795.394 12.4849 795.174 12.4849C791.871 12.4849 788.788 12.7023 785.485 13.3545C786.586 13.7894 787.467 14.0068 788.568 14.0068C788.347 14.2242 788.347 14.6591 788.127 15.0939C788.127 15.7462 788.347 16.6158 789.008 16.6158C791.21 16.3984 792.311 17.0507 792.752 17.7029C792.531 17.7029 792.091 17.7029 791.871 17.9204C791.651 17.7029 791.43 17.4855 791.21 17.2681C789.669 16.3984 787.687 16.3984 785.925 17.2681C784.824 17.7029 784.824 18.3552 785.705 18.79C783.062 18.3552 780.64 19.0075 777.998 19.4423C777.557 18.79 776.897 18.3552 776.236 18.1378C776.016 18.1378 775.796 18.1378 775.575 18.3552C774.034 17.7029 772.052 18.1378 771.391 16.181C770.951 15.9636 770.51 16.181 769.85 16.181C769.189 16.6158 768.749 17.0507 768.749 17.7029C768.969 18.5726 769.63 19.6597 768.529 20.5294C767.868 20.7468 767.207 20.312 766.547 20.7468C766.327 19.4423 767.648 17.0507 764.125 17.7029V17.9204C763.464 16.8333 763.023 15.5287 761.482 15.5287C761.262 15.5287 761.262 15.5287 761.041 15.5287C760.161 15.7462 758.84 15.9636 758.619 14.8765C758.399 13.572 758.399 12.2674 760.161 12.05C763.023 11.6152 762.143 14.6591 763.904 15.3113C765.005 15.5287 765.886 15.5287 766.987 15.0939C768.308 13.7894 767.428 12.9197 766.327 12.2674C768.088 12.4849 768.749 11.8326 767.868 10.0932C766.326 10.3106 765.005 9.65839 763.244 10.0932C761.922 10.5281 761.042 9.65839 760.601 8.35387C760.381 7.04935 759.06 6.83194 757.959 6.61452C755.756 5.96226 755.316 6.83193 755.756 8.35387C756.197 9.65839 756.858 11.3977 755.096 11.6152C753.334 12.05 753.114 10.3106 752.894 9.00613C752.674 7.48418 749.811 8.13646 750.472 6.17968C750.251 5.96226 749.811 5.96226 749.591 5.96226C749.15 6.3971 748.269 6.61452 747.609 6.17968C747.168 5.96226 746.728 5.74484 746.288 6.17968C745.407 6.61452 745.627 7.48419 745.407 8.13645C745.407 9.44097 747.389 10.0932 746.508 11.3978C747.168 13.572 748.71 13.572 750.692 13.572C746.948 14.0068 746.728 14.2242 748.49 17.9204C748.71 18.5726 749.15 19.4423 749.591 20.0946C749.15 20.0946 748.71 20.0946 748.269 19.8771C747.389 19.6597 746.728 19.0075 745.847 19.0075C744.306 19.8771 742.544 18.79 741.003 19.2249C740.562 19.2249 740.122 19.2249 739.681 19.2249C738.14 19.8771 737.479 18.3552 736.158 18.3552C734.396 18.79 735.057 20.5294 734.396 21.3991C733.956 21.3991 733.736 20.9642 733.295 20.7468C733.075 20.5294 732.855 20.312 732.635 20.312C732.194 20.0946 731.534 19.8771 730.873 19.6597C729.992 19.6597 729.331 19.8771 728.671 20.312C728.671 20.312 728.671 20.312 728.451 20.5294C728.01 20.312 727.35 20.0946 726.909 20.0946V19.8771C726.469 19.6597 726.028 19.6597 725.588 19.8771C724.707 20.312 723.826 20.7468 723.166 21.6165C723.166 21.8339 723.166 22.0513 723.166 22.2688C722.725 22.0513 722.505 22.0513 722.285 21.8339C720.083 19.8771 717.66 18.79 715.238 21.8339C715.018 22.0513 714.577 21.6165 714.357 21.3991C714.137 21.3991 713.917 21.3991 713.917 21.1817C713.036 20.312 712.375 19.2249 710.834 21.1817C710.393 21.8339 708.632 21.3991 707.531 21.6165C707.311 21.6165 707.311 21.6165 707.09 21.6165C705.989 20.7468 704.448 20.5294 703.127 20.312C702.026 20.0946 701.365 21.6165 700.264 20.9642C700.264 20.7468 700.484 20.7468 700.484 20.5294C700.925 18.5726 698.282 17.4855 698.943 15.3113C699.163 14.2242 697.181 14.2242 696.08 14.4416C694.979 14.6591 695.199 15.3113 695.639 15.7462C694.318 14.4416 692.777 13.572 691.015 14.6591C689.474 15.5287 690.795 16.8333 690.795 18.1378C688.813 16.8333 686.391 16.3984 684.189 15.3113C680.886 13.572 681.326 16.6158 680.665 18.1378C680.886 18.5726 681.326 18.79 681.766 18.79C681.106 19.0075 680.665 18.5726 680.445 18.1378C680.005 17.2681 680.665 15.7462 679.124 15.5287C677.803 15.3113 677.362 16.8333 676.702 17.4855C676.041 18.1378 675.16 17.9204 674.279 17.9204C674.059 17.9204 673.619 17.9204 673.398 17.9204C670.095 17.7029 667.012 16.6158 663.709 17.7029C662.828 17.9204 662.388 17.4855 661.948 17.0507C661.287 16.6158 660.847 16.8333 660.186 17.0507C658.424 17.9204 657.103 16.6158 655.561 15.9636C655.121 15.9636 654.681 16.181 654.24 16.6158C653.8 17.0507 653.8 17.7029 653.8 18.1378C652.038 17.7029 650.497 17.4855 651.378 14.8765C651.818 13.1371 650.056 12.7023 648.735 12.4849C647.194 12.2674 645.432 12.05 644.111 13.1371C643.67 13.572 644.111 14.4416 644.551 14.8765C645.212 15.5287 646.313 15.3113 646.973 16.181C646.093 16.6158 644.991 15.3113 644.551 16.3984C644.111 17.2681 644.551 18.3552 645.212 19.0075C644.331 18.79 643.45 18.5726 642.569 18.79C642.789 18.5726 643.01 18.5726 643.23 18.3552C643.23 18.1378 643.45 17.9204 643.45 17.7029C643.45 17.0507 643.01 16.181 642.349 16.181C639.706 16.181 638.605 13.1371 635.963 13.572C633.981 13.7894 634.201 16.181 632.88 17.2681V17.4855H632.66C632.66 15.5287 633.541 14.0068 635.743 13.3545C636.844 12.9197 637.284 12.4849 636.624 11.3978C634.422 10.9629 632.219 10.5281 630.017 10.7455C631.118 10.3107 632.219 10.7455 633.541 10.7455C634.421 10.7455 635.963 10.5281 634.642 9.00613C630.898 8.13644 627.375 8.35387 623.631 9.22355C623.191 9.22355 622.53 9.44097 622.09 9.65839C620.989 11.6152 618.566 10.7455 617.245 11.8326C616.805 11.8326 616.364 11.8326 615.924 11.6152C615.043 11.3977 614.162 10.9629 613.502 10.5281C612.841 10.3106 611.96 10.0932 611.3 9.65839C610.639 9.44097 610.198 9.22355 609.538 9.22355C609.097 9.44097 608.657 9.65839 608.657 10.3107C608.657 10.7455 608.657 11.1803 608.657 11.6152C609.318 13.3545 606.235 14.0068 607.336 15.9636C607.336 15.9636 607.116 15.9636 606.895 15.9636C602.491 14.4416 598.307 16.3984 593.903 15.9636C591.921 15.7462 589.939 17.2681 589.499 18.79C588.838 18.3552 588.618 17.7029 587.737 17.2681C586.856 17.0507 586.416 17.4855 585.976 18.1378C585.976 18.3552 585.976 18.3552 585.976 18.5726C585.535 17.9204 585.095 17.0507 583.994 16.8333C582.232 17.0507 580.691 17.4855 579.149 16.3984C576.066 17.2681 572.983 16.8333 569.68 16.6158C568.359 17.0507 567.038 16.8333 565.937 15.9636C562.633 16.181 560.651 17.4855 559.771 20.312C559.11 20.0946 558.67 19.8771 558.009 19.6597C556.688 19.8771 555.367 20.5294 553.825 20.5294C552.504 20.9642 550.962 20.9642 549.641 20.7468C549.201 20.7468 548.98 20.7468 548.76 20.7468C545.897 21.1817 543.035 21.3991 540.833 19.0075C540.172 18.5726 539.291 18.3552 538.41 18.3552C537.53 18.3552 536.428 17.9204 535.988 19.2249C535.768 20.312 536.649 20.5294 537.53 20.9642C535.548 19.8771 533.125 22.7036 531.584 19.8771C530.923 19.0075 530.263 19.4423 529.602 19.8771C527.62 19.4423 528.061 21.6165 526.96 21.8339C526.299 22.4862 525.198 22.2688 524.317 22.7036C520.133 22.7036 515.949 21.8339 511.545 22.7036C511.105 22.7036 510.884 23.1384 510.664 23.3559H510.003C509.783 22.0513 509.123 21.6165 507.801 22.7036C507.581 22.921 507.581 22.921 507.361 23.1384C506.04 19.4423 502.737 19.0075 499.433 19.4423C498.993 20.312 495.47 22.2688 494.369 22.7036C492.827 23.1384 492.387 20.5294 490.845 22.0513C489.744 20.5294 493.047 20.9642 491.726 19.8771C490.845 19.2249 489.304 19.2249 488.423 20.5294C486.882 23.1384 484.459 22.7036 482.037 22.2688C481.597 22.2688 481.156 21.8339 480.936 21.8339C480.055 24.6604 477.412 21.6165 476.091 22.921C475.871 23.3559 475.431 23.7907 475.21 24.443C477.413 24.8778 479.835 24.443 481.817 25.5301C480.716 26.8346 479.394 27.052 477.853 26.6172C476.972 26.3998 475.21 26.1823 476.091 28.1391V28.7914C474.33 28.574 472.788 27.4868 471.247 26.8346H470.586C469.265 25.0952 468.164 25.9649 466.843 26.6172C466.622 26.6172 466.402 26.8346 466.182 26.8346C465.521 27.4868 464.861 28.3565 463.76 29.4436C463.98 27.052 463.099 27.052 461.337 27.4868C459.356 27.9217 457.594 27.2694 456.052 26.3998V26.1823C455.832 25.3127 455.392 24.6604 454.731 24.2255C456.052 24.2255 458.254 25.3126 457.814 22.2688C457.594 21.1817 457.814 20.0946 456.933 19.2249C456.493 19.0075 456.052 19.2249 455.612 19.4423C454.951 20.0946 454.951 21.3991 453.41 20.7468C451.428 19.8771 449.446 20.312 447.244 20.312C444.822 21.1817 442.399 22.4862 439.537 20.312C438.215 19.2249 437.995 22.0513 436.454 22.0513V23.3559C435.353 23.3559 434.031 23.1384 433.151 22.4862C432.93 22.4862 432.71 22.2688 432.71 22.2688C432.05 21.8339 430.728 22.2688 430.288 21.3991C430.068 21.1817 429.848 21.1817 429.627 21.3991C429.407 21.8339 429.187 22.2688 429.407 22.7036C428.967 22.7036 428.526 22.7036 428.306 22.4862C428.086 22.4862 428.086 22.4862 427.866 22.4862C427.866 22.4862 427.866 22.2688 427.645 22.2688C426.104 22.0513 424.562 22.0513 423.241 21.6165C421.92 21.1817 422.14 19.2249 420.158 19.0075C420.158 20.312 421.92 21.1817 421.259 22.4862H420.599C420.158 22.0513 419.938 21.3991 419.277 21.8339C418.837 22.4862 418.397 22.4862 417.956 21.8339C417.516 21.3991 417.075 21.3991 416.415 21.8339C414.433 23.1384 412.231 21.8339 410.029 22.4862C410.029 20.0946 409.148 19.0075 406.505 20.0946C406.946 20.7468 408.707 20.312 408.487 21.6165C408.487 22.0513 408.047 22.4862 407.827 22.7036C406.725 23.3559 406.285 22.2688 405.624 21.6165C405.404 21.3991 404.744 21.1817 404.303 21.1817C403.863 21.8339 402.982 22.2688 402.101 22.4862C402.101 22.4862 402.101 22.4862 402.101 22.2688C402.101 19.6597 400.56 17.7029 399.018 15.7462C397.477 16.3984 395.935 17.9204 394.174 15.7462C393.733 15.0939 392.852 15.9636 392.632 16.8333C392.412 17.4855 392.192 16.6158 391.972 16.3984C391.311 15.9636 390.65 15.3113 389.77 15.9636C388.228 16.8333 388.448 17.9204 388.889 19.4423C389.329 20.5294 391.311 21.1817 389.99 22.921C389.99 22.921 389.99 22.921 389.99 23.1384C389.109 22.0513 387.788 21.1817 386.466 20.5294C387.127 20.5294 387.788 20.5294 387.788 19.6597C387.567 18.79 387.567 17.2681 386.026 17.2681C385.806 17.2681 385.806 17.2681 385.585 17.2681C383.604 18.3552 382.062 17.4855 380.741 15.9636C380.08 15.3113 379.42 15.3113 378.759 15.7462C378.319 16.3984 378.098 17.0507 377.438 17.7029C377.218 17.9204 376.777 17.9204 376.557 17.7029C376.117 16.3984 376.997 15.9636 378.098 15.5287C378.539 15.0939 378.759 14.8765 378.539 14.2242C376.557 12.7023 375.016 13.1371 373.254 14.6591C372.813 15.7462 373.254 16.6158 373.474 17.4855V17.9204C372.593 18.1378 371.933 18.3552 371.272 19.0075C369.51 17.0507 371.492 16.181 372.813 15.3113C371.712 12.9197 370.391 15.3113 369.29 15.3113C367.528 15.5287 368.85 16.3984 369.07 16.8333C369.73 18.3552 368.85 19.0075 367.969 19.8771H367.528C367.308 19.6597 366.868 19.6597 366.648 19.6597C365.547 19.8771 365.106 20.7468 364.666 21.6165C364.225 21.1817 363.785 20.9642 363.124 21.3991C362.684 22.0513 362.243 22.0513 361.803 21.3991C361.583 19.6597 360.041 20.312 358.94 20.0946C356.958 20.5294 356.298 19.4423 355.417 18.1378C354.976 19.6597 353.435 18.79 352.554 19.2249C351.894 19.4423 352.114 21.3991 350.572 20.0946C349.691 19.4423 348.59 19.8771 347.71 20.7468V20.9642C347.71 20.9642 347.71 20.7468 347.489 20.7468C347.269 20.7468 347.269 20.5294 347.049 20.5294C345.728 20.5294 344.627 20.7468 344.406 22.0513C342.645 20.9642 341.323 19.4423 338.901 19.4423C336.479 19.6597 335.598 20.0946 334.277 22.4862C332.515 22.0513 334.717 16.8333 330.533 19.6597V17.4855C330.313 17.2681 330.093 17.2681 329.873 17.4855C329.652 17.7029 329.432 17.9204 329.212 18.1378C327.891 18.5726 326.79 18.79 327.01 16.8333C327.23 16.3984 327.45 15.9636 327.671 15.5287C328.772 13.572 326.79 13.7894 325.689 13.3545C324.367 12.9197 323.046 12.4849 321.505 12.7023C321.725 11.6152 323.046 10.5281 321.945 9.65839C321.505 8.57129 320.404 7.91904 319.743 7.04936C320.183 6.3971 321.285 5.96226 320.404 5.09258C319.743 5.31 319.083 5.52742 318.202 5.74484C317.541 6.83194 319.303 7.91902 317.541 9.00613C316.88 9.22355 317.541 11.6152 318.422 11.8326C319.963 12.2674 320.624 12.9197 319.523 14.0068C318.422 15.0939 317.101 15.3113 316.44 13.3545C316.44 13.1371 315.779 13.1371 315.559 13.1371C314.899 13.3545 314.238 12.7023 313.357 13.1371C313.137 13.7894 312.917 14.4416 312.697 15.0939C312.256 15.5287 312.036 16.181 312.036 16.6158C311.595 15.9636 311.375 14.8765 310.495 14.4416C310.274 14.2242 310.054 14.2242 309.614 14.2242C308.292 14.2242 308.072 16.181 306.971 16.3984C306.531 17.2681 305.43 16.6158 304.769 17.0507C302.347 18.5726 302.787 20.7468 302.567 22.921C303.007 23.7907 303.668 24.443 304.769 24.8778C304.769 25.0952 304.769 25.3126 304.989 25.5301C305.43 26.1823 306.09 27.052 306.971 27.2694C307.191 27.2694 307.411 26.8346 307.411 26.6172C307.411 25.5301 305.87 25.9649 305.43 25.0952C306.531 25.0952 307.411 25.0952 307.632 23.7907C308.072 24.443 308.513 25.0952 308.953 25.7475C308.953 25.9649 308.953 25.9649 308.953 26.1823C308.953 27.2694 308.072 28.1391 307.632 28.7914C307.411 28.7914 307.191 28.7914 306.971 28.7914C306.09 27.2694 304.769 26.1823 303.007 25.7475C302.787 25.7475 302.787 25.7475 302.567 25.7475C302.347 24.6604 301.466 24.0081 300.805 23.1384C300.805 22.921 300.805 22.921 301.025 22.7036C302.567 20.0946 302.347 17.7029 300.145 15.5287C299.264 15.0939 298.823 14.4416 298.603 13.572C298.383 12.9197 297.943 11.8326 297.502 12.05C293.318 13.572 294.639 10.0932 293.759 8.57129C293.538 7.91903 293.098 7.4842 292.217 7.26678C291.336 7.26678 291.116 7.91903 290.896 8.35387C290.235 10.3107 291.116 12.2674 291.557 14.0068C291.777 14.6591 291.336 15.0939 290.896 15.5287C290.896 15.5287 290.676 15.3113 290.455 15.3113C289.795 15.0939 289.354 15.3113 288.914 15.7462C288.694 15.9636 288.474 16.181 288.474 16.3984C287.152 16.8333 286.272 16.181 285.391 15.7462L285.17 15.5287C285.17 15.3113 285.17 15.3113 285.391 15.3113C286.272 13.7894 286.271 12.2674 284.29 11.3978C282.968 10.7455 282.528 9.65839 281.427 9.00613C280.986 8.57129 280.326 8.13645 279.665 8.57129C279.225 9.00613 279.225 9.44097 279.225 9.87581C279.225 10.5281 279.665 10.9629 279.885 11.6152C279.445 12.7023 281.427 13.7894 279.665 14.6591C279.445 14.2242 279.225 13.7894 278.784 13.3545C277.903 12.9197 277.463 11.3977 275.922 12.05C274.6 12.9197 275.261 14.0068 275.481 15.0939C274.821 13.3545 273.719 12.4849 271.738 13.1371C271.077 13.572 271.297 12.9197 271.297 12.7023C269.756 11.6152 268.214 12.05 266.673 12.2674C264.471 12.7023 262.269 13.1371 260.067 12.4849C258.966 12.05 258.305 12.7023 257.865 13.572C257.865 12.4849 258.525 11.8326 260.067 12.05C260.287 10.9629 259.406 10.9629 258.745 10.7455C256.103 9.00613 253.02 10.7455 250.377 9.87581C250.157 9.87581 249.937 10.0932 249.717 10.3107C246.854 12.7023 245.533 13.1371 240.908 13.572C240.248 13.3545 239.367 13.572 238.706 12.9197C238.266 13.1371 237.826 13.3545 237.165 13.572C236.064 14.8765 237.385 16.3984 237.165 17.7029C236.945 16.8333 236.724 15.9636 235.403 15.7462C233.862 15.5287 233.201 16.3984 232.32 17.4855C231.66 18.1378 231.219 18.79 230.999 19.6597C230.999 19.8771 230.779 20.0946 230.779 20.312C230.118 20.5294 229.678 20.9642 229.017 20.0946C227.916 19.0075 227.696 19.8771 227.696 20.7468H226.595C226.375 20.5294 226.155 20.312 225.714 20.0946C224.833 19.6597 223.952 19.6597 223.292 20.0946C223.952 16.6158 223.732 16.6158 219.989 17.4855C219.768 17.4855 219.548 17.2681 219.108 17.2681C218.447 17.0507 218.007 16.3984 217.346 16.181C216.245 15.7462 215.144 16.6158 213.823 15.7462C213.162 15.0939 211.621 15.3113 210.96 16.181C210.079 17.2681 209.639 17.0507 209.198 15.9636C208.758 14.8765 207.877 14.8765 206.996 15.0939C206.336 15.3113 205.455 15.5287 205.235 16.181C205.235 15.3113 206.776 14.6591 206.336 13.7894C205.014 12.4849 203.693 12.05 202.372 13.7894C202.372 14.0068 202.372 14.2242 202.372 14.2242C200.83 12.7023 198.849 12.4849 196.647 13.1371L196.426 12.9197C196.206 12.9197 195.766 12.7023 195.325 12.9197C194.885 12.9197 194.444 13.3545 194.004 13.3545C189.38 13.572 189.38 13.572 188.279 17.9204C188.719 18.79 189.6 19.0075 190.481 19.0075C191.802 19.0075 192.903 18.79 193.123 17.2681L193.343 17.0507C193.343 19.2249 192.022 20.0946 189.6 19.6597L189.38 19.4423C188.719 19.0075 188.058 19.4423 187.398 19.4423C187.177 19.6597 187.178 19.6597 186.957 19.4423C187.178 19.4423 187.398 19.4423 187.618 19.4423C188.719 19.2249 188.719 18.79 188.058 18.1378C187.838 17.9204 187.618 17.7029 187.398 17.4855C186.517 14.0068 185.636 13.572 182.553 15.9636C182.994 14.4416 185.416 14.0068 184.315 12.2674C183.434 10.9629 181.893 11.6152 180.571 11.3978C177.268 11.6152 173.965 11.3978 170.882 9.87581C170.001 9.65839 169.341 10.0932 168.46 10.3107C166.258 11.3978 164.056 11.3978 162.074 9.87581C161.633 9.65839 161.193 9.87581 160.753 10.0932C160.312 10.0932 161.193 11.1803 160.312 10.9629C158.11 10.5281 155.908 12.4849 156.568 14.6591C157.009 15.9636 156.569 17.4855 157.229 18.79C156.789 18.5726 156.348 18.5726 155.908 18.79C154.807 17.7029 153.926 19.0075 152.825 19.0075C152.164 19.0075 151.284 19.4423 150.843 18.79C148.421 13.7894 147.54 18.3552 145.998 19.4423H145.338V18.79C144.457 18.3552 143.356 18.3552 142.475 18.79C142.035 19.0075 141.594 19.2249 140.934 19.4423C140.714 18.1378 140.493 16.8333 140.273 15.5287C139.833 15.0939 139.392 15.0939 138.732 15.3113C137.631 16.3984 138.291 18.1378 137.19 19.0075C137.19 19.0075 137.19 19.0075 137.19 18.79C137.631 18.1378 137.851 17.4855 137.851 16.8333C137.851 16.3984 137.851 15.5287 137.19 15.5287C136.309 15.3113 135.869 15.9636 135.649 16.3984C135.649 16.3984 135.649 16.3984 135.649 16.181C136.309 15.3113 134.327 14.4416 135.869 13.7894C135.869 13.7894 136.089 13.572 136.089 13.3545C135.649 12.9197 135.208 12.4849 134.548 12.05C134.107 12.05 133.667 12.05 133.226 12.05V12.7023C131.685 13.7894 131.024 11.8326 129.703 11.8326C126.84 12.05 125.739 13.572 125.739 16.181C124.638 15.0939 123.097 14.8765 121.776 14.6591V14.4416C121.555 14.0068 121.115 13.572 120.674 14.0068C119.573 15.9636 118.032 15.7462 116.49 14.6591C115.389 14.6591 114.509 15.0939 114.288 16.181C115.61 18.1378 114.068 18.79 112.747 18.5726C110.985 18.5726 109.664 19.0075 108.123 19.2249C108.123 18.5726 108.122 17.9204 107.682 17.4855C105.26 16.181 102.617 17.9204 100.415 16.8333C98.6535 17.2681 96.8919 17.2681 94.91 16.8333C92.4877 16.181 92.4877 19.0075 91.1665 20.312C90.2856 20.312 89.4048 20.312 88.3038 20.312C88.7442 19.8771 89.1845 19.4423 89.6249 19.0075C88.3037 17.9204 86.7623 17.2681 85.0006 18.3552L84.7805 18.5726C84.5603 17.7029 84.1198 17.2681 83.239 16.8333C78.6146 18.3552 73.7699 16.8333 69.1455 16.8333C68.7051 16.3984 68.2648 16.3984 67.8244 16.8333H63.6403C60.9978 17.0507 58.3554 17.2681 55.9331 17.4855C56.1533 17.7029 56.3734 17.9204 56.5936 18.1378C56.8138 18.3552 57.0341 18.3552 57.2544 18.1378C59.2362 18.5726 60.3372 19.8771 60.117 21.3991C59.016 19.6597 57.4745 20.312 55.9331 20.7468C55.7129 21.1817 55.4927 21.6165 55.2724 22.0513C54.832 21.6165 54.3916 21.3991 53.9512 21.3991C51.3087 21.6165 51.3086 21.6165 51.3086 20.312C50.2076 19.8771 49.1066 19.8771 48.2257 20.7468H47.1247C46.6843 19.8771 46.0238 19.4423 45.1429 19.2249C43.3813 19.2249 41.8397 19.4423 40.078 19.2249C38.7567 19.4423 37.6556 18.1378 36.1142 18.79C35.894 19.2249 35.8941 19.6597 36.3346 20.0946C38.0962 20.9642 37.8759 22.2688 37.6557 23.5733H37.4356C36.3345 23.3559 35.2334 23.3559 34.1324 23.3559C34.1324 23.3559 33.9122 23.3559 33.692 23.3559C33.692 23.1384 33.692 23.1384 33.4718 22.921C33.9122 22.2688 34.1324 21.3991 33.692 20.5294C31.9303 20.312 30.3888 18.1378 28.4069 19.4423C27.9665 19.4423 27.7464 19.4423 27.5262 19.2249C28.407 18.1378 28.407 17.2681 27.3059 16.181C26.4251 15.5287 25.1038 16.181 24.223 15.9636C24.0028 15.9636 23.5623 15.9636 23.3421 16.181C20.4794 17.9204 16.9562 17.7029 13.8732 18.1378C10.7903 18.5726 10.7902 18.3552 11.8912 20.9642C12.3316 22.0513 10.7903 22.0513 10.5701 22.7036C10.3499 22.921 9.68918 23.3559 9.68918 22.7036C9.90939 19.2249 8.14778 23.1384 7.48715 22.2688C7.48715 22.0513 5.94568 22.2688 6.16588 23.3559C6.38609 24.443 7.70733 24.2255 8.58817 24.443C8.80838 24.443 9.02864 24.8778 9.46905 24.8778C9.02864 24.8778 8.58825 24.8778 8.36804 25.0952C8.14783 25.0952 7.92761 25.0952 7.7074 25.0952C6.38615 25.9649 5.06481 26.6172 3.52335 26.8346C3.74356 26.3997 3.74359 25.9649 3.08297 24.8778C2.86276 24.443 2.2021 23.1384 4.18398 22.7036C5.50523 22.2688 4.62431 20.9642 3.74348 20.5294C2.64243 19.8771 1.76172 19.2249 0.660681 18.5726C0.440472 18.5726 0.440386 18.5726 0.220177 18.79C1.10101 17.4855 4.40421 17.2681 2.42233 14.6591C1.98191 14.0068 0.440429 14.6591 0.440429 13.3545C0.440429 12.4849 0.220256 12.05 4.70583e-05 11.6152V27.4868H0.220177C0.440386 27.7043 0.660602 27.7043 0.880811 27.7043C2.64248 28.1391 4.18396 28.574 5.94563 28.7914C6.38605 29.2262 6.82653 29.8785 7.48715 29.8785C9.46903 29.6611 11.8912 30.5307 13.6529 29.0088C13.4327 28.7914 13.4327 28.574 13.4327 28.3565L13.6529 28.574C14.0933 28.574 14.5338 28.574 14.9743 28.574C14.9743 28.1391 14.9743 27.9217 14.9743 27.4868C15.1945 27.2694 15.1944 27.052 15.1944 26.8346C15.1944 26.6172 14.754 26.3998 14.5338 26.1823C14.754 26.1823 14.9742 26.3998 15.1944 26.3998C15.855 26.6172 16.7359 26.6172 17.3965 26.3998C17.6167 26.3998 17.6167 26.1823 17.8369 25.9649C17.8369 26.8346 18.4976 27.4869 19.3784 27.7043C19.3784 27.7043 19.3784 27.7043 19.5986 27.7043C19.8188 27.9217 19.8189 28.1391 20.0391 28.3565C20.2593 28.7914 20.4795 29.2262 20.4795 29.6611C20.039 29.6611 19.5986 29.6611 18.9379 29.8785C18.7177 30.0959 18.7178 30.0959 18.4976 30.3133C17.3965 30.3133 16.2954 30.3133 15.1944 30.3133C14.5338 30.3133 13.8732 30.3133 13.2126 30.0959V29.8785C12.9924 29.4436 12.552 29.2262 12.1116 29.0088C11.451 29.2262 10.57 29.2262 10.3498 29.8785C10.1296 29.6611 9.90947 29.4436 9.46905 29.4436C8.36801 29.2262 7.26688 29.2262 5.94563 29.4436C5.72542 29.6611 5.50521 29.8785 5.285 30.0959V30.5307C5.94562 31.4004 7.0467 31.4004 7.92753 31.6178C8.36795 31.6178 9.02864 31.6178 9.46905 31.4004C9.46905 31.4004 9.46905 31.4004 9.46905 31.6178C9.24885 31.8353 9.02863 32.2701 8.80842 32.4875H3.08297C3.52338 32.2701 3.96377 32.0527 4.18398 31.8353C3.52336 29.2262 1.76164 30.3133 0.220177 30.5307L0.220421 39.995H1919.78ZM1899.08 24.8778C1898.64 25.3126 1898.2 25.0952 1898.2 24.6604C1898.42 24.6604 1898.86 24.6604 1899.08 24.8778ZM1898.86 27.052C1898.42 27.4868 1897.98 27.7043 1897.54 27.7043C1897.76 27.4869 1898.2 27.2694 1898.86 27.052ZM1897.1 20.5294C1896.88 20.5294 1896.88 20.7468 1897.1 20.5294ZM1859.88 28.7914C1860.1 29.0088 1859.88 29.2262 1859.66 29.4436C1859.66 29.2262 1859.66 29.0088 1859.88 28.7914ZM1877.5 5.52742C1877.72 5.96226 1878.16 6.17968 1879.04 5.96226C1879.04 6.17968 1879.48 6.3971 1879.7 6.61452C1879.7 6.61452 1879.48 6.61452 1879.48 6.83194C1879.26 6.83194 1879.26 7.04936 1879.26 7.26678C1878.82 7.4842 1878.6 7.70162 1878.16 7.91904C1878.16 7.91904 1878.16 7.91904 1877.94 7.70162C1877.94 7.4842 1877.94 7.26678 1877.72 7.04936C1877.72 6.61452 1877.28 5.96226 1877.5 5.52742ZM1857.24 10.7455C1857.46 10.3107 1857.68 9.87581 1857.9 9.44097C1858.12 9.22355 1858.12 9.22355 1858.34 9.00613C1858.56 9.00613 1858.56 9.00613 1858.78 9.22355C1860.1 9.00613 1862.09 10.0932 1862.09 7.70162C1862.09 7.70162 1862.09 7.70162 1862.09 7.91904C1863.19 8.78872 1864.73 8.78871 1865.83 9.44097C1866.05 9.87581 1867.37 9.6584 1866.93 10.7455C1864.51 11.1803 1862.31 9.6584 1859.88 10.7455C1859.88 10.7455 1859.88 10.9629 1859.66 10.9629C1859 10.3106 1858.34 10.3107 1857.46 10.7455C1857.46 10.9629 1857.24 11.1803 1857.24 11.3978C1857.46 10.9629 1857.24 10.7455 1857.24 10.7455ZM1855.48 7.04936C1855.26 6.83194 1854.82 6.61452 1854.6 6.61452C1855.48 6.3971 1855.48 6.3971 1855.48 7.04936ZM1851.52 9.22355V9.44097C1852.18 10.5281 1852.18 11.3978 1852.18 12.4849C1851.96 12.4849 1851.74 12.4849 1851.74 12.4849C1851.74 11.3978 1850.19 10.3107 1851.52 9.22355ZM1845.57 6.83194C1845.79 6.83194 1846.23 7.04936 1846.45 7.26678C1846.45 7.26678 1846.45 7.4842 1846.67 7.4842L1846.45 7.26678C1846.01 7.04936 1845.35 7.04936 1845.13 7.26678C1845.13 7.04936 1845.13 6.83194 1845.13 6.3971C1845.13 6.3971 1845.35 6.61452 1845.57 6.83194ZM1831.04 8.57129C1831.04 8.57129 1830.82 8.57129 1830.82 8.35387C1829.93 7.91903 1829.27 7.91903 1828.39 8.57129C1828.17 8.35387 1828.17 8.13646 1827.95 7.91904C1829.05 7.26678 1830.15 7.26677 1831.04 8.57129ZM1789.86 18.1378C1789.86 18.3552 1790.08 18.5726 1790.08 18.5726C1789.64 18.79 1789.42 19.0075 1788.98 19.2249C1788.54 19.4423 1788.09 19.8771 1787.65 20.0946C1787.87 19.6597 1788.09 19.2249 1788.54 18.79C1788.98 18.5726 1789.42 18.3552 1789.86 18.1378ZM1786.99 11.3978C1787.43 11.6152 1787.87 11.8326 1788.54 11.8326C1788.09 11.8326 1787.87 12.05 1787.43 12.05C1787.43 12.05 1787.43 12.05 1787.21 12.05C1786.55 11.8326 1785.67 12.05 1785.01 11.6152C1785.45 11.3977 1786.11 10.5281 1786.99 11.3978ZM1779.73 10.0932C1779.95 10.0932 1780.17 10.0932 1780.17 10.3107C1779.95 10.3107 1779.73 10.5281 1779.73 10.5281C1779.73 10.3106 1779.73 10.0932 1779.73 10.0932ZM1775.98 12.4849C1776.64 11.8326 1776.64 10.9629 1777.08 10.0932C1777.08 9.87581 1777.3 9.87581 1777.3 9.65839C1777.52 9.87581 1777.75 10.3107 1777.97 10.7455C1778.19 10.7455 1778.41 10.7455 1778.63 10.7455V10.9629C1778.63 12.2674 1780.17 11.8326 1780.61 12.7023C1779.95 12.9197 1779.29 13.1371 1778.63 13.3545C1778.41 13.3545 1777.97 13.3545 1777.75 13.3545C1776.42 13.3545 1775.32 13.572 1774 13.1371C1774.88 13.1371 1775.54 12.9197 1775.98 12.4849ZM1766.73 23.3559C1766.73 23.1384 1766.73 23.1384 1766.73 23.3559ZM1770.48 8.13645C1770.48 8.35387 1770.48 8.35387 1770.26 8.57129C1769.82 8.57129 1769.16 8.78871 1768.72 8.78871C1768.28 8.57129 1768.06 8.13646 1768.06 7.70162C1768.94 7.91904 1769.82 7.48419 1770.48 8.13645ZM1768.06 10.9629C1768.72 10.7455 1768.94 10.3107 1769.16 9.65839V9.44097C1769.6 9.44097 1769.82 9.44097 1770.26 9.44097C1770.26 9.44097 1770.26 9.44097 1770.48 9.65839C1770.7 10.0932 1771.14 10.5281 1771.36 10.9629C1771.36 11.1803 1771.36 11.3978 1771.36 11.3978C1771.58 11.6152 1771.58 11.8326 1771.8 12.05C1771.8 12.2674 1771.58 12.4849 1771.58 12.7023C1771.36 12.7023 1771.14 12.7023 1770.92 12.7023C1770.7 12.7023 1770.48 12.9197 1770.04 13.1371C1769.6 13.7894 1768.5 14.0068 1767.84 14.6591C1767.84 14.6591 1768.06 14.4416 1768.06 14.2242C1768.06 14.0068 1767.84 13.572 1767.62 13.572C1766.29 12.9197 1764.75 12.4849 1763.21 12.4849C1764.97 11.6152 1766.29 10.7455 1768.06 10.9629ZM1760.79 12.2674C1760.79 12.2674 1761.01 12.2674 1761.01 12.4849C1761.23 12.4849 1761.45 12.4849 1761.67 12.4849C1761.23 12.7023 1761.01 12.9197 1760.79 13.1371C1760.57 13.1371 1760.35 13.1371 1760.35 13.1371C1760.35 12.9197 1760.13 12.9197 1760.13 12.7023C1760.13 12.4849 1759.91 12.4849 1759.91 12.4849C1760.13 12.7023 1760.57 12.4849 1760.79 12.2674ZM1755.5 16.181C1755.06 16.3984 1754.84 16.6158 1754.4 16.6158C1754.62 16.3984 1755.06 16.181 1755.5 16.181ZM1752.86 11.8326C1752.86 12.05 1752.64 12.2674 1752.64 12.4849L1752.42 12.2674C1752.64 12.05 1752.64 11.8326 1752.86 11.8326ZM1737.23 8.78871C1737.89 8.78871 1738.55 8.78871 1739.21 8.35387C1739.21 8.57129 1739.21 8.78871 1739.43 9.00613L1739.21 9.22355C1738.99 9.22355 1738.99 9.00613 1738.77 9.00613C1737.45 8.78871 1736.57 9.22355 1735.91 10.3107C1735.91 9.44097 1735.91 8.78871 1737.23 8.78871ZM1735.24 17.9204C1735.47 18.5726 1735.24 19.2249 1735.47 19.8771H1735.24C1735.02 19.4423 1734.8 19.0075 1734.14 18.79C1734.8 18.5726 1735.24 18.3552 1735.24 17.9204ZM1705.08 20.5294C1705.08 20.312 1705.3 20.312 1705.3 20.0946C1705.3 20.312 1705.3 20.312 1705.08 20.5294ZM1709.92 20.7468C1709.7 20.7468 1709.92 20.5294 1709.92 20.7468ZM1710.36 12.9197C1709.48 13.3545 1708.6 13.572 1707.72 14.0068C1707.5 13.7894 1707.28 13.7894 1707.28 14.0068C1707.06 13.572 1706.84 13.572 1706.4 13.3545C1706.18 13.1371 1705.96 12.9197 1705.96 12.7023C1706.62 12.2674 1707.06 12.05 1707.94 12.2674H1708.16C1708.38 12.4849 1708.6 12.7023 1708.6 12.9197C1709.04 13.3545 1709.48 13.1371 1709.92 12.9197C1710.14 12.7023 1710.36 12.9197 1710.36 12.9197ZM1707.72 6.61452C1707.72 6.61452 1707.72 6.83194 1707.94 6.83194C1708.6 7.26678 1709.26 7.70162 1709.92 7.91904C1709.48 8.13646 1709.26 8.35387 1708.82 8.35387H1708.6C1707.5 7.48419 1706.18 6.83194 1704.64 7.04936C1704.64 7.04936 1704.64 6.83194 1704.64 6.61452C1705.52 7.04936 1706.84 7.70162 1707.72 6.61452ZM1695.61 24.6604C1695.83 24.8778 1695.83 25.0952 1696.05 25.0952L1696.27 25.3126C1696.05 25.9649 1695.61 26.6172 1694.95 27.052C1695.17 26.6172 1695.17 26.1823 1694.95 25.9649C1695.17 25.7475 1695.61 25.3126 1695.61 24.6604ZM1691.64 12.4849C1691.64 12.7023 1691.86 12.9197 1691.86 13.1371C1691.64 13.1371 1691.42 12.9197 1691.2 13.1371C1691.42 12.9197 1691.42 12.7023 1691.64 12.4849ZM1680.63 14.6591V14.4416C1681.07 14.4416 1681.29 14.6591 1681.73 14.6591C1681.51 14.6591 1681.29 15.0939 1681.07 15.3113C1680.85 15.0939 1680.63 14.8765 1680.63 14.6591ZM1661.7 17.0507C1661.7 16.8333 1661.92 16.8333 1661.92 16.6158C1662.8 16.8333 1662.58 18.1378 1663.24 18.5726C1664.12 17.9204 1665.44 18.1378 1666.54 17.7029C1666.76 17.7029 1666.76 17.4855 1666.98 17.4855C1666.98 17.7029 1667.2 17.7029 1667.2 17.9204C1668.08 17.9204 1668.96 18.1378 1669.84 18.1378C1669.84 18.5726 1669.84 19.0075 1669.84 19.4423L1669.62 19.2249C1667.2 19.2249 1664.56 19.2249 1662.14 18.79C1661.47 18.5726 1660.81 18.5726 1660.37 18.79C1660.59 18.1378 1661.25 17.7029 1661.7 17.0507ZM1651.35 17.9204C1651.35 17.9204 1651.35 18.1378 1651.57 18.1378C1651.79 18.3552 1652.23 18.3552 1652.45 18.3552C1652.23 18.79 1652.23 19.2249 1652.45 19.6597H1652.67C1651.35 19.6597 1650.9 19.2249 1650.68 18.1378C1650.9 18.1378 1651.13 18.1378 1651.35 17.9204ZM1650.68 19.6597C1650.46 19.8771 1650.24 19.8771 1650.02 20.0946V19.8771C1650.24 19.6597 1650.46 19.6597 1650.68 19.6597ZM1650.24 29.4436C1650.02 29.8785 1649.58 30.3133 1649.36 30.3133C1649.8 30.0959 1650.02 29.8785 1650.24 29.4436ZM1614.13 17.2681C1614.35 17.4855 1614.57 17.9204 1614.57 18.1378C1614.13 17.9204 1613.69 17.7029 1613.47 17.7029C1613.69 17.4855 1613.91 17.4855 1614.13 17.2681ZM1608.85 16.6158C1608.85 16.8333 1608.85 16.8333 1608.85 16.6158ZM1607.52 23.7907C1607.52 23.7907 1607.74 23.7907 1607.74 24.0081L1607.52 24.2255C1607.52 24.0081 1607.52 24.0081 1607.52 23.7907ZM1596.29 8.78871C1596.51 9.00613 1596.29 9.22355 1596.07 9.65839C1596.29 9.44097 1596.29 9.22355 1596.29 8.78871ZM1579.56 31.8353C1579.34 32.2701 1579.56 32.0527 1579.56 31.8353ZM1578.46 10.0932V9.87581C1578.46 10.0932 1578.46 10.0932 1578.68 10.3107C1578.46 10.3107 1578.24 10.3107 1578.02 10.3107C1578.24 10.3107 1578.46 10.3106 1578.46 10.0932ZM1577.14 7.4842C1577.14 7.91904 1577.14 8.35387 1577.36 8.57129C1576.25 8.57129 1575.37 8.5713 1574.49 7.91904C1575.37 7.70162 1576.25 7.91904 1577.14 7.4842ZM1576.25 15.3113C1574.93 15.3113 1573.61 15.7462 1572.29 15.3113C1572.29 14.2242 1571.19 14.0068 1570.53 13.572C1572.51 13.572 1574.71 13.572 1576.25 15.3113ZM1569.87 9.65839C1570.53 9.65839 1570.97 9.65839 1571.19 9.44097C1571.19 9.65839 1571.41 9.65839 1571.41 9.87581C1570.53 10.0932 1569.87 10.5281 1569.21 10.9629C1569.43 10.3106 1569.65 9.87581 1569.87 9.65839ZM1574.27 18.5726C1574.27 18.79 1574.49 18.79 1574.71 18.79C1574.71 19.0075 1574.93 19.4423 1575.15 19.6597C1575.59 20.0946 1576.47 20.0946 1576.91 20.5294H1576.69C1575.37 20.5294 1574.05 20.312 1572.73 20.9642C1572.51 20.9642 1572.29 21.1817 1572.29 21.1817C1571.19 19.6597 1568.77 20.7468 1567.67 19.0075C1569.65 18.1378 1571.85 16.3984 1574.27 18.5726ZM1562.38 10.7455C1562.38 10.9629 1562.6 10.9629 1562.6 11.1803C1562.38 10.9629 1562.16 10.9629 1562.38 10.7455C1562.16 10.7455 1562.16 10.7455 1562.38 10.7455ZM1563.48 13.572C1563.48 13.572 1563.48 13.3545 1563.7 13.3545C1563.92 13.572 1564.14 13.572 1564.14 13.3545C1563.04 14.0068 1561.94 14.0068 1560.84 14.0068C1561.72 14.0068 1562.6 14.0068 1563.48 13.572ZM1545.42 32.4875C1545.42 32.7049 1545.42 32.7049 1545.42 32.4875ZM1533.31 14.2242C1533.31 14.0068 1533.31 13.7894 1533.53 13.3545L1533.75 13.572C1533.53 13.7894 1533.53 14.0068 1533.31 14.2242ZM1533.75 11.3978C1533.53 11.3978 1533.53 11.6152 1533.31 11.8326C1533.09 11.6152 1532.87 11.1803 1532.65 10.9629C1533.09 11.1803 1533.31 11.3978 1533.75 11.3978ZM1527.81 8.78871C1528.03 9.22355 1528.25 9.87581 1528.69 10.3107V10.5281C1527.59 10.0932 1526.71 9.44097 1525.61 9.00613C1526.27 8.78871 1527.15 9.00613 1527.81 8.78871ZM1519.66 7.04936C1520.32 7.26678 1520.98 7.04936 1521.64 7.04936C1520.98 7.4842 1520.32 7.91903 1519.44 8.35387C1519.66 7.91903 1519.66 7.4842 1519.66 7.04936ZM1522.52 10.5281C1522.3 11.3977 1521.86 12.2674 1522.74 13.1371H1522.96C1522.96 13.3545 1522.96 13.3545 1522.96 13.572L1523.18 13.7894C1522.52 13.7894 1521.42 14.2242 1521.42 12.9197C1521.2 12.05 1520.1 12.05 1519.44 11.6152C1520.54 11.8326 1521.42 11.1803 1522.52 10.5281ZM1505.57 12.7023C1505.13 12.7023 1504.69 12.7023 1504.25 12.7023C1504.25 12.7023 1504.47 12.7023 1504.47 12.4849C1504.69 12.05 1504.69 11.8326 1504.69 11.6152C1505.35 11.3977 1505.79 11.3977 1506.45 10.9629C1506.45 11.1803 1506.45 11.1803 1506.45 11.3978C1506.23 11.6152 1505.79 12.2674 1505.57 12.7023ZM1504.03 30.3133C1503.81 30.3133 1503.59 30.5307 1503.37 30.5307C1503.37 30.3133 1503.37 30.3133 1503.37 30.0959C1503.59 30.0959 1503.81 30.3133 1504.03 30.3133ZM1501.38 32.4875C1501.16 32.4875 1500.94 32.2701 1500.72 32.2701C1500.94 32.2701 1501.16 32.2701 1501.38 32.4875ZM1470.11 21.8339L1470.33 21.6165C1470.33 21.8339 1470.33 21.8339 1470.33 22.0513C1470.33 21.8339 1470.11 21.8339 1470.11 21.8339ZM1471.43 12.4849C1471.66 12.4849 1471.66 12.2674 1471.88 12.05C1473.64 12.2674 1472.98 13.7894 1473.2 14.6591C1472.76 14.8765 1472.1 15.0939 1471.65 15.3113H1471.43C1471.21 15.3113 1471.21 15.3113 1470.99 15.3113C1470.55 15.3113 1469.89 15.3113 1469.45 15.3113C1469.23 14.4416 1468.79 13.572 1468.13 12.9197C1469.23 12.7023 1470.33 12.9197 1471.43 12.4849ZM1430.92 12.9197C1430.7 12.9197 1430.26 12.9197 1430.04 12.9197C1430.26 12.7023 1430.7 12.7023 1430.92 12.9197ZM1413.08 26.6172C1412.86 26.6172 1412.86 26.6172 1412.64 26.6172C1412.64 26.6172 1412.86 26.6172 1413.08 26.6172ZM1400.31 8.13645C1400.75 8.78871 1400.97 9.44097 1401.63 9.87581C1403.83 10.7455 1404.05 7.91904 1405.81 7.91904C1406.03 8.5713 1405.59 9.87581 1407.13 9.22355C1408.45 8.57129 1410 8.78871 1411.32 9.22355C1412.86 9.44097 1414.62 9.22355 1416.16 9.65839C1416.6 9.44097 1417.04 9.44097 1417.7 9.44097C1417.92 9.44097 1418.14 9.65839 1418.14 9.87581C1417.7 9.87581 1417.04 9.87581 1416.38 10.0932C1415.5 10.5281 1414.84 10.9629 1414.4 11.6152C1413.96 12.2674 1413.96 13.1371 1413.96 13.7894C1413.96 14.0068 1413.96 14.2242 1413.96 14.6591C1413.08 14.4416 1412.2 14.2242 1411.76 13.572C1410.88 12.4849 1410 11.8326 1408.46 11.6152C1405.59 10.5281 1402.29 11.1803 1399.43 10.3107C1399.65 9.65839 1400.09 9.00613 1400.31 8.13645ZM1386.65 20.0946C1386.65 19.8771 1386.65 19.8771 1386.65 20.0946ZM1386.87 13.1371C1386.43 13.1371 1385.99 13.1371 1385.33 13.3545V13.1371C1385.77 13.1371 1386.43 13.1371 1386.87 13.1371ZM1379.39 26.8346H1379.61L1379.39 27.052C1379.39 27.052 1379.39 27.052 1379.39 26.8346ZM1362.21 24.443C1361.99 24.6604 1361.99 24.8778 1361.77 25.0952C1361.55 25.0952 1361.33 24.8778 1361.33 24.8778C1361.55 24.6604 1361.99 24.6604 1362.21 24.443ZM1339.09 16.8333C1338.87 17.0507 1338.43 17.0507 1338.21 17.0507C1338.43 17.0507 1338.65 16.8333 1339.09 16.8333ZM1332.7 25.3126C1332.26 25.3126 1331.82 25.5301 1331.6 25.5301C1331.82 25.0952 1332.48 25.0952 1332.7 25.3126ZM1330.06 23.7907C1330.06 24.0081 1330.28 23.7907 1330.06 23.7907ZM1314.65 24.443C1314.65 24.6604 1314.65 24.6604 1314.65 24.443ZM1247.7 18.79C1247.7 19.2249 1247.7 19.6597 1247.92 20.0946C1247.48 19.8771 1247.04 19.6597 1246.38 19.6597C1247.04 19.2249 1247.48 19.0075 1247.7 18.79ZM1189.35 15.9636C1189.35 16.181 1189.13 16.181 1189.13 16.181C1189.35 16.181 1189.35 15.9636 1189.35 15.9636ZM1170.63 15.9636C1170.63 16.181 1170.63 16.181 1170.41 16.181C1170.41 16.181 1170.41 15.9636 1170.63 15.9636ZM1166.89 32.4875C1166.67 32.4875 1166.67 32.4875 1166.89 32.4875ZM1158.52 13.7894C1157.86 14.0068 1157.42 14.0068 1156.76 14.2242C1156.54 14.2242 1156.32 14.4416 1156.1 14.4416C1156.1 14.2242 1156.1 14.0068 1156.1 13.7894C1156.98 13.7894 1157.86 13.3545 1158.52 13.7894ZM1143.98 31.4004C1143.98 31.6178 1143.76 31.6178 1143.76 31.8353C1142.88 31.8353 1141.78 31.6178 1140.9 31.4004C1140.02 31.183 1138.92 31.4004 1138.04 31.183C1139.8 30.9656 1141.56 29.4436 1143.32 29.6611C1143.54 29.6611 1143.54 29.4436 1143.54 29.4436C1143.54 29.8785 1143.76 30.3133 1144.2 30.5307C1144.42 30.7482 1144.64 30.7482 1144.87 30.9656C1144.64 30.9656 1144.2 31.183 1143.98 31.4004ZM1148.39 15.5287C1148.39 15.3113 1148.61 15.0939 1148.61 14.6591C1148.83 14.8765 1149.05 15.0939 1149.27 15.0939C1148.83 15.3113 1148.61 15.5287 1148.39 15.5287ZM1136.94 7.04936C1136.94 7.26678 1136.94 7.4842 1136.94 7.4842C1138.04 8.78872 1140.02 8.13645 1141.34 8.57129C1140.46 8.57129 1139.8 9.22355 1139.14 9.87581C1139.14 10.0932 1139.14 10.3106 1139.14 10.5281C1139.58 10.5281 1140.02 10.5281 1140.68 10.5281C1140.68 9.22355 1141.56 9.22355 1142.44 9.22355C1142.44 9.44097 1142.44 9.44097 1142.44 9.65839C1142.22 10.0932 1142.44 10.5281 1142.44 10.9629C1142.88 11.6152 1143.54 11.6152 1144.2 11.6152C1145.53 11.1803 1145.75 9.87581 1146.41 8.78871C1147.07 10.3107 1149.05 9.22355 1149.93 10.0932C1150.37 10.0932 1150.81 10.0932 1151.25 9.87581C1151.69 9.65839 1152.13 9.44097 1152.57 9.44097C1152.79 9.44097 1153.01 9.44097 1153.01 9.65839C1152.79 10.5281 1153.45 10.9629 1153.89 11.3978C1154.11 11.6152 1154.33 11.8326 1154.55 12.2674C1154.33 12.2674 1154.11 12.2674 1153.89 12.4849C1152.79 12.4849 1151.47 12.4849 1150.37 12.4849C1150.15 11.8326 1149.93 11.1803 1149.71 10.5281C1149.05 10.5281 1148.17 10.5281 1147.73 11.1803C1147.51 12.05 1147.73 13.1371 1146.19 13.1371C1145.75 12.2674 1144.87 12.4849 1144.2 12.4849C1142.88 12.7023 1141.12 12.2674 1140.46 14.0068C1141.56 14.8765 1141.78 15.7462 1141.12 16.6158C1140.9 16.6158 1140.9 16.6158 1140.68 16.3984C1140.24 16.3984 1139.58 16.3984 1139.14 16.3984C1138.92 16.3984 1138.92 16.6158 1138.7 16.6158C1138.04 15.9636 1137.16 15.5287 1136.28 15.0939C1135.62 14.2242 1133.63 14.2242 1134.07 12.4849C1134.3 12.4849 1134.52 12.4849 1134.96 12.4849C1136.5 13.1371 1137.16 12.2674 1137.82 11.1803C1138.04 10.3106 1137.6 9.65839 1136.94 9.00613C1136.5 8.78871 1136.06 8.57129 1135.4 8.35387C1135.62 8.13645 1135.62 7.91904 1135.62 7.70162C1135.62 7.26678 1135.4 6.83194 1134.96 6.61452C1134.74 6.61452 1134.52 6.61452 1134.3 6.3971C1135.4 6.83194 1136.28 7.04936 1136.94 7.04936ZM1134.3 9.87581C1134.74 9.87581 1135.18 9.87581 1135.62 9.65839C1136.06 10.7455 1134.74 10.3107 1134.3 10.7455C1134.3 10.7455 1134.3 10.7455 1134.3 10.5281C1134.07 10.0932 1133.85 9.87581 1133.19 9.87581C1133.63 9.44097 1134.07 9.87581 1134.3 9.87581ZM1126.59 15.3113C1127.47 15.5287 1128.13 15.7462 1128.79 15.9636V16.181C1128.13 15.9636 1127.47 15.7462 1126.81 15.7462C1126.59 15.7462 1126.37 15.7462 1126.15 15.7462C1126.15 15.5287 1125.93 15.3113 1125.93 15.3113C1126.15 15.0939 1126.37 15.0939 1126.59 15.3113ZM1108.53 17.0507H1108.31V16.8333C1108.09 17.0507 1108.31 17.0507 1108.53 17.0507ZM1086.95 12.05C1087.17 12.4849 1086.73 12.7023 1086.51 12.9197C1086.51 12.7023 1086.51 12.4849 1086.51 12.2674C1086.51 12.05 1086.29 12.05 1086.29 11.8326C1086.73 11.8326 1086.95 11.8326 1086.95 12.05ZM986.095 6.17968C986.535 6.3971 986.755 6.61452 987.196 6.61452C987.416 6.61452 987.636 6.61452 987.856 6.61452C988.517 6.61452 989.177 7.70162 989.838 6.61452C989.838 7.26678 989.618 7.70161 989.177 8.35387L988.957 8.13645C988.076 7.91903 987.196 7.91903 986.315 8.35387C986.095 8.35387 986.095 8.57129 985.874 8.78871C984.993 8.35387 984.113 7.91904 983.232 7.4842L983.012 7.26678C984.113 6.61452 984.994 6.61452 986.095 6.17968ZM980.149 17.9204C980.149 17.4855 980.149 17.0507 979.708 16.8333C979.929 17.2681 980.369 17.4855 980.81 17.7029C980.589 17.7029 980.369 17.7029 980.149 17.9204ZM980.149 8.13645C980.589 8.13645 981.25 8.13646 981.69 7.91904C981.911 7.91904 981.911 7.91904 982.131 7.70162C982.131 8.35388 982.131 9.00613 982.791 9.44097V9.65839C982.791 10.5281 982.351 10.7455 981.47 10.7455C981.25 10.3107 981.03 9.87581 980.81 9.44097C979.488 9.44097 979.488 10.0932 980.149 10.9629C980.369 11.3977 980.369 12.05 980.589 12.4849C979.709 12.05 979.268 10.9629 978.167 10.9629C978.387 10.5281 978.387 10.3107 978.167 9.87581L978.387 9.65839C978.607 9.22355 978.387 8.57129 978.167 8.13645C978.607 8.13645 979.268 8.13645 980.149 8.13645ZM977.286 6.17968C977.066 6.3971 977.066 6.61452 977.066 6.83194C976.846 6.61452 976.846 6.61452 976.626 6.3971C976.846 6.17968 977.066 6.17968 977.286 6.17968ZM937.208 9.00613C936.988 8.78871 936.768 8.57129 936.548 8.35387C936.768 8.35387 937.208 8.57129 937.428 8.57129C937.428 8.57129 937.428 8.78871 937.208 9.00613ZM916.288 17.9204C916.068 18.1378 915.628 18.1378 915.187 17.9204L914.967 17.7029C915.408 17.7029 915.848 17.7029 916.288 17.9204ZM858.374 13.7894C858.154 13.7894 857.933 13.7894 857.493 13.7894C856.832 13.7894 856.172 13.7894 855.511 13.7894C854.41 13.7894 853.309 13.7894 852.428 13.7894C853.749 13.572 855.291 13.572 856.612 13.1371C857.493 12.9197 857.273 11.6152 858.154 11.3978C858.154 11.8326 858.154 12.2674 858.594 12.7023C858.374 13.1371 858.374 13.3545 858.374 13.7894ZM888.983 10.7455C889.203 10.5281 889.423 10.5281 889.643 10.3107C890.304 11.3978 891.405 11.6152 892.506 12.05C893.607 12.2674 894.268 12.05 895.148 11.3978C896.69 11.3978 898.231 11.3977 899.552 11.1803C899.332 11.1803 898.892 11.3977 898.672 11.6152C897.35 12.4849 896.25 13.572 895.809 14.8765C896.029 14.2242 895.589 13.7894 894.708 13.1371C893.387 13.1371 892.506 13.7894 892.286 14.8765C891.625 14.8765 890.745 14.8765 890.084 15.3113C890.084 15.0939 890.084 14.8765 889.864 14.8765C888.102 14.8765 886.561 14.6591 884.799 14.6591C884.799 14.4416 884.799 14.4416 884.799 14.2242C884.579 13.3545 884.138 12.7023 883.918 11.8326C885.68 11.6152 887.441 11.3978 888.983 10.7455ZM857.933 7.04936C858.594 7.26678 859.034 7.04936 859.475 6.83194C859.475 6.83194 859.475 7.04936 859.695 7.04936C860.135 7.4842 860.796 7.70162 861.457 7.91904C862.558 8.13646 863.659 8.13646 864.54 7.91904C864.76 7.91904 864.76 7.91904 864.76 7.70162H864.98C865.861 7.91904 866.962 8.13645 867.843 8.57129C868.503 9.00613 869.384 9.22355 870.265 9.22355C870.485 9.22355 870.485 9.22355 870.706 9.22355C870.706 9.44097 870.926 9.65839 870.926 9.87581C871.806 12.9197 874.229 10.5281 875.77 11.1803C876.651 10.0932 878.413 11.1803 879.294 9.87581V9.65839C879.294 9.87581 879.514 10.0932 879.514 10.3107H879.734C879.734 10.3107 879.734 10.3106 879.734 10.5281C879.734 10.7455 879.734 11.1803 879.734 11.3978C881.496 12.4849 879.073 12.4849 879.294 13.1371C879.073 13.3545 878.853 13.572 878.633 13.7894C878.193 13.7894 877.752 13.7894 877.312 13.7894C875.99 13.7894 875.11 13.572 874.449 12.4849C872.467 12.9197 870.705 13.7894 868.724 12.4849C868.283 10.0932 866.742 9.00613 864.76 9.00613C864.32 9.00613 863.659 9.00613 863.218 9.22355C862.778 9.22355 862.338 9.00613 861.897 9.00613C861.677 9.00613 861.457 9.22355 861.237 9.22355C859.695 9.44097 858.814 8.5713 857.713 7.91904C856.832 8.13646 856.612 7.26678 856.172 6.61452C856.832 6.61452 857.493 6.61452 857.933 7.04936ZM852.869 6.17968C853.309 6.3971 853.749 6.61452 854.41 6.61452C853.97 6.83194 853.529 7.26678 853.309 7.70162C853.309 7.70162 853.309 7.70162 853.309 7.91904C853.089 7.70162 853.089 7.70162 852.869 7.4842C852.869 7.4842 852.869 7.26678 853.089 7.26678C853.089 7.04936 853.089 6.61452 852.869 6.17968ZM848.685 11.8326C848.905 11.3978 848.685 11.1803 848.685 10.7455C849.345 11.1803 850.006 10.9629 850.887 10.5281L851.107 10.3107C851.767 10.5281 852.869 10.5281 853.089 11.3978C851.988 12.2674 850.226 11.1803 849.345 12.4849C849.786 12.7023 850.006 13.1371 850.226 13.572H850.006C849.565 13.7894 849.125 13.7894 848.905 14.0068C848.905 13.7894 848.685 13.7894 848.685 13.572C848.464 12.9197 848.244 12.4849 847.804 12.2674C848.024 12.4849 848.464 12.4849 848.685 11.8326ZM844.721 21.8339C845.161 21.6165 845.382 20.9642 845.822 20.5294C846.042 20.5294 846.262 20.5294 846.262 20.5294C846.262 21.6165 845.381 21.8339 844.501 22.0513C844.501 22.0513 844.28 22.0513 844.721 21.8339ZM838.995 25.3126H839.216C839.216 25.3126 839.216 25.3126 838.995 25.3126ZM835.472 16.3984C835.692 16.6158 835.692 16.8333 835.472 17.2681C835.472 16.8333 835.252 16.6158 835.472 16.3984ZM831.949 16.181C833.05 15.3113 833.71 17.0507 834.591 17.4855C834.811 17.7029 834.811 17.9204 835.032 18.1378C834.811 18.5726 834.812 18.79 834.812 19.0075C834.812 19.2249 834.811 19.6597 835.032 19.8771C834.811 20.0946 834.591 20.0946 834.151 20.0946C833.931 20.0946 833.931 20.0946 833.71 19.8771C833.49 19.8771 833.27 19.8771 833.05 20.0946C833.05 19.6597 833.05 19.2249 832.609 19.0075C831.068 17.9204 830.628 17.0507 831.949 16.181ZM802.441 11.3978C802.221 12.4849 803.542 13.1371 803.322 14.2242C802.441 14.4416 801.78 14.8765 800.899 15.3113H800.679C801.34 14.4416 801.78 13.7894 801.12 12.7023C800.679 12.05 800.239 11.8326 799.578 11.6152C800.679 11.6152 801.56 11.3978 802.441 11.3978ZM781.081 20.0946C781.081 20.312 781.081 20.5294 781.081 20.9642C780.86 20.7468 780.64 20.5294 780.42 20.312L780.2 20.0946C780.42 20.0946 780.86 20.0946 781.081 20.0946ZM728.01 29.4436C728.23 29.8785 728.01 30.0959 728.01 30.0959C728.01 29.661 728.01 29.4436 728.01 29.0088C728.01 29.2262 728.01 29.2262 728.01 29.4436ZM700.484 20.312C700.484 20.5294 700.484 20.5294 700.264 20.7468L700.044 20.5294C700.264 20.5294 700.484 20.5294 700.484 20.312ZM640.587 17.0507C640.147 17.0507 640.367 16.6158 640.587 17.0507ZM634.642 19.6597C635.302 19.0075 636.623 19.0075 637.284 18.3552C637.504 18.5726 637.725 19.0075 637.725 19.2249C637.725 19.6597 637.725 19.8771 637.945 20.0946C636.844 19.6597 635.743 19.6597 634.421 20.0946V19.6597H634.642ZM615.263 19.8771C614.823 19.4423 614.382 19.4423 613.722 19.4423C614.382 19.4423 614.823 19.6597 615.263 19.8771ZM613.942 14.0068C613.281 14.4416 612.401 14.8765 611.96 15.7462C611.96 15.5287 611.74 15.3113 611.52 15.3113C611.52 13.572 613.281 14.2242 613.942 14.0068ZM593.022 30.7482C592.802 30.7482 592.802 30.7482 593.022 30.7482ZM548.981 25.7475C548.981 25.9649 548.981 25.9649 548.981 26.1823C548.76 26.1823 548.54 25.9649 548.1 25.7475C548.54 25.7475 548.76 25.7475 548.981 25.7475ZM528.281 25.3126C528.061 25.3126 528.061 25.3126 527.84 25.3126C528.061 25.5301 528.281 25.5301 528.281 25.3126ZM516.83 25.7475C517.05 25.7475 517.27 25.9649 517.491 26.1823C517.27 26.1823 517.05 26.1823 516.83 26.1823C516.83 25.9649 516.83 25.7475 516.83 25.7475ZM498.112 30.9656C497.892 30.9656 497.892 30.9656 497.892 30.7482L498.112 30.9656ZM372.813 30.5307C372.813 30.7482 372.593 30.7482 372.373 30.9656C372.373 30.9656 372.153 30.7482 372.153 30.5307C372.593 30.5307 372.813 30.5307 372.813 30.5307ZM321.285 21.6165C321.285 22.0513 321.285 22.2688 321.285 22.7036C321.064 22.0513 321.064 21.8339 321.285 21.6165ZM315.559 19.6597C316 19.0075 315.779 18.5726 315.559 17.9204C315.559 17.4855 315.559 17.0507 316 16.8333C316.44 16.8333 316.66 17.0507 316.88 17.2681C317.761 17.9204 316.88 18.1378 316.44 18.3552C315.779 19.0075 315.779 19.6597 316.22 20.5294C316.22 20.7468 316.44 20.7468 316.66 20.9642H316.88C316.88 20.9642 316.88 20.9642 316.88 21.1817C316.88 21.1817 316.88 21.1817 316.88 20.9642C316.44 20.5294 316 20.312 315.559 20.0946C315.559 19.8771 315.559 19.6597 315.559 19.6597ZM253.24 18.1378C253.681 17.9204 254.341 17.4855 254.781 17.2681C255.002 17.7029 255.222 18.1378 255.442 18.5726C254.561 18.5726 253.901 18.5726 253.24 19.0075C253.46 18.5726 253.46 18.3552 253.24 18.1378ZM253.24 12.2674C253.46 13.1371 252.8 13.7894 252.359 14.2242C251.919 13.7894 251.478 13.572 250.818 13.7894C250.818 13.7894 250.598 13.7894 250.598 14.0068C250.598 13.7894 250.598 13.7894 250.598 13.572C249.937 10.5281 251.699 11.6152 253.24 12.2674ZM199.95 16.6158C199.95 16.3984 200.17 16.3984 200.17 16.181C200.17 16.6158 200.39 17.2681 200.83 17.7029C200.83 17.7029 200.61 17.7029 200.61 17.4855C200.39 17.0507 199.95 16.8333 199.509 16.8333H199.289C199.509 16.8333 199.729 16.8333 199.95 16.6158ZM193.343 17.9204C192.903 17.4855 192.683 16.6158 191.802 16.6158C192.683 16.3984 192.903 17.2681 193.343 17.9204ZM128.602 18.5726C128.602 18.79 128.382 18.79 128.161 19.0075C127.721 18.79 127.501 18.5726 127.501 18.1378C127.721 18.1378 128.162 18.3552 128.602 18.5726ZM121.335 17.0507C120.895 16.8333 120.234 16.6158 120.014 16.181C120.454 16.3984 120.895 16.6158 121.335 17.0507ZM112.086 26.6172C112.306 26.6172 112.307 26.8346 112.527 26.8346C112.307 26.8346 112.086 26.6172 112.086 26.6172ZM106.141 32.4875C106.361 32.4875 106.581 32.7049 106.581 32.7049L106.141 32.4875ZM91.8271 29.4436C93.1483 30.3133 94.91 29.8785 96.2313 30.5307C96.0111 30.5307 96.0111 30.5307 95.7909 30.5307C95.5707 30.5307 95.3504 30.7482 94.91 30.7482H94.6899C94.0292 30.7482 93.5887 30.7482 92.9281 30.9656H92.708C92.4878 30.9656 92.2675 31.183 92.0473 31.4004C91.3867 30.5307 90.0654 30.9656 89.4048 30.3133C90.2856 30.0959 91.1665 30.0959 91.8271 29.4436ZM90.2857 27.2694C90.0655 27.4868 90.0654 27.7043 89.8452 27.9217C89.1846 27.2694 88.0836 27.4868 87.2028 27.2694C88.3038 27.2694 89.1846 27.4868 90.2857 27.2694ZM80.156 27.9217C80.8167 28.1391 81.4773 27.9217 82.1379 27.4868C82.3582 27.4868 82.3581 27.4868 82.5783 27.4868C81.6975 27.9217 80.8167 28.3565 80.156 27.9217ZM68.485 19.2249C69.5861 17.7029 70.687 18.5726 71.7881 19.2249C72.2285 19.4423 72.6689 19.6597 73.1093 19.8771C74.4306 20.312 75.7519 20.0946 77.0731 20.5294C77.2933 20.5294 77.7337 20.5294 77.9539 20.7468C78.6145 20.7468 79.2752 20.7468 79.9358 20.7468C81.9177 20.5294 82.7986 21.8339 83.6795 22.921C82.5784 22.2688 82.1378 20.9642 80.8166 20.9642C79.7155 20.9642 78.6146 21.1817 77.7338 20.9642C76.1923 20.9642 74.6508 21.3991 73.1093 20.9642C72.0083 20.7468 70.9072 20.7468 69.8062 20.5294C69.5859 20.5294 69.1456 20.5294 68.7051 20.5294C67.6041 20.7468 66.5031 20.7468 65.6222 20.7468C65.6222 20.5294 65.6222 20.312 65.6222 20.0946C65.6222 20.0946 65.6222 19.8771 65.402 19.8771C66.503 20.312 67.6042 20.7468 68.485 19.2249ZM63.1999 32.2701C63.4201 32.4875 63.8605 32.7049 64.301 32.7049H63.4202C63.4202 32.7049 63.4202 32.7049 63.4202 32.4875V32.2701H63.1999ZM50.8683 23.1384C50.6481 24.2255 51.0885 25.3127 51.5289 26.1823C51.3087 26.1823 51.3086 26.1823 51.0884 26.3998C50.8682 26.6172 50.8683 26.6172 50.8683 26.8346C50.2076 26.8346 49.547 26.8346 49.1066 26.6172C49.1066 26.6172 49.1066 26.6172 49.1066 26.3998C49.1066 26.1823 49.3267 25.7475 49.3267 25.5301C49.1065 24.443 48.2257 24.2255 47.5651 23.7907C48.6661 23.5733 49.7672 23.5733 50.8683 23.1384ZM44.262 28.7914C45.3631 28.7914 46.2439 28.7914 47.345 28.574C47.5652 28.3565 47.7854 28.3565 48.0056 28.1391C49.1066 28.1391 49.9873 28.1391 51.0884 28.1391C51.3086 28.574 51.3086 29.0088 51.3086 29.4436H47.1247C46.6843 29.2262 46.0237 29.0088 45.3631 29.0088C44.9226 29.0088 44.4822 29.0088 44.0418 29.4436C44.0418 29.0088 44.262 29.0088 44.262 28.7914ZM36.5547 24.0081C36.3345 24.2255 36.3346 24.2255 36.3346 24.443C36.3346 24.2255 36.1143 23.7907 35.8941 23.5733C36.1143 23.5733 36.3345 23.7907 36.5547 24.0081ZM21.5805 28.1391C22.0209 28.1391 22.4613 28.3565 22.9017 28.3565C24.223 28.3565 25.5442 28.3565 26.8654 27.7043C26.8654 27.4869 26.8654 27.4868 26.8654 27.2694C29.2877 27.9217 31.4899 26.8346 33.692 26.6172C33.692 27.052 33.9121 27.7043 33.9121 28.1391C33.9121 28.574 33.6919 28.7914 33.2515 28.7914C29.7282 28.7914 27.0857 32.0527 23.3421 31.4004C23.1219 31.4004 22.9018 31.4004 22.6816 31.4004V31.183L22.4612 30.9656C22.0208 29.8785 20.6996 29.0088 21.5805 28.1391ZM10.1297 31.4004C10.7903 31.4004 11.451 31.4004 12.1116 31.4004C12.3318 31.4004 12.5519 31.4004 12.7721 31.4004C12.5519 31.8353 12.3316 32.0527 11.8912 32.4875C11.671 32.4875 11.671 32.4875 11.4508 32.2701C11.0104 32.0527 10.3499 32.0527 10.1297 31.4004Z" fill="url(#paint0_linear_10938_8839)"/>
  <defs>
    <linearGradient id="paint0_linear_10938_8839" x1="900" y1="40" x2="900" y2="5.98501e-07" gradientUnits="userSpaceOnUse">
      <stop offset="0.235362" stop-color="#F7D08A"/>
      <stop offset="1" stop-color="#F7D08A" stop-opacity="0.8"/>
    </linearGradient>
  </defs>
</svg>