<svg xmlns="http://www.w3.org/2000/svg" width="1920" height="40" viewBox="0 0 1920 40" fill="none">
  <path d="M0.220052 0.00501976C0.220052 0.00501976 0.220052 3.01615 0.220052 3.88583C0.220052 4.32067 0.220052 5.49168 0.220052 5.49168V6.8902C0.220052 6.8902 9.46898 8.16474 9.02856 7.94732C6.60626 7.29506 4.48663 5.83673 2.06433 6.48899C1.4037 6.70641 0.880678 -0.2124 0.220052 0.00501976L0 20.3403C0.880835 20.3403 1.76167 20.1229 2.64251 19.9054C3.74355 19.688 4.84459 19.4706 5.94564 19.2532C6.38605 19.2532 7.04668 19.2532 7.4871 19.2532C11.0104 19.0358 14.5338 19.4706 18.0571 20.3403C21.14 21.21 23.5623 19.2532 26.2048 19.9054C26.425 20.1229 26.8655 20.3403 27.0857 20.3403C27.3059 20.3403 27.5261 20.3403 27.7463 20.1229C28.4069 19.688 32.5909 19.688 33.2515 19.9054C33.692 20.1229 34.1324 20.7751 34.5728 20.7751C38.5365 19.9054 42.7205 20.5577 46.9045 19.9054C52.4097 19.9054 57.9149 19.688 63.1999 19.688C65.1818 19.688 67.3838 19.688 69.3657 19.688C72.0082 19.688 74.4305 17.5138 77.073 19.0358C77.2932 19.2532 77.5135 19.2532 77.5135 19.4706C78.6145 20.1229 80.8166 18.8183 81.0368 20.5577C81.257 22.0796 79.7155 22.9493 78.3943 23.6016C78.3943 23.819 78.3943 24.0364 78.3943 24.2538C77.7337 24.2538 77.073 24.2538 76.4124 24.2538C75.972 24.2538 75.5316 24.2538 75.0911 24.2538C74.8709 24.2538 74.6507 24.2538 74.2103 24.2538C72.4487 24.2538 70.9072 24.0364 69.3657 24.9061C63.8605 24.9061 58.3553 25.1235 52.8501 25.1235C52.6299 25.1235 52.1895 25.1235 51.9693 25.1235C51.5289 25.1235 51.0884 25.1235 50.648 25.1235C48.4459 25.9932 46.2439 24.4713 44.0418 25.5584C42.5003 25.5584 41.1791 25.7758 40.5184 27.2977C39.6376 25.7758 38.3163 25.3409 36.7749 25.3409C36.1142 25.3409 35.4536 25.3409 35.0132 25.5584C26.2049 27.2977 17.1763 26.2106 8.14773 26.6455C8.14773 27.0803 7.70731 26.8629 7.4871 26.8629C7.26689 26.8629 7.04668 26.8629 7.04668 27.2977C6.16585 29.6894 4.18397 29.6894 2.20209 29.4719C1.76167 29.2545 1.10104 28.8197 0.440418 28.8197V35.3423C1.10104 35.3423 1.54146 35.3423 2.20209 35.5597C2.4223 35.3423 2.64251 35.1248 2.86271 34.9074C3.08292 34.9074 3.30313 34.9074 3.74355 34.9074C4.18397 34.9074 4.40417 34.9074 4.84459 34.9074V35.1248C7.4871 37.0816 10.3498 34.9074 12.9923 35.7771C12.9923 35.7771 12.9923 35.7771 13.2125 35.7771C13.8732 35.5597 14.9742 35.7771 15.855 36.2119C17.6167 36.6468 17.6167 35.7771 17.3965 34.69C18.4975 34.0377 19.1582 35.1248 20.039 35.3423C20.4794 35.7771 20.9198 35.9945 21.5805 35.9945C22.0209 35.9945 22.4613 35.9945 23.1219 35.9945C23.1219 36.2119 23.1219 36.4294 23.3421 36.6468C24.223 36.6468 25.5442 36.4294 24.6634 37.9513C24.4432 40.1255 25.9846 40.1255 27.5261 39.9081C29.9484 39.9081 32.8111 40.3429 32.5909 36.6468C32.8111 36.6468 33.0313 36.6468 33.2515 36.4294C33.4717 36.4294 33.692 36.4294 33.9122 36.4294C35.0132 36.4294 36.3345 37.5165 37.4355 36.6468C38.0961 37.299 38.7568 37.0816 39.6376 37.0816V37.299C40.2982 37.299 40.7386 37.299 41.3993 37.0816C41.3993 37.299 41.3993 37.5165 41.6195 37.7339C43.6013 39.2558 45.5832 39.9081 48.2257 39.0384C48.6662 37.9513 48.4459 36.2119 50.2076 35.7771C50.2076 35.7771 50.2076 35.7771 50.4278 35.7771C50.4278 35.9945 50.4278 36.2119 50.4278 36.4294C49.1066 37.299 49.9874 38.1687 50.4278 39.0384C51.0884 38.821 51.7491 38.6036 52.4097 38.3861V37.0816C52.6299 36.8642 52.8501 36.6468 53.0703 36.6468C53.9512 37.299 54.6118 38.3861 55.2724 39.2558C56.1532 39.2558 57.2543 39.2558 58.1351 39.2558C59.2362 37.5165 56.1532 37.9513 56.8139 36.6468C57.9149 36.4294 58.3553 34.9074 59.4564 34.9074C59.6766 34.9074 59.8968 34.9074 60.3372 35.1248V35.3423C60.5574 36.2119 61.4383 36.6468 62.0989 36.8642C63.1999 37.0816 64.0807 36.6468 64.7413 35.7771C65.8424 35.7771 67.1636 35.7771 68.2647 35.5597C70.2466 36.4294 72.4486 37.0816 74.6507 36.2119C75.0912 35.7771 75.5316 35.3423 75.972 35.1248C76.1922 35.3423 76.4124 35.5597 76.8528 35.7771C80.5964 36.4294 84.3399 36.8642 88.0835 36.8642C89.1845 36.8642 90.0653 36.4294 90.9462 35.7771C95.1301 35.7771 99.3141 35.7771 103.718 35.7771H117.812C120.674 35.7771 123.537 35.9945 126.4 35.1248V34.9074C127.06 34.9074 127.721 35.1248 128.382 35.1248C129.263 34.4726 129.703 33.1681 131.024 33.1681C131.024 33.8203 130.143 35.1248 131.244 34.69C133.447 33.8203 134.988 35.3423 136.75 35.5597C136.75 35.3423 136.75 35.1248 136.75 34.9074C136.75 33.8203 136.309 33.3855 135.428 33.1681C135.869 32.9506 136.309 32.7332 136.75 32.2984C138.511 31.8635 140.713 32.7332 142.475 31.4287V31.6461C142.916 31.8635 143.356 32.081 143.576 32.081C144.457 32.2984 144.677 32.7332 145.118 33.3855C145.778 34.0377 146.659 34.2552 147.32 34.69C148.861 36.2119 150.843 34.2552 152.385 35.3423C155.027 35.3423 157.449 35.3423 160.092 35.3423C162.074 35.3423 164.276 35.3423 166.258 35.3423C167.138 35.3423 168.24 35.3423 169.12 35.3423C170.662 35.3423 171.763 35.3423 172.864 36.6468C174.185 37.0816 173.965 35.5597 175.066 35.3423C175.066 35.1248 175.066 34.9074 175.066 34.69C176.607 34.9074 177.488 34.0377 178.589 33.3855C179.69 33.1681 181.012 32.9506 182.113 32.7332C182.994 33.1681 184.095 33.6029 184.975 34.0377C186.957 33.3855 186.076 30.9939 187.838 30.1242C188.499 30.559 188.939 31.2113 190.04 30.559C190.26 29.9068 190.701 29.4719 191.361 29.2545C192.022 29.6893 192.683 29.6894 192.683 28.8197C193.343 29.4719 194.444 29.0371 194.885 29.9068C195.105 31.4287 195.325 32.9506 197.748 32.2984V32.081C197.748 32.081 197.748 31.8635 197.527 31.8635C197.087 31.4287 196.646 30.9939 196.206 30.559C198.188 29.2545 200.83 30.3416 202.592 28.6022C202.812 28.6022 203.033 28.6022 203.253 28.6022C204.354 28.8197 206.776 27.7326 205.235 30.559C204.794 31.2113 207.437 31.8635 208.978 31.8635V33.3855C208.978 33.8203 208.978 34.4726 209.198 34.69C208.758 34.69 208.538 34.69 208.097 34.69C205.895 33.6029 203.913 35.1248 201.711 35.3423C202.152 35.5597 202.812 35.7771 203.253 35.9945C205.675 35.1248 208.097 35.9945 210.299 35.9945C211.18 35.9945 212.281 35.9945 213.162 35.9945C213.162 35.7771 213.162 35.5597 213.162 35.3423C213.603 34.9074 214.263 34.9074 214.704 34.9074C216.025 34.9074 217.346 35.9945 218.888 35.9945C219.108 35.9945 219.328 36.2119 219.548 36.2119C220.429 35.7771 220.209 34.69 220.429 34.0377C220.429 34.0377 220.209 34.0377 220.209 33.8203C220.209 33.3855 219.548 33.1681 220.209 32.7332C220.209 32.5158 220.209 32.2984 220.209 32.081C221.09 32.081 222.191 32.081 222.191 30.7764C221.31 30.3416 220.649 29.6893 219.768 30.3416C219.548 30.3416 219.328 30.1242 218.888 30.1242C218.227 30.1242 217.787 30.1242 217.126 30.1242C217.566 29.9068 218.007 29.6893 218.447 29.6893C219.328 29.4719 220.429 29.4719 221.53 29.2545C221.75 29.2545 221.97 29.2545 222.191 29.0371C222.631 29.2545 223.072 29.2545 223.512 29.2545H223.732C223.732 29.2545 223.512 29.4719 223.732 29.4719C223.732 29.6894 223.952 29.6893 223.952 29.6893C225.053 29.9068 223.512 31.8635 225.274 31.8635C225.934 31.4287 226.595 30.9939 227.255 30.559C226.815 30.1242 226.595 29.6893 226.815 29.2545C227.476 29.2545 228.136 29.2545 228.577 29.0371C228.577 29.2545 228.797 29.2545 229.017 29.4719C230.338 29.9068 231.66 30.1242 232.981 29.2545C235.183 29.0371 237.385 28.8197 239.367 29.9068C239.807 30.3416 240.468 30.3416 240.908 30.3416C242.23 29.9068 243.991 29.9068 244.212 28.1674C244.432 28.1674 244.872 28.3848 245.092 28.6022C245.313 28.6022 245.533 28.6023 245.753 28.8197C247.955 30.1242 250.598 29.0371 252.8 29.4719C253.02 29.4719 253.24 29.4719 253.46 29.4719V29.6893C255.883 30.3416 258.305 30.559 260.727 29.9068C262.048 29.0371 263.81 30.7764 265.131 29.2545C268.655 29.2545 272.178 29.0371 275.701 29.0371C277.023 28.1674 278.344 28.8197 279.665 28.6022H279.885C280.326 28.6022 280.986 28.6022 281.647 28.6022C280.986 29.4719 280.106 29.4719 279.004 29.4719C277.903 29.6894 276.802 29.6893 275.701 30.1242C274.16 31.4287 273.94 32.9506 275.041 34.4726C274.82 34.4726 274.6 34.4726 274.38 34.69C274.38 34.69 274.38 34.9074 274.16 34.9074C274.16 35.1248 274.16 35.3423 274.16 35.5597C274.38 35.7771 274.6 35.9945 274.821 36.2119C276.142 37.0816 276.362 36.2119 276.582 35.3423V35.1248C276.802 35.1248 276.802 35.1248 277.023 35.1248C278.124 35.1248 279.004 35.1248 279.885 34.4726C280.986 34.69 282.087 34.69 283.188 34.69C284.95 34.69 286.712 34.4726 288.253 33.6029C289.354 33.1681 290.676 33.1681 290.455 31.6461C288.914 29.9068 286.492 29.9068 284.51 29.0371C284.51 29.0371 284.289 29.0371 284.289 28.8197C285.611 28.1674 287.152 28.1674 287.593 26.428C289.575 25.9932 291.336 26.6455 293.098 27.0803C293.758 27.7326 294.419 27.7326 295.3 27.5151C295.3 27.5151 295.52 27.5151 295.74 27.5151C296.621 27.5151 298.163 26.8629 297.502 28.8197H297.282C296.841 29.4719 296.401 30.1242 296.401 30.7764C296.181 30.9939 296.181 31.2113 295.961 31.4287C294.86 31.6461 294.199 32.2984 293.318 33.6029H298.163C299.043 33.6029 300.144 33.6029 301.025 33.6029C301.246 33.6029 301.466 33.8203 301.686 33.8203C303.888 33.6029 306.09 34.0377 308.072 32.9506C308.292 32.9506 308.512 32.9506 308.733 32.9506C308.953 32.081 309.173 31.2113 309.614 30.3416C309.173 29.9068 308.733 29.6893 308.072 29.6893C307.852 29.6893 307.632 29.4719 307.632 29.4719C305.43 27.95 307.852 26.8629 308.292 25.5584C311.375 25.1235 314.458 24.6887 317.541 24.6887C318.642 24.6887 319.743 24.6887 320.844 24.9061C321.285 24.6887 321.945 24.4713 322.386 24.2538C322.606 24.2538 322.826 24.2538 322.826 24.2538C324.367 24.4713 325.909 25.3409 327.23 25.3409C327.45 25.3409 327.671 25.3409 327.891 25.3409C330.533 24.9061 330.093 25.7758 329.652 26.6455H329.432C328.331 26.6455 327.01 26.6455 326.129 27.2977C324.808 25.9932 323.046 25.5584 321.285 25.1235C320.183 25.7758 319.523 26.8629 318.862 27.7326C318.202 27.5151 317.541 27.95 316.88 27.95C315.779 28.6023 315.559 29.2545 316.88 29.9068C317.321 30.7765 317.541 32.081 319.082 31.2113C319.082 31.4287 319.303 31.4287 319.303 31.4287C319.303 31.6461 319.303 31.8635 319.303 32.081C319.082 34.2552 320.404 34.9074 322.386 35.1248C324.147 34.69 325.689 35.7771 327.23 35.1248C328.992 34.0377 328.331 33.1681 327.01 32.2984C327.23 32.081 327.45 32.081 327.891 31.8635C328.772 31.8635 329.873 31.8635 330.753 31.8635C330.974 32.2984 331.855 33.1681 330.974 33.6029C328.111 35.1248 330.093 35.7771 331.414 36.4294C332.515 35.5597 333.396 34.69 334.937 34.4726C334.937 34.4726 334.937 34.2552 335.158 34.2552L334.937 34.4726C335.818 35.7771 337.14 35.7771 338.461 35.7771C339.562 34.0377 337.36 34.69 337.14 33.8203C337.8 33.3855 338.461 33.1681 339.121 33.1681C340.883 33.1681 342.645 34.2552 344.186 33.1681C344.406 33.1681 344.627 33.1681 344.847 33.1681C345.287 33.1681 345.728 33.1681 346.168 33.1681C346.829 33.1681 347.489 33.1681 348.15 33.1681C348.811 33.3855 349.251 33.3855 349.912 33.3855C351.673 33.3855 353.435 32.9506 355.417 32.7332C357.399 33.8203 359.381 33.1681 361.583 33.1681C361.803 33.3855 362.023 33.3855 362.243 33.6029H362.464C362.023 34.0377 361.142 34.0377 361.142 34.69C363.565 34.9074 365.987 34.9074 368.189 34.9074C369.73 35.1248 371.272 35.3423 372.813 35.1248C375.236 35.1248 377.878 35.1248 380.3 35.1248C381.622 35.1248 382.943 35.1248 384.264 35.1248C384.925 35.1248 385.806 35.1248 386.466 35.1248C386.466 34.9074 386.687 34.69 386.687 34.69C386.907 34.69 387.127 34.69 387.127 34.69C387.347 34.9074 387.567 35.1248 387.788 35.3423C389.549 35.7771 391.091 35.7771 392.852 35.3423L392.632 35.1248C396.376 35.5597 399.679 34.0377 403.422 34.0377C403.863 34.0377 404.303 34.0377 404.964 34.0377C406.065 34.0377 407.386 34.69 408.267 33.8203C409.368 32.5158 406.946 32.081 406.946 30.7764C407.386 30.559 407.827 30.3416 408.267 30.1242C409.148 30.559 410.029 30.9939 411.13 31.4287V31.6461V31.8635C409.808 33.8203 411.13 34.0377 412.671 34.0377C412.671 33.6029 412.671 33.1681 412.671 32.7332C412.671 32.2984 412.671 31.8635 412.671 31.4287C413.332 31.2113 413.772 30.7764 413.552 30.1242C413.772 30.1242 413.772 30.1242 413.992 30.1242C414.213 30.559 414.653 30.9939 414.873 31.4287C415.974 32.2984 414.213 34.9074 417.075 34.69C418.837 34.4726 421.039 35.7771 422.801 34.2552C422.14 33.6029 422.801 32.9506 422.581 32.2984C422.581 32.081 422.581 32.081 422.581 31.8635L422.801 31.6461C423.021 31.8635 423.021 31.8635 423.241 32.081C423.241 32.5158 423.241 32.7332 423.461 33.1681C423.902 34.0377 424.562 34.69 425.003 35.5597C427.645 35.9945 426.104 33.6029 426.985 32.9506C427.205 32.7332 427.205 32.5158 427.205 32.081C427.205 30.7764 426.104 29.4719 426.985 28.3848C426.324 27.7326 425.664 27.5151 424.783 27.2977C424.342 27.2977 423.902 27.2977 423.682 27.5151C423.241 26.8629 422.801 26.6455 422.14 26.428C420.819 26.2106 419.938 27.0803 418.617 27.2977C418.837 26.8629 418.837 26.2106 417.736 26.2106C417.516 26.2106 417.296 26.2106 417.296 26.2106C416.195 26.2106 415.093 26.428 414.213 25.5584C413.992 25.7758 413.772 25.7758 413.332 25.9932C413.112 25.9932 412.891 25.9932 412.671 25.9932C412.231 25.9932 411.79 25.9932 411.35 25.9932C410.689 25.7758 410.249 25.5584 409.588 25.5584C409.368 25.5584 409.148 25.5584 408.928 25.7758C408.707 25.5584 408.487 25.1235 408.047 24.9061C407.606 24.4713 407.166 24.2538 406.505 23.819C408.487 23.819 410.689 23.819 412.671 23.819C413.112 23.819 413.552 23.819 414.213 23.819C414.653 23.819 415.314 23.819 415.974 23.819C418.176 23.819 420.599 23.3842 422.801 24.4713C423.021 24.9061 423.682 25.1235 424.122 25.1235C424.342 25.1235 424.783 25.3409 425.003 25.3409V25.5584C425.223 26.6455 425.884 27.0803 426.985 26.8629C427.645 26.8629 428.306 26.8629 428.967 26.8629C429.407 26.428 430.948 27.0803 430.508 25.5584C429.407 24.6887 430.068 24.0364 430.948 24.2538C434.912 24.4713 438.656 23.6016 442.62 24.6887C442.84 24.9061 443.06 25.3409 443.28 25.5584V25.3409C443.5 25.3409 443.5 25.3409 443.721 25.3409C444.601 25.3409 445.042 23.819 446.143 24.2538C445.482 25.1235 445.042 25.9932 444.381 27.0803C445.702 27.7326 447.244 27.5151 448.565 27.5151C448.565 27.7326 448.565 27.95 448.565 27.95C448.565 28.1674 448.785 28.1674 448.785 28.3848C448.345 28.8197 448.125 29.2545 448.125 29.6893C448.125 29.9068 449.006 29.9068 449.446 30.1242C449.446 30.3416 449.446 30.559 449.446 30.7764C451.208 31.4287 453.19 31.4287 455.171 31.4287C455.612 30.9939 456.273 31.2113 456.713 30.7764H458.034V30.559C458.034 30.7765 458.254 30.7765 458.254 30.9939C459.576 30.9939 460.897 31.2113 462.218 30.7764C462.438 30.7764 462.659 30.559 462.879 30.559C463.98 30.1242 464.861 30.9939 465.742 30.7764C466.182 30.7764 466.843 30.7765 467.283 30.559C468.824 30.1242 470.366 29.4719 468.384 27.7326C467.503 27.0803 467.944 25.7758 467.063 25.1235C466.182 24.6887 465.081 24.6887 464.2 25.1235C463.98 25.3409 463.98 25.5584 463.76 25.5584C463.319 25.1235 463.099 25.3409 463.099 25.7758C462.879 25.9932 462.438 26.428 461.998 26.6455C461.778 26.6455 461.558 26.428 461.337 26.428C460.897 26.428 460.456 26.428 460.016 26.6455C459.796 26.2106 459.355 25.9932 458.695 25.9932C458.695 25.9932 458.695 25.9932 458.475 25.9932C458.034 24.9061 458.254 24.2538 460.016 24.4713C460.897 24.6887 461.778 24.4713 462.659 24.6887C466.182 25.1235 469.925 24.9061 473.449 25.3409C473.008 25.3409 472.788 25.3409 472.568 25.3409C472.128 25.3409 471.687 25.3409 471.247 25.3409C471.247 25.5584 471.027 25.7758 471.027 25.7758C470.366 25.7758 469.705 25.7758 469.045 25.7758C468.604 25.7758 468.164 25.7758 467.723 25.7758C468.384 26.6455 469.045 27.5151 469.705 28.3848C469.925 28.8197 470.586 29.0371 471.247 29.0371C472.128 26.428 474.99 27.2977 476.972 26.428C477.192 26.6455 477.413 26.8629 477.633 27.0803C478.514 27.7326 479.615 27.7326 480.495 27.0803C480.495 26.8629 480.495 26.6455 480.495 26.428C479.615 25.9932 478.734 25.5584 477.633 25.1235C477.413 25.1235 477.192 24.9061 477.192 24.9061C477.192 24.6887 477.192 24.4713 477.192 24.4713C477.413 24.2538 477.633 24.2538 477.633 24.0364C477.853 24.2538 478.073 24.2538 478.514 24.4713H478.734C480.275 26.2106 482.477 25.1235 484.459 25.1235C484.459 25.1235 484.459 25.1235 484.679 25.1235C485.12 25.7758 486.001 26.2106 486.441 27.0803C485.781 28.3848 483.799 27.95 483.358 29.2545C483.358 29.4719 483.358 29.4719 483.358 29.6893C483.578 30.1242 483.578 30.3416 484.019 30.3416C484.9 30.7764 485.78 30.7764 486.661 30.7764C488.423 30.559 490.185 30.3416 491.726 29.6893C491.946 29.4719 492.167 29.2545 492.387 29.0371C492.387 28.8197 492.167 28.8197 492.167 28.6022C492.167 28.6022 492.167 28.6022 492.387 28.6022L492.607 28.8197C493.047 28.8197 493.268 28.8197 493.708 28.6022C494.369 29.0371 495.249 29.0371 495.91 28.6022C495.91 28.6022 495.91 28.6023 495.91 28.3848C496.13 28.3848 496.13 28.3848 496.35 28.3848C497.011 28.6023 498.112 28.6023 498.773 28.8197C499.654 29.0371 500.314 29.2545 500.534 30.559H500.314C499.433 31.2113 499.654 32.081 500.314 32.7332C501.415 34.0377 502.737 35.1248 504.718 34.4726C504.278 34.9074 504.058 35.5597 504.058 36.2119C503.838 36.2119 503.397 36.2119 503.177 36.2119C502.957 36.2119 502.957 35.9945 502.737 35.9945C501.856 35.5597 500.975 35.5597 500.094 35.7771C499.213 36.2119 497.892 36.2119 497.892 37.7339C498.553 38.821 499.654 39.0384 500.755 39.0384C501.415 37.299 503.838 39.6907 504.498 37.7339C504.718 37.7339 504.939 37.7339 504.939 37.7339C506.26 37.7339 507.801 37.9513 509.123 37.0816C508.462 35.9945 506.26 36.2119 506.48 34.4726C506.7 34.4726 506.92 34.4726 506.92 34.4726C509.123 34.4726 511.325 35.9945 513.307 33.8203C513.747 34.4726 514.408 34.9074 515.068 34.9074H515.289C515.289 34.69 515.289 34.4726 515.509 34.4726C516.83 34.4726 518.151 34.4726 519.693 34.2552C519.693 34.4726 519.913 34.4726 519.913 34.69C521.234 34.69 522.555 36.2119 523.877 34.9074C523.877 34.69 523.877 34.69 523.877 34.4726C524.097 34.2552 524.537 34.2552 524.978 34.0377C524.537 34.2552 524.317 34.2552 523.877 34.4726C525.418 34.4726 527.18 34.4726 528.721 34.4726C529.162 34.69 529.602 34.69 530.263 34.9074C533.786 35.5597 537.309 35.9945 540.613 33.8203C540.833 33.6029 540.833 33.3855 540.833 33.3855C540.833 33.3855 540.833 33.3855 540.613 33.1681C540.613 32.7332 540.613 32.5158 540.613 32.081C540.392 31.8635 540.392 31.8635 540.392 31.6461C537.97 30.9939 535.768 29.2545 533.125 30.559C533.125 30.3416 532.685 29.9068 532.465 29.6893C532.245 29.6893 532.024 29.6893 532.024 29.6893C532.245 29.4719 532.465 29.2545 532.685 29.0371C533.126 28.8197 533.786 28.8197 534.447 28.8197C535.768 28.8197 537.089 28.8197 536.869 27.2977C538.851 27.5151 540.833 26.428 543.035 27.0803C543.695 27.0803 544.576 27.0803 545.237 26.6455C545.677 25.9932 545.677 25.5584 545.457 25.1235C546.118 25.3409 546.558 25.7758 547.219 25.7758C547.219 25.7758 547.219 25.7758 547.219 25.9932C547.219 26.428 547.439 26.6455 547.659 26.8629C548.54 27.5151 549.641 27.7326 550.742 27.5151C553.605 27.0803 556.247 25.9932 559.11 25.9932C560.211 25.5584 559.771 25.1235 559.33 24.4713C559.991 24.4713 560.431 25.3409 560.872 25.5584C561.092 25.7758 561.532 25.7758 561.753 25.5584C563.514 24.6887 565.276 24.0364 567.258 25.5584C599.408 22.2971 631.779 24.9061 663.93 24.0364C665.251 24.0364 666.572 23.819 667.453 24.9061C667.673 25.1235 668.113 25.3409 668.334 25.3409C674.279 22.5145 680.445 24.6887 686.391 24.0364C686.831 24.0364 687.272 23.819 687.712 23.6016C688.373 23.6016 689.033 23.6016 689.694 23.6016C690.355 24.2538 691.015 24.2538 691.676 24.2538C692.336 24.2538 692.997 24.2538 693.658 24.2538C700.484 24.2538 707.531 24.2538 714.357 24.2538C715.899 25.5584 717.881 24.9061 719.642 25.1235C722.065 25.1235 724.267 24.9061 726.689 25.3409C727.79 25.5584 728.671 25.3409 729.332 24.4713V24.2538C730.212 24.9061 731.534 25.1235 732.414 25.5584C732.635 25.5584 733.075 25.5584 733.295 25.5584C733.956 25.3409 734.617 25.1235 735.277 25.1235C735.057 25.1235 734.837 25.1235 734.837 25.1235C735.938 25.9932 731.974 27.0803 734.837 27.95C736.598 28.1674 736.598 27.2977 736.378 26.428H736.598C737.92 26.6455 739.241 26.6455 740.562 25.9932C740.342 26.6455 740.122 27.0803 739.902 27.7326C740.122 27.7326 740.342 27.7326 740.562 27.7326C741.223 27.2977 742.985 27.5151 741.883 25.7758C741.443 25.5584 741.223 25.3409 740.782 25.1235V24.9061C740.562 24.2538 740.122 24.0364 739.681 24.0364C739.902 23.819 739.902 23.6016 740.122 23.3842C740.342 23.6016 740.562 23.6016 740.782 23.6016C741.003 23.6016 741.223 23.6016 741.663 23.6016C742.104 23.819 742.544 24.0364 742.984 24.2538C743.425 24.9061 744.085 25.5584 744.966 25.1235C745.187 24.6887 745.407 24.2538 745.847 24.0364C745.847 24.2538 745.627 24.4713 745.627 24.6887C745.627 25.5584 745.407 26.428 745.407 27.2977C745.627 27.5151 745.847 27.95 745.847 28.1674C744.966 29.0371 743.865 28.3848 742.764 27.95C741.883 27.7326 741.223 28.1674 740.342 28.3848C739.461 28.8197 738.14 28.8197 737.479 29.4719L737.259 29.2545C736.598 28.8197 735.938 28.3848 735.057 29.0371C734.837 29.2545 734.617 29.4719 734.396 29.6893V29.9068C734.176 29.6894 733.956 29.4719 733.956 29.2545C732.414 28.8197 730.873 28.8197 729.332 29.2545C728.01 29.6893 728.23 30.7764 728.23 31.8635C728.23 32.081 728.451 32.5158 728.671 32.7332C729.111 32.9506 729.772 32.9506 730.212 32.7332C733.515 30.7764 736.158 34.2552 739.461 33.1681C739.681 32.9506 739.681 32.7332 739.461 32.5158C739.681 32.5158 739.902 32.5158 740.122 32.2984C741.883 32.2984 743.425 32.2984 745.187 32.2984C745.627 32.2984 746.067 32.2984 746.508 32.5158C746.508 32.9506 746.508 33.6029 745.847 33.8203C745.847 34.9074 746.288 34.9074 747.168 34.4726C749.37 33.1681 751.573 36.2119 753.775 34.69L753.554 34.4726C753.114 34.0377 752.674 33.6029 752.233 33.3855C752.233 33.3855 752.233 33.3855 752.013 33.3855C752.453 32.9506 752.894 32.2984 753.334 31.6461C753.775 30.9939 753.995 30.3416 753.995 29.6893C753.775 29.0371 753.775 28.3848 753.995 27.7326C753.995 27.2977 753.775 27.0803 753.554 26.6455C754.435 26.6455 755.096 27.0803 755.756 26.2106C756.637 25.3409 757.518 24.6887 758.839 24.4713C759.06 24.4713 759.06 24.2538 759.28 24.2538C759.06 24.4713 758.839 24.9061 758.839 25.3409C758.839 26.428 759.94 26.2106 760.601 26.428C761.482 27.0803 761.482 29.0371 763.464 27.95C764.124 27.5151 764.785 27.95 765.226 28.6022C765.005 28.6022 765.005 28.6023 764.785 28.8197C763.684 29.2545 761.702 28.6023 761.262 30.559C761.262 30.7765 761.262 30.9939 761.262 31.2113C761.262 31.4287 761.262 31.4287 761.262 31.6461C763.023 31.6461 764.565 31.8635 766.106 31.8635C766.547 31.6461 767.207 31.4287 767.648 31.2113C770.07 30.7764 772.272 31.8635 774.474 31.8635C774.474 31.6461 774.474 31.2113 774.694 30.9939C775.575 31.8636 777.117 32.081 778.438 32.081C778.878 32.081 779.099 32.081 779.539 32.2984C779.319 32.2984 779.099 32.2984 778.878 32.2984C778.218 32.5158 777.557 32.5158 777.117 33.1681C777.777 35.1248 779.539 34.0377 780.64 34.4726C781.081 34.9074 781.521 34.69 782.182 34.4726C783.283 33.3855 784.384 33.8203 785.705 34.0377C786.145 34.2552 786.806 34.2552 787.246 34.0377C787.467 33.8203 787.687 33.6029 788.127 33.3855C788.347 32.081 787.246 32.081 786.586 31.8635C787.687 32.081 789.008 31.8635 789.449 33.1681H790.77C790.99 33.1681 791.21 33.1681 791.21 33.1681C792.311 33.1681 793.192 32.5158 794.293 33.1681C794.073 32.5158 793.853 31.8635 793.632 31.2113C794.293 30.9939 794.293 30.559 794.293 29.9068C794.073 29.0371 793.412 28.6022 792.752 28.1674C792.972 27.95 793.192 27.95 793.632 27.7326C793.192 28.8197 794.513 29.0371 794.954 29.6893C796.495 28.6022 799.358 30.559 800.018 27.7326V27.0803C800.239 27.0803 800.459 27.0803 800.679 27.0803C801.78 28.8197 803.322 28.8197 804.863 27.7326C805.524 27.2977 805.964 26.2106 807.065 26.428C807.285 26.2106 807.285 25.9932 807.065 25.7758C806.845 25.3409 806.625 25.9932 806.845 25.5584C807.065 25.1235 807.285 25.5584 807.726 25.3409C807.946 25.3409 808.166 25.1235 808.386 24.9061C808.827 24.2538 808.827 23.6016 808.386 22.9493H809.708C809.928 23.3842 810.148 23.819 810.148 24.0364C812.13 22.5145 814.112 24.6887 816.094 24.2538C816.094 24.4713 816.094 24.6887 816.094 24.6887C814.772 24.9061 813.231 24.9061 811.91 25.1235C810.368 25.3409 811.69 26.2106 811.69 26.6455C812.13 27.0803 812.791 27.0803 813.451 27.0803C813.892 27.0803 814.332 26.8629 814.772 27.0803H814.993C814.993 27.2977 814.772 27.5151 814.772 27.7326C814.772 27.95 814.993 28.3848 815.213 28.6022C817.415 29.6893 819.617 28.6023 821.819 28.8197C823.801 29.0371 822.26 26.8629 821.819 25.5584C823.801 25.5584 825.563 24.9061 825.122 27.7326C824.902 28.6022 825.783 29.6894 827.104 28.8197C827.985 28.3848 827.104 27.0803 827.985 26.6455C829.306 26.6455 829.306 27.5151 829.306 28.3848C829.526 28.8197 829.526 29.2545 829.967 29.4719C831.068 29.2545 832.389 28.3848 833.05 30.3416C833.27 30.7764 833.931 30.1242 834.151 29.6893C835.032 29.6893 835.913 29.6894 836.793 29.4719C836.353 28.6023 836.353 27.95 837.674 28.1674C839.876 32.081 840.097 28.3848 840.977 27.5151H841.198C842.078 26.6455 841.198 25.9932 840.537 25.5584C840.537 24.9061 840.757 24.4713 840.977 24.2538C841.198 24.2538 841.198 24.2538 841.418 24.4713C843.4 25.3409 844.721 24.9061 845.382 23.819C847.804 24.2538 850.006 24.0364 852.208 23.6016C852.869 24.0364 853.749 24.2538 854.19 23.6016C854.85 23.6016 855.511 23.3842 855.952 22.9493C857.273 22.9493 858.594 22.9493 859.915 22.9493H860.135C860.576 24.0364 861.457 24.4713 863.439 22.7319C863.879 22.7319 864.099 22.9493 864.54 22.9493C864.76 23.1667 864.76 23.1667 864.98 23.1667C865.2 23.3842 865.421 23.819 865.641 24.0364C866.081 23.819 866.522 23.819 866.962 23.6016C867.402 23.819 867.623 24.0364 867.843 24.6887C868.063 26.2106 869.604 25.9932 870.706 26.6455C871.807 26.6455 873.128 26.6455 874.229 26.8629C875.77 27.5151 876.431 26.6455 876.871 25.5584C877.752 25.3409 878.633 25.7758 879.294 26.2106C879.734 26.428 880.175 26.6455 880.615 26.428C881.276 25.9932 881.496 25.3409 881.716 24.6887C882.156 25.1235 882.817 25.3409 883.257 25.1235C886.12 24.4713 885.019 26.2106 884.799 27.2977C884.799 27.2977 885.019 27.5151 885.019 27.7326C885.46 27.95 885.9 27.95 886.561 27.95C886.781 27.7326 887.001 27.5151 887.221 27.2977C887.662 26.8629 887.662 26.2106 887.662 25.5584C888.542 25.7758 888.983 26.428 889.864 26.6455C890.084 25.7758 890.304 24.9061 890.304 24.2538C890.304 24.0364 890.304 23.819 890.304 23.819C891.625 23.819 892.947 23.819 894.488 23.819C895.589 24.0364 896.69 24.2538 897.791 23.819C898.452 23.819 898.892 23.6016 899.333 23.1667C899.993 22.7319 900.874 22.0796 901.315 22.0796C901.755 22.0796 901.975 22.5145 901.975 23.819C901.975 23.819 901.975 24.0364 901.755 24.0364C901.755 24.6887 901.975 24.9061 902.636 24.6887C906.379 24.2538 910.123 23.819 913.866 24.6887C914.307 24.9061 914.747 25.1235 915.408 25.1235C916.289 24.9061 917.17 24.6887 917.83 24.2538C918.05 24.2538 918.05 24.2538 918.271 24.2538C918.711 24.2538 919.372 24.2538 919.592 23.819C919.812 23.819 920.253 23.819 920.693 23.819C920.913 24.2538 921.354 24.4713 921.794 24.2538C922.455 24.0364 922.455 23.6016 922.014 22.9493C922.014 22.7319 921.794 22.5145 921.794 22.5145C922.895 21.6448 923.996 22.2971 925.097 23.6016C925.097 23.6016 925.538 23.3842 925.978 23.1667C926.198 23.1667 926.418 23.1667 926.859 23.1667C927.96 23.1667 929.061 23.3842 929.942 22.7319C930.823 22.7319 931.703 22.5145 932.584 22.5145C933.025 22.7319 933.465 23.1667 934.126 23.3842C934.126 23.3842 934.126 23.3842 934.346 23.6016C934.346 23.6016 934.346 23.6016 934.566 23.3842V23.6016C935.007 24.6887 934.346 25.7758 935.006 26.8629C935.006 27.0803 935.006 27.2977 935.006 27.2977C934.786 27.5151 934.566 27.7326 934.126 27.95C933.245 27.95 932.364 28.6022 931.483 28.6022C932.804 25.3409 932.804 25.1235 929.942 25.1235C929.501 25.7758 929.501 26.6455 929.061 27.2977C929.061 27.2977 928.841 27.0803 928.62 27.0803C928.62 26.8629 928.62 26.6455 928.62 26.6455C926.198 25.9932 924.436 26.2106 925.317 29.2545L925.537 29.4719C925.537 29.4719 925.758 29.4719 925.758 29.2545C925.978 29.2545 926.198 29.2545 926.418 29.2545C926.639 29.4719 926.859 29.6894 927.299 29.9068C926.859 30.3416 926.418 30.3416 925.978 30.3416C924.436 30.3416 923.556 32.081 921.794 31.6461C920.913 31.6461 920.473 32.081 920.032 32.5158C920.032 32.2984 920.032 32.2984 920.032 32.081C919.812 31.6461 919.372 31.2113 918.711 31.2113C918.491 31.4287 918.271 31.6461 918.05 31.8635C918.05 31.8635 918.05 31.6461 917.83 31.6461C914.967 30.9939 912.325 31.4287 909.462 31.8635C909.903 30.7764 909.242 30.1242 908.361 29.6893C908.141 29.6893 907.921 29.6893 907.701 29.6893C907.48 29.0371 907.48 28.6023 907.921 27.95C908.361 27.2977 908.361 26.6455 907.48 26.428C905.498 25.9932 906.379 27.95 905.719 28.6022C905.058 29.4719 905.499 29.9068 905.939 30.559C905.719 30.559 905.498 30.7764 905.278 30.7764C904.177 31.2113 903.076 30.7765 902.195 30.9939C901.755 30.9939 901.755 31.2113 901.535 31.6461C901.535 31.6461 901.535 31.6461 901.315 31.6461V31.4287C900.874 30.9939 900.434 30.7765 899.773 30.559C898.892 30.3416 898.011 29.9068 897.131 29.6893C896.69 29.4719 896.25 29.4719 895.589 29.6893C895.369 29.6893 895.369 29.6894 895.149 29.9068C894.929 29.6894 894.708 29.6893 894.488 29.6893C893.607 29.6893 892.506 28.6023 892.066 29.4719C891.185 31.2113 893.607 30.1242 894.048 30.9939C893.607 31.4287 893.167 31.6461 892.286 30.9939C889.203 27.5152 888.322 27.2977 885.68 29.2545C885.459 29.4719 885.459 29.9068 885.459 30.1242C884.799 30.559 885.68 30.9939 885.68 31.2113C886.12 31.2113 886.34 31.2113 886.781 31.2113C886.781 30.9939 886.781 30.9939 887.001 30.7764C888.322 31.8635 889.643 32.7332 891.405 33.1681C892.286 33.3855 893.167 33.6029 894.048 33.8203C894.268 34.0377 894.488 34.0377 894.928 34.0377C895.369 33.8203 895.809 33.8203 896.03 33.8203C895.809 34.0377 895.589 34.2552 895.369 34.4726C895.369 35.3423 896.03 35.7771 896.69 35.7771C897.351 35.3423 898.232 34.9074 898.892 34.4726C900.874 33.3855 902.856 33.6029 904.838 34.2552C906.159 34.69 907.701 34.9074 908.802 33.3855C909.682 34.4726 911.224 34.69 912.545 35.1248C914.087 34.2552 915.188 33.6029 916.949 35.3423C918.05 36.4294 919.372 34.9074 920.693 34.2552C920.913 34.2552 921.133 34.0377 921.354 34.0377C922.014 33.3855 922.675 34.4726 923.556 34.2552C924.657 35.1248 925.537 33.6029 926.418 34.2552C926.639 34.2552 926.859 34.2552 926.859 34.2552C927.299 34.4726 927.96 34.69 928.4 34.69C928.62 34.69 928.841 34.69 929.281 34.69H931.043V34.9074C931.043 35.5597 931.263 36.4294 932.364 36.2119C933.245 35.9945 933.685 36.4294 934.346 36.6468C934.786 37.0816 935.227 37.0816 935.667 36.6468C936.108 35.9945 935.447 34.69 936.548 34.2552C936.768 34.2552 936.988 34.2552 937.209 34.0377C938.31 34.0377 939.631 34.0377 940.512 33.3855C940.952 34.0377 941.613 34.69 942.273 34.69H942.494C942.934 34.2552 943.595 34.69 944.035 34.0377C944.255 34.0377 944.255 33.8203 944.255 33.6029C945.356 33.6029 946.457 33.3855 947.558 33.8203C947.779 33.8203 947.999 33.8203 948.219 33.8203C948.439 33.3855 948.659 33.1681 948.88 32.9506C949.1 33.1681 949.54 33.3855 949.981 33.1681C950.201 32.7332 950.421 32.5158 950.421 32.081C950.862 31.8635 951.082 31.6461 951.522 31.4287C951.963 31.6461 952.183 31.6461 952.623 31.6461C952.843 31.6461 953.284 31.6461 953.504 31.2113C953.944 30.3416 955.266 30.3416 955.486 28.8197C955.486 28.8197 955.486 29.0371 955.706 29.0371C956.367 29.2545 957.248 29.2545 957.688 28.6022C957.468 28.1674 957.248 27.7326 957.027 27.2977C956.807 27.2977 956.807 27.2977 956.587 27.2977C957.027 26.8629 957.908 26.8629 958.789 26.8629C960.551 27.0803 962.533 27.2977 961.431 24.4713C960.991 24.2538 960.991 23.819 961.211 23.6016C962.092 23.6016 962.973 23.6016 963.854 23.3842C963.854 23.6016 964.074 23.819 964.074 23.819C966.276 24.0364 968.698 23.3842 970.46 25.1235C970.24 25.3409 970.02 25.5584 969.579 25.5584C967.377 25.9932 964.955 26.6455 962.753 26.6455C962.753 27.0803 962.753 27.5151 962.753 27.95H962.533C960.991 27.7326 960.551 28.8197 960.11 29.9068C959.67 30.559 958.349 30.559 958.789 31.6461C959.89 32.2984 960.991 32.2984 962.312 32.2984C962.973 32.9506 964.074 32.9506 964.955 32.9506C965.836 32.9506 966.717 33.1681 967.377 34.2552C968.919 34.4726 970.24 35.7771 971.781 34.2552C972.002 33.3855 971.561 32.081 973.103 31.6461V31.4287H974.204C974.204 30.559 973.323 30.1242 972.882 29.4719C973.323 28.6023 973.983 28.1674 975.084 28.1674C975.745 29.2545 976.406 30.3416 977.066 31.4287C977.727 31.2113 978.388 30.9939 979.048 30.9939C979.489 32.7332 980.81 33.1681 982.351 33.6029C982.572 33.8203 982.572 34.0377 982.572 34.2552C983.673 34.69 983.893 36.4294 985.434 36.2119C985.434 35.7771 985.434 35.3423 985.434 34.9074C984.774 34.4726 984.113 34.0377 983.452 33.6029H983.232C983.452 33.1681 983.012 32.7332 982.792 32.2984C983.232 33.1681 984.113 33.6029 985.214 33.6029C987.636 33.8203 989.618 31.6461 992.261 32.081C993.802 32.5158 995.124 32.5158 995.344 30.559C995.344 29.2545 993.802 28.8197 992.701 29.0371C990.279 29.4719 988.297 28.3848 985.875 28.3848C985.655 28.6023 985.434 28.6023 984.994 28.8197C984.113 28.6023 983.012 28.3848 982.131 28.1674C981.911 27.95 981.691 27.7326 981.471 27.5151V26.8629C978.608 27.0803 975.965 27.2977 973.103 27.5151C972.442 26.8629 971.561 26.2106 970.901 25.5584C971.121 23.3842 972.882 24.2538 974.204 24.2538C986.756 24.2538 999.307 24.2538 1011.86 24.2538C1011.64 25.7758 1013.18 26.428 1014.28 26.8629C1014.94 27.0803 1015.82 27.5151 1016.48 27.7326C1015.82 27.7326 1015.38 27.7326 1014.72 27.7326C1014.06 28.1674 1013.18 28.6023 1012.52 29.0371C1013.62 29.0371 1014.94 29.0371 1016.04 29.0371C1016.48 29.2545 1016.92 29.2545 1017.36 29.0371C1018.47 29.9068 1020.23 29.4719 1021.33 30.3416C1022.87 30.9939 1024.19 32.081 1025.95 30.9939C1026.39 30.9939 1026.83 30.7764 1027.49 30.7764C1032.78 32.7332 1038.06 33.1681 1043.79 32.9506C1044.01 32.9506 1044.23 33.1681 1044.45 33.1681C1045.55 34.0377 1046.87 32.9506 1047.97 33.6029C1049.29 33.8203 1050.84 34.0377 1052.16 34.2552C1052.82 35.3423 1053.26 35.7771 1053.7 35.7771C1054.58 35.7771 1055.02 34.0377 1055.68 33.6029C1056.56 34.0377 1057.44 34.69 1058.32 35.1248C1058.32 35.1248 1058.54 35.1248 1058.54 34.9074L1058.32 35.1248C1058.32 35.3423 1058.32 35.5597 1058.54 35.5597C1059.64 35.5597 1060.75 34.69 1062.07 35.1248C1063.61 35.9945 1065.37 35.5597 1066.91 35.7771V35.5597C1066.91 35.5597 1066.91 35.7771 1066.69 35.7771C1068.45 36.8642 1069.99 37.0816 1071.1 35.1248C1071.98 36.2119 1072.64 37.299 1074.18 36.6468C1074.18 37.0816 1074.4 37.299 1074.62 37.7339C1074.84 37.7339 1075.06 37.7339 1075.28 37.9513C1075.94 38.3861 1076.6 38.3861 1077.48 37.9513C1077.48 37.9513 1077.7 37.9513 1077.92 37.7339C1078.36 38.1687 1079.24 38.1687 1079.68 38.3861C1081 38.3861 1082.55 38.6036 1083.87 38.3861C1085.41 38.1687 1085.19 37.5165 1084.09 36.8642C1083.87 36.8642 1083.87 36.8642 1083.65 36.8642C1083.43 36.8642 1083.43 36.8642 1083.21 36.8642C1082.99 36.8642 1082.77 36.6468 1082.55 36.2119H1081.22C1080.78 35.9945 1080.12 35.7771 1079.68 35.5597C1078.14 34.9074 1076.6 34.69 1075.06 34.4726C1073.52 34.2552 1071.98 33.8203 1070.43 32.9506C1070.87 31.8635 1072.2 32.5158 1072.86 31.8635C1073.96 30.559 1069.33 32.2984 1071.98 30.3416C1073.08 30.559 1074.18 30.1242 1075.06 31.6461C1075.94 33.6029 1077.7 34.0377 1079.9 32.9506C1077.04 32.9506 1076.16 30.7765 1074.84 29.0371C1075.28 28.3848 1075.5 27.95 1075.5 27.7326C1075.5 26.6455 1072.86 27.2977 1072.86 26.428C1073.74 26.428 1074.18 25.9932 1074.18 25.3409C1074.18 25.1235 1074.18 25.1235 1074.18 24.9061C1073.96 24.2538 1073.3 23.819 1073.08 23.1667C1073.96 23.3842 1075.06 23.1667 1075.94 23.1667C1076.16 23.1667 1076.38 23.3842 1076.38 23.3842C1076.38 23.3842 1076.38 23.3842 1076.38 23.1667C1076.82 23.1667 1077.26 23.1667 1077.48 22.9493L1077.7 22.7319C1077.48 22.9493 1077.26 23.1667 1077.26 23.3842C1078.8 24.6887 1080.34 25.1235 1081.67 24.9061L1081.89 25.1235C1082.99 25.9932 1084.31 26.6455 1085.85 25.5584C1087.17 24.6887 1088.93 25.5584 1090.69 24.9061C1091.79 24.4713 1089.81 27.0803 1091.79 27.2977C1094 26.8629 1091.57 24.6887 1092.9 23.819C1093.34 25.1235 1094.22 25.3409 1095.1 25.3409C1096.2 25.3409 1097.3 25.1235 1097.96 25.7758C1098.4 26.2106 1098.84 26.6455 1099.28 27.0803C1099.28 27.7326 1099.5 27.95 1099.94 28.3848C1099.94 28.8197 1099.28 29.6894 1100.16 29.4719C1101.04 29.2545 1102.81 29.4719 1102.81 28.6022C1102.59 25.9932 1105.01 25.5584 1106.33 24.4713C1106.33 24.9061 1106.33 25.3409 1106.33 25.7758C1106.33 25.9932 1106.11 26.2106 1106.11 26.2106C1106.11 27.5151 1107.87 28.3848 1106.99 29.6893C1107.87 29.6893 1108.75 29.6894 1109.85 29.4719C1110.51 29.2545 1111.17 29.0371 1112.05 28.8197C1113.38 29.0371 1114.48 28.8197 1115.58 28.1674C1118.44 28.1674 1121.3 28.6022 1124.17 27.7326C1124.39 27.7326 1124.61 27.5151 1124.83 27.5151C1128.13 27.5151 1131.21 27.2977 1134.52 26.6455C1133.41 26.2106 1132.53 25.9932 1131.43 25.9932C1131.65 25.7758 1131.65 25.3409 1131.87 24.9061C1131.87 24.2538 1131.65 23.3842 1130.99 23.3842C1128.79 23.6016 1127.69 22.9493 1127.25 22.2971C1127.47 22.2971 1127.91 22.2971 1128.13 22.0796C1128.35 22.2971 1128.57 22.5145 1128.79 22.7319C1130.33 23.6016 1132.31 23.6016 1134.07 22.7319C1135.18 22.2971 1135.18 21.6448 1134.3 21.21C1136.94 21.6448 1139.36 20.9925 1142 20.5577C1142.44 21.21 1143.1 21.6448 1143.76 21.8622C1143.98 21.8622 1144.2 21.8622 1144.42 21.6448C1145.97 22.2971 1147.95 21.8622 1148.61 23.819C1149.05 24.0364 1149.49 23.819 1150.15 23.819C1150.81 23.3842 1151.25 22.9493 1151.25 22.2971C1151.03 21.4274 1150.37 20.3403 1151.47 19.4706C1152.13 19.2532 1152.79 19.688 1153.45 19.2532C1153.67 20.5577 1152.35 22.9493 1155.88 22.2971V22.0796C1156.54 23.1667 1156.98 24.4713 1158.52 24.4713C1158.74 24.4713 1158.74 24.4713 1158.96 24.4713C1159.84 24.2538 1161.16 24.0364 1161.38 25.1235C1161.6 26.428 1161.6 27.7326 1159.84 27.95C1156.98 28.3848 1157.86 25.3409 1156.1 24.6887C1154.99 24.4713 1154.11 24.4713 1153.01 24.9061C1151.69 26.2106 1152.57 27.0803 1153.67 27.7326C1151.91 27.5151 1151.25 28.1674 1152.13 29.9068C1153.67 29.6894 1154.99 30.3416 1156.76 29.9068C1158.08 29.4719 1158.96 30.3416 1159.4 31.6461C1159.62 32.9506 1160.94 33.1681 1162.04 33.3855C1164.24 34.0377 1164.68 33.1681 1164.24 31.6461C1163.8 30.3416 1163.14 28.6023 1164.9 28.3848C1166.67 27.95 1166.89 29.6894 1167.11 30.9939C1167.33 32.5158 1170.19 31.8635 1169.53 33.8203C1169.75 34.0377 1170.19 34.0377 1170.41 34.0377C1170.85 33.6029 1171.73 33.3855 1172.39 33.8203C1172.83 34.0377 1173.27 34.2552 1173.71 33.8203C1174.59 33.3855 1174.37 32.5158 1174.59 31.8635C1174.59 30.559 1172.61 29.9068 1173.49 28.6022C1172.83 26.428 1171.29 26.428 1169.31 26.428C1173.05 25.9932 1173.27 25.7758 1171.51 22.0796C1171.29 21.4274 1170.85 20.5577 1170.41 19.9054C1170.85 19.9054 1171.29 19.9054 1171.73 20.1229C1172.61 20.3403 1173.27 20.9925 1174.15 20.9925C1175.69 20.1229 1177.46 21.21 1179 20.7751C1179.44 20.7751 1179.88 20.7751 1180.32 20.7751C1181.86 20.1229 1182.52 21.6448 1183.84 21.6448C1185.6 21.21 1184.94 19.4706 1185.6 18.6009C1186.04 18.6009 1186.26 19.0358 1186.7 19.2532C1186.92 19.4706 1187.15 19.688 1187.37 19.688C1187.81 19.9054 1188.47 20.1229 1189.13 20.3403C1190.01 20.3403 1190.67 20.1229 1191.33 19.688C1191.33 19.688 1191.33 19.688 1191.55 19.4706C1191.99 19.688 1192.65 19.9054 1193.09 19.9054V20.1229C1193.53 20.3403 1193.97 20.3403 1194.41 20.1229C1195.29 19.688 1196.17 19.2532 1196.83 18.3835C1196.83 18.1661 1196.83 17.9487 1196.83 17.7312C1197.27 17.9487 1197.49 17.9487 1197.72 18.1661C1199.92 20.1229 1202.34 21.21 1204.76 18.1661C1204.98 17.9487 1205.42 18.3835 1205.64 18.6009C1205.86 18.6009 1206.08 18.6009 1206.08 18.8183C1206.96 19.688 1207.62 20.7751 1209.17 18.8183C1209.61 18.1661 1211.37 18.6009 1212.47 18.3835C1212.69 18.3835 1212.69 18.3835 1212.91 18.3835C1214.01 19.2532 1215.55 19.4706 1216.87 19.688C1217.97 19.9054 1218.63 18.3835 1219.74 19.0358C1219.74 19.2532 1219.52 19.2532 1219.52 19.4706C1219.08 21.4274 1221.72 22.5145 1221.06 24.6887C1220.84 25.7758 1222.82 25.7758 1223.92 25.5584C1225.02 25.3409 1224.8 24.6887 1224.36 24.2538C1225.68 25.5584 1227.22 26.428 1228.98 25.3409C1230.53 24.4713 1229.21 23.1667 1229.21 21.8622C1231.19 23.1667 1233.61 23.6016 1235.81 24.6887C1239.11 26.428 1238.67 23.3842 1239.33 21.8622C1239.11 21.4274 1238.67 21.21 1238.23 21.21C1238.89 20.9925 1239.33 21.4274 1239.55 21.8622C1240 22.7319 1239.33 24.2538 1240.88 24.4713C1242.2 24.6887 1242.64 23.1667 1243.3 22.5145C1243.96 21.8622 1244.84 22.0796 1245.72 22.0796C1245.94 22.0796 1246.38 22.0796 1246.6 22.0796C1249.9 22.2971 1252.99 23.3842 1256.29 22.2971C1257.17 22.0796 1257.61 22.5145 1258.05 22.9493C1258.71 23.3842 1259.15 23.1667 1259.81 22.9493C1261.58 22.0796 1262.9 23.3842 1264.44 24.0364C1264.88 24.0364 1265.32 23.819 1265.76 23.3842C1266.2 22.9493 1266.2 22.2971 1266.2 21.8622C1267.96 22.2971 1269.5 22.5145 1268.62 25.1235C1268.18 26.8629 1269.94 27.2977 1271.26 27.5151C1272.81 27.7326 1274.57 27.95 1275.89 26.8629C1276.33 26.428 1275.89 25.5584 1275.45 25.1235C1274.79 24.4713 1273.69 24.6887 1273.03 23.819C1273.91 23.3842 1275.01 24.6887 1275.45 23.6016C1275.89 22.7319 1275.45 21.6448 1274.79 20.9925C1275.67 21.21 1276.55 21.4274 1277.43 21.21C1277.21 21.4274 1276.99 21.4274 1276.77 21.6448C1276.77 21.8622 1276.55 22.0796 1276.55 22.2971C1276.55 22.9493 1276.99 23.819 1277.65 23.819C1280.29 23.819 1281.39 26.8629 1284.04 26.428C1286.02 26.2106 1285.8 23.819 1287.12 22.7319V22.5145H1287.34C1287.34 24.4713 1286.46 25.9932 1284.26 26.6455C1283.16 27.0803 1282.72 27.5151 1283.38 28.6022C1285.58 29.0371 1287.78 29.4719 1289.98 29.2545C1288.88 29.6893 1287.78 29.2545 1286.46 29.2545C1285.58 29.2545 1284.04 29.4719 1285.36 30.9939C1289.1 31.8636 1292.63 31.6461 1296.37 30.7764C1296.81 30.7764 1297.47 30.559 1297.91 30.3416C1299.01 28.3848 1301.43 29.2545 1302.75 28.1674C1303.2 28.1674 1303.64 28.1674 1304.08 28.3848C1304.96 28.6023 1305.84 29.0371 1306.5 29.4719C1307.16 29.6894 1308.04 29.9068 1308.7 30.3416C1309.36 30.559 1309.8 30.7764 1310.46 30.7764C1310.9 30.559 1311.34 30.3416 1311.34 29.6893C1311.34 29.2545 1311.34 28.8197 1311.34 28.3848C1310.68 26.6455 1313.77 25.9932 1312.66 24.0364C1312.66 24.0364 1312.88 24.0364 1313.1 24.0364C1317.51 25.5584 1321.69 23.6016 1326.1 24.0364C1328.08 24.2538 1330.06 22.7319 1330.5 21.21C1331.16 21.6448 1331.38 22.2971 1332.26 22.7319C1333.14 22.9493 1333.58 22.5145 1334.02 21.8622C1334.02 21.6448 1334.02 21.6448 1334.02 21.4274C1334.46 22.0796 1334.91 22.9493 1336.01 23.1667C1337.77 22.9493 1339.31 22.5145 1340.85 23.6016C1343.93 22.7319 1347.02 23.1667 1350.32 23.3842C1351.64 22.9493 1352.96 23.1667 1354.06 24.0364C1357.37 23.819 1359.35 22.5145 1360.23 19.688C1360.89 19.9054 1361.33 20.1229 1361.99 20.3403C1363.31 20.1229 1364.63 19.4706 1366.17 19.4706C1367.5 19.0358 1369.04 19.0358 1370.36 19.2532C1370.8 19.2532 1371.02 19.2532 1371.24 19.2532C1374.1 18.8183 1376.97 18.6009 1379.17 20.9925C1379.83 21.4274 1380.71 21.6448 1381.59 21.6448C1382.47 21.6448 1383.57 22.0796 1384.01 20.7751C1384.23 19.688 1383.35 19.4706 1382.47 19.0358C1384.45 20.1229 1386.87 17.2964 1388.42 20.1229C1389.08 20.9925 1389.74 20.5577 1390.4 20.1229C1392.38 20.5577 1391.94 18.3835 1393.04 18.1661C1393.7 17.5138 1394.8 17.7312 1395.68 17.2964C1399.87 17.2964 1404.05 18.1661 1408.46 17.2964C1408.9 17.2964 1409.12 16.8616 1409.34 16.6441H1410C1410.22 17.9487 1410.88 18.3835 1412.2 17.2964C1412.42 17.079 1412.42 17.079 1412.64 16.8616C1413.96 20.5577 1417.26 20.9925 1420.57 20.5577C1421.01 19.688 1424.53 17.7312 1425.63 17.2964C1427.17 16.8616 1427.61 19.4706 1429.15 17.9487C1430.26 19.4706 1426.95 19.0358 1428.27 20.1229C1429.15 20.7751 1430.7 20.7751 1431.58 19.4706C1433.12 16.8616 1435.54 17.2964 1437.96 17.7312C1438.4 17.7312 1438.84 18.1661 1439.06 18.1661C1439.94 15.3396 1442.59 18.3835 1443.91 17.079C1444.13 16.6441 1444.57 16.2093 1444.79 15.557C1442.59 15.1222 1440.17 15.557 1438.18 14.4699C1439.28 13.1654 1440.61 12.948 1442.15 13.3828C1443.03 13.6002 1444.79 13.8177 1443.91 11.8609V11.2086C1445.67 11.426 1447.21 12.5132 1448.75 13.1654H1449.41C1450.74 14.9048 1451.84 14.0351 1453.16 13.3828C1453.38 13.3828 1453.6 13.1654 1453.82 13.1654C1454.48 12.5132 1455.14 11.6435 1456.24 10.5564C1456.02 12.948 1456.9 12.948 1458.66 12.5132C1460.64 12.0783 1462.41 12.7306 1463.95 13.6002V13.8177C1464.17 14.6873 1464.61 15.3396 1465.27 15.7745C1463.95 15.7745 1461.75 14.6874 1462.19 17.7312C1462.41 18.8183 1462.19 19.9054 1463.07 20.7751C1463.51 20.9925 1463.95 20.7751 1464.39 20.5577C1465.05 19.9054 1465.05 18.6009 1466.59 19.2532C1468.57 20.1229 1470.55 19.688 1472.76 19.688C1475.18 18.8183 1477.6 17.5138 1480.46 19.688C1481.78 20.7751 1482 17.9487 1483.55 17.9487V16.6441C1484.65 16.6441 1485.97 16.8616 1486.85 17.5138C1487.07 17.5138 1487.29 17.7312 1487.29 17.7312C1487.95 18.1661 1489.27 17.7312 1489.71 18.6009C1489.93 18.8183 1490.15 18.8183 1490.37 18.6009C1490.59 18.1661 1490.81 17.7312 1490.59 17.2964C1491.03 17.2964 1491.47 17.2964 1491.69 17.5138C1491.91 17.5138 1491.91 17.5138 1492.13 17.5138C1492.13 17.5138 1492.13 17.7312 1492.35 17.7312C1493.9 17.9487 1495.44 17.9487 1496.76 18.3835C1498.08 18.8183 1497.86 20.7751 1499.84 20.9925C1499.84 19.688 1498.08 18.8183 1498.74 17.5138H1499.4C1499.84 17.9487 1500.06 18.6009 1500.72 18.1661C1501.16 17.5138 1501.6 17.5138 1502.04 18.1661C1502.48 18.6009 1502.92 18.6009 1503.59 18.1661C1505.57 16.8616 1507.77 18.1661 1509.97 17.5138C1509.97 19.9054 1510.85 20.9925 1513.49 19.9054C1513.05 19.2532 1511.29 19.688 1511.51 18.3835C1511.51 17.9487 1511.95 17.5138 1512.17 17.2964C1513.27 16.6441 1513.71 17.7312 1514.38 18.3835C1514.6 18.6009 1515.26 18.8183 1515.7 18.8183C1516.14 18.1661 1517.02 17.7312 1517.9 17.5138C1517.9 17.5138 1517.9 17.5138 1517.9 17.7312C1517.9 20.3403 1519.44 22.2971 1520.98 24.2538C1522.52 23.6016 1524.06 22.0796 1525.83 24.2538C1526.27 24.9061 1527.15 24.0364 1527.37 23.1667C1527.59 22.5145 1527.81 23.3842 1528.03 23.6016C1528.69 24.0364 1529.35 24.6887 1530.23 24.0364C1531.77 23.1667 1531.55 22.0796 1531.11 20.5577C1530.67 19.4706 1528.69 18.8183 1530.01 17.079C1530.01 17.079 1530.01 17.079 1530.01 16.8616C1530.89 17.9487 1532.21 18.8183 1533.53 19.4706C1532.87 19.4706 1532.21 19.4706 1532.21 20.3403C1532.43 21.21 1532.43 22.7319 1533.97 22.7319C1534.19 22.7319 1534.19 22.7319 1534.41 22.7319C1536.4 21.6448 1537.94 22.5145 1539.26 24.0364C1539.92 24.6887 1540.58 24.6887 1541.24 24.2538C1541.68 23.6016 1541.9 22.9493 1542.56 22.2971C1542.78 22.0796 1543.22 22.0796 1543.44 22.2971C1543.88 23.6016 1543 24.0364 1541.9 24.4713C1541.46 24.9061 1541.24 25.1235 1541.46 25.7758C1543.44 27.2977 1544.98 26.8629 1546.75 25.3409C1547.19 24.2538 1546.75 23.3842 1546.53 22.5145V22.0796C1547.41 21.8622 1548.07 21.6448 1548.73 20.9925C1550.49 22.9493 1548.51 23.819 1547.19 24.6887C1548.29 27.0803 1549.61 24.6887 1550.71 24.6887C1552.47 24.4713 1551.15 23.6016 1550.93 23.1667C1550.27 21.6448 1551.15 20.9925 1552.03 20.1229H1552.47C1552.69 20.3403 1553.13 20.3403 1553.35 20.3403C1554.45 20.1229 1554.89 19.2532 1555.33 18.3835C1555.77 18.8183 1556.22 19.0358 1556.88 18.6009C1557.32 17.9487 1557.76 17.9487 1558.2 18.6009C1558.42 20.3403 1559.96 19.688 1561.06 19.9054C1563.04 19.4706 1563.7 20.5577 1564.58 21.8622C1565.02 20.3403 1566.56 21.21 1567.45 20.7751C1568.11 20.5577 1567.89 18.6009 1569.43 19.9054C1570.31 20.5577 1571.41 20.1229 1572.29 19.2532V19.0358C1572.29 19.0358 1572.29 19.2532 1572.51 19.2532C1572.73 19.2532 1572.73 19.4706 1572.95 19.4706C1574.27 19.4706 1575.37 19.2532 1575.59 17.9487C1577.36 19.0358 1578.68 20.5577 1581.1 20.5577C1583.52 20.3403 1584.4 19.9054 1585.72 17.5138C1587.48 17.9487 1585.28 23.1667 1589.47 20.3403V22.5145C1589.69 22.7319 1589.91 22.7319 1590.13 22.5145C1590.35 22.2971 1590.57 22.0796 1590.79 21.8622C1592.11 21.4274 1593.21 21.21 1592.99 23.1667C1592.77 23.6016 1592.55 24.0364 1592.33 24.4713C1591.23 26.428 1593.21 26.2106 1594.31 26.6455C1595.63 27.0803 1596.95 27.5151 1598.5 27.2977C1598.27 28.3848 1596.95 29.4719 1598.05 30.3416C1598.5 31.4287 1599.6 32.081 1600.26 32.9506C1599.82 33.6029 1598.72 34.0377 1599.6 34.9074C1600.26 34.69 1600.92 34.4726 1601.8 34.2552C1602.46 33.1681 1600.7 32.081 1602.46 30.9939C1603.12 30.7765 1602.46 28.3848 1601.58 28.1674C1600.04 27.7326 1599.38 27.0803 1600.48 25.9932C1601.58 24.9061 1602.9 24.6887 1603.56 26.6455C1603.56 26.8629 1604.22 26.8629 1604.44 26.8629C1605.1 26.6455 1605.76 27.2977 1606.64 26.8629C1606.86 26.2106 1607.08 25.5584 1607.3 24.9061C1607.74 24.4713 1607.96 23.819 1607.96 23.3842C1608.4 24.0364 1608.62 25.1235 1609.51 25.5584C1609.73 25.7758 1609.95 25.7758 1610.39 25.7758C1611.71 25.7758 1611.93 23.819 1613.03 23.6016C1613.47 22.7319 1614.57 23.3842 1615.23 22.9493C1617.65 21.4274 1617.21 19.2532 1617.43 17.079C1616.99 16.2093 1616.33 15.557 1615.23 15.1222C1615.23 14.9048 1615.23 14.6874 1615.01 14.4699C1614.57 13.8177 1613.91 12.948 1613.03 12.7306C1612.81 12.7306 1612.59 13.1654 1612.59 13.3828C1612.59 14.4699 1614.13 14.0351 1614.57 14.9048C1613.47 14.9048 1612.59 14.9048 1612.37 16.2093C1611.93 15.557 1611.49 14.9048 1611.05 14.2525C1611.05 14.0351 1611.05 14.0351 1611.05 13.8177C1611.05 12.7306 1611.93 11.8609 1612.37 11.2086C1612.59 11.2086 1612.81 11.2086 1613.03 11.2086C1613.91 12.7306 1615.23 13.8177 1616.99 14.2525C1617.21 14.2525 1617.21 14.2525 1617.43 14.2525C1617.65 15.3396 1618.53 15.9919 1619.19 16.8616C1619.19 17.079 1619.19 17.079 1618.97 17.2964C1617.43 19.9054 1617.65 22.2971 1619.86 24.4713C1620.74 24.9061 1621.18 25.5584 1621.4 26.428C1621.62 27.0803 1622.06 28.1674 1622.5 27.95C1626.68 26.428 1625.36 29.9068 1626.24 31.4287C1626.46 32.081 1626.9 32.5158 1627.78 32.7332C1628.66 32.7332 1628.88 32.081 1629.1 31.6461C1629.76 29.6893 1628.88 27.7326 1628.44 25.9932C1628.22 25.3409 1628.66 24.9061 1629.1 24.4713C1629.1 24.4713 1629.32 24.6887 1629.54 24.6887C1630.21 24.9061 1630.65 24.6887 1631.09 24.2538C1631.31 24.0364 1631.53 23.819 1631.53 23.6016C1632.85 23.1667 1633.73 23.819 1634.61 24.2538L1634.83 24.4713C1634.83 24.6887 1634.83 24.6887 1634.61 24.6887C1633.73 26.2106 1633.73 27.7326 1635.71 28.6022C1637.03 29.2545 1637.47 30.3416 1638.57 30.9939C1639.01 31.4287 1639.67 31.8635 1640.33 31.4287C1640.78 30.9939 1640.78 30.559 1640.78 30.1242C1640.78 29.4719 1640.33 29.0371 1640.11 28.3848C1640.55 27.2977 1638.57 26.2106 1640.33 25.3409C1640.55 25.7758 1640.78 26.2106 1641.22 26.6455C1642.1 27.0803 1642.54 28.6023 1644.08 27.95C1645.4 27.0803 1644.74 25.9932 1644.52 24.9061C1645.18 26.6455 1646.28 27.5151 1648.26 26.8629C1648.92 26.428 1648.7 27.0803 1648.7 27.2977C1650.24 28.3848 1651.79 27.95 1653.33 27.7326C1655.53 27.2977 1657.73 26.8629 1659.93 27.5151C1661.03 27.95 1661.7 27.2977 1662.14 26.428C1662.14 27.5151 1661.47 28.1674 1659.93 27.95C1659.71 29.0371 1660.59 29.0371 1661.25 29.2545C1663.9 30.9939 1666.98 29.2545 1669.62 30.1242C1669.84 30.1242 1670.06 29.9068 1670.28 29.6893C1673.15 27.2977 1674.47 26.8629 1679.09 26.428C1679.75 26.6455 1680.63 26.428 1681.29 27.0803C1681.73 26.8629 1682.17 26.6455 1682.84 26.428C1683.94 25.1235 1682.61 23.6016 1682.84 22.2971C1683.06 23.1667 1683.28 24.0364 1684.6 24.2538C1686.14 24.4713 1686.8 23.6016 1687.68 22.5145C1688.34 21.8622 1688.78 21.21 1689 20.3403C1689 20.1229 1689.22 19.9054 1689.22 19.688C1689.88 19.4706 1690.32 19.0358 1690.98 19.9054C1692.08 20.9925 1692.3 20.1229 1692.3 19.2532H1693.41C1693.63 19.4706 1693.85 19.688 1694.29 19.9054C1695.17 20.3403 1696.05 20.3403 1696.71 19.9054C1696.05 23.3842 1696.27 23.3842 1700.01 22.5145C1700.23 22.5145 1700.45 22.7319 1700.89 22.7319C1701.55 22.9493 1701.99 23.6016 1702.65 23.819C1703.75 24.2538 1704.86 23.3842 1706.18 24.2538C1706.84 24.9061 1708.38 24.6887 1709.04 23.819C1709.92 22.7319 1710.36 22.9493 1710.8 24.0364C1711.24 25.1235 1712.12 25.1235 1713 24.9061C1713.66 24.6887 1714.55 24.4713 1714.77 23.819C1714.77 24.6887 1713.22 25.3409 1713.66 26.2106C1714.99 27.5151 1716.31 27.95 1717.63 26.2106C1717.63 25.9932 1717.63 25.7758 1717.63 25.7758C1719.17 27.2977 1721.15 27.5151 1723.35 26.8629L1723.57 27.0803C1723.79 27.0803 1724.23 27.2977 1724.67 27.0803C1725.12 27.0803 1725.56 26.6455 1726 26.6455C1730.62 26.428 1730.62 26.428 1731.72 22.0796C1731.28 21.21 1730.4 20.9925 1729.52 20.9925C1728.2 20.9925 1727.1 21.21 1726.88 22.7319L1726.66 22.9493C1726.66 20.7751 1727.98 19.9054 1730.4 20.3403L1730.62 20.5577C1731.28 20.9925 1731.94 20.5577 1732.6 20.5577C1732.82 20.3403 1732.82 20.3403 1733.04 20.5577C1732.82 20.5577 1732.6 20.5577 1732.38 20.5577C1731.28 20.7751 1731.28 21.21 1731.94 21.8622C1732.16 22.0796 1732.38 22.2971 1732.6 22.5145C1733.48 25.9932 1734.36 26.428 1737.45 24.0364C1737.01 25.5584 1734.58 25.9932 1735.69 27.7326C1736.57 29.0371 1738.11 28.3848 1739.43 28.6022C1742.73 28.3848 1746.04 28.6022 1749.12 30.1242C1750 30.3416 1750.66 29.9068 1751.54 29.6893C1753.74 28.6022 1755.94 28.6022 1757.93 30.1242C1758.37 30.3416 1758.81 30.1242 1759.25 29.9068C1759.69 29.9068 1758.81 28.8197 1759.69 29.0371C1761.89 29.4719 1764.09 27.5151 1763.43 25.3409C1762.99 24.0364 1763.43 22.5145 1762.77 21.21C1763.21 21.4274 1763.65 21.4274 1764.09 21.21C1765.19 22.2971 1766.07 20.9925 1767.18 20.9925C1767.84 20.9925 1768.72 20.5577 1769.16 21.21C1771.58 26.2106 1772.46 21.6448 1774 20.5577H1774.66V21.21C1775.54 21.6448 1776.64 21.6448 1777.52 21.21C1777.97 20.9925 1778.41 20.7751 1779.07 20.5577C1779.29 21.8622 1779.51 23.1667 1779.73 24.4713C1780.17 24.9061 1780.61 24.9061 1781.27 24.6887C1782.37 23.6016 1781.71 21.8622 1782.81 20.9925C1782.81 20.9925 1782.81 20.9925 1782.81 21.21C1782.37 21.8622 1782.15 22.5145 1782.15 23.1667C1782.15 23.6016 1782.15 24.4713 1782.81 24.4713C1783.69 24.6887 1784.13 24.0364 1784.35 23.6016C1784.35 23.6016 1784.35 23.6016 1784.35 23.819C1783.69 24.6887 1785.67 25.5584 1784.13 26.2106C1784.13 26.2106 1783.91 26.428 1783.91 26.6455C1784.35 27.0803 1784.79 27.5151 1785.45 27.95C1785.89 27.95 1786.33 27.95 1786.77 27.95V27.2977C1788.32 26.2106 1788.98 28.1674 1790.3 28.1674C1793.16 27.95 1794.26 26.428 1794.26 23.819C1795.36 24.9061 1796.9 25.1235 1798.22 25.3409V25.5584C1798.44 25.9932 1798.89 26.428 1799.33 25.9932C1800.43 24.0364 1801.97 24.2538 1803.51 25.3409C1804.61 25.3409 1805.49 24.9061 1805.71 23.819C1804.39 21.8622 1805.93 21.21 1807.25 21.4274C1809.01 21.4274 1810.34 20.9925 1811.88 20.7751C1811.88 21.4274 1811.88 22.0796 1812.32 22.5145C1814.74 23.819 1817.38 22.0796 1819.58 23.1667C1821.35 22.7319 1823.11 22.7319 1825.09 23.1667C1827.51 23.819 1827.51 20.9925 1828.83 19.688C1829.71 19.688 1830.6 19.688 1831.7 19.688C1831.26 20.1229 1830.82 20.5577 1830.38 20.9925C1831.7 22.0796 1833.24 22.7319 1835 21.6448L1835.22 21.4274C1835.44 22.2971 1835.88 22.7319 1836.76 23.1667C1841.39 21.6448 1846.23 23.1667 1850.85 23.1667C1851.29 23.6016 1851.74 23.6016 1852.18 23.1667H1856.36C1859 22.9493 1861.64 22.7319 1864.07 22.5145C1863.85 22.2971 1863.63 22.0796 1863.41 21.8622C1863.19 21.6448 1862.97 21.6448 1862.75 21.8622C1860.76 21.4274 1859.66 20.1229 1859.88 18.6009C1860.98 20.3403 1862.53 19.688 1864.07 19.2532C1864.29 18.8183 1864.51 18.3835 1864.73 17.9487C1865.17 18.3835 1865.61 18.6009 1866.05 18.6009C1868.69 18.3835 1868.69 18.3835 1868.69 19.688C1869.79 20.1229 1870.89 20.1229 1871.77 19.2532H1872.88C1873.32 20.1229 1873.98 20.5577 1874.86 20.7751C1876.62 20.7751 1878.16 20.5577 1879.92 20.7751C1881.24 20.5577 1882.34 21.8622 1883.89 21.21C1884.11 20.7751 1884.11 20.3403 1883.67 19.9054C1881.9 19.0358 1882.12 17.7312 1882.34 16.4267H1882.56C1883.67 16.6441 1884.77 16.6441 1885.87 16.6441C1885.87 16.6441 1886.09 16.6441 1886.31 16.6441C1886.31 16.8616 1886.31 16.8616 1886.53 17.079C1886.09 17.7312 1885.87 18.6009 1886.31 19.4706C1888.07 19.688 1889.61 21.8622 1891.59 20.5577C1892.03 20.5577 1892.25 20.5577 1892.47 20.7751C1891.59 21.8622 1891.59 22.7319 1892.69 23.819C1893.57 24.4713 1894.9 23.819 1895.78 24.0364C1896 24.0364 1896.44 24.0364 1896.66 23.819C1899.52 22.0796 1903.04 22.2971 1906.13 21.8622C1909.21 21.4274 1909.21 21.6448 1908.11 19.0358C1907.67 17.9487 1909.21 17.9487 1909.43 17.2964C1909.65 17.079 1910.31 16.6441 1910.31 17.2964C1910.09 20.7751 1911.85 16.8616 1912.51 17.7312C1912.51 17.9487 1914.05 17.7312 1913.83 16.6441C1913.61 15.557 1912.29 15.7745 1911.41 15.557C1911.19 15.557 1910.97 15.1222 1910.53 15.1222C1910.97 15.1222 1911.41 15.1222 1911.63 14.9048C1911.85 14.9048 1912.07 14.9048 1912.29 14.9048C1913.61 14.0351 1914.94 13.3828 1916.48 13.1654C1916.26 13.6003 1916.26 14.0351 1916.92 15.1222C1917.14 15.557 1917.8 16.8616 1915.82 17.2964C1914.49 17.7312 1915.38 19.0358 1916.26 19.4706C1917.36 20.1229 1918.24 20.7751 1919.34 21.4274C1919.56 21.4274 1919.56 21.4274 1919.78 21.21C1918.9 22.5145 1915.6 22.7319 1917.58 25.3409C1918.02 25.9932 1919.56 25.3409 1919.56 26.6455C1919.56 27.5151 1919.78 27.95 1920 28.3848V12.5132H1919.78C1919.56 12.2957 1919.34 12.2957 1919.12 12.2957C1917.36 11.8609 1915.82 11.426 1914.05 11.2086C1913.61 10.7738 1913.17 10.1215 1912.51 10.1215C1910.53 10.3389 1908.11 9.46927 1906.35 10.9912C1906.57 11.2086 1906.57 11.426 1906.57 11.6435L1906.35 11.426C1905.91 11.426 1905.47 11.426 1905.03 11.426C1905.03 11.8609 1905.03 12.0783 1905.03 12.5132C1904.81 12.7306 1904.81 12.948 1904.81 13.1654C1904.81 13.3828 1905.25 13.6002 1905.47 13.8177C1905.25 13.8177 1905.03 13.6002 1904.81 13.6002C1904.14 13.3828 1903.26 13.3828 1902.6 13.6002C1902.38 13.6002 1902.38 13.8177 1902.16 14.0351C1902.16 13.1654 1901.5 12.5131 1900.62 12.2957C1900.62 12.2957 1900.62 12.2957 1900.4 12.2957C1900.18 12.0783 1900.18 11.8609 1899.96 11.6435C1899.74 11.2086 1899.52 10.7738 1899.52 10.3389C1899.96 10.3389 1900.4 10.3389 1901.06 10.1215C1901.28 9.90411 1901.28 9.90411 1901.5 9.68669C1902.6 9.68669 1903.7 9.68669 1904.81 9.68669C1905.47 9.68669 1906.13 9.68669 1906.79 9.90411V10.1215C1907.01 10.5564 1907.45 10.7738 1907.89 10.9912C1908.55 10.7738 1909.43 10.7738 1909.65 10.1215C1909.87 10.3389 1910.09 10.5564 1910.53 10.5564C1911.63 10.7738 1912.73 10.7738 1914.05 10.5564C1914.27 10.3389 1914.49 10.1215 1914.72 9.90411V9.46927C1914.05 8.59959 1912.95 8.59959 1912.07 8.38217C1911.63 8.38217 1910.97 8.38217 1910.53 8.59959C1910.53 8.59959 1910.53 8.59959 1910.53 8.38217C1910.75 8.16475 1910.97 7.72991 1911.19 7.51249H1916.92C1916.48 7.72991 1916.04 7.94733 1915.82 8.16475C1916.48 10.7738 1918.24 9.68669 1919.78 9.46927L1919.78 0.00501976H0.220052ZM20.9198 15.1222C21.3602 14.6874 21.8007 14.9048 21.8007 15.3396C21.5805 15.3396 21.14 15.3396 20.9198 15.1222ZM21.14 12.948C21.5805 12.5132 22.0209 12.2957 22.4613 12.2957C22.2411 12.5131 21.8007 12.7306 21.14 12.948ZM22.9017 19.4706C23.1219 19.4706 23.1219 19.2532 22.9017 19.4706ZM60.117 11.2086C59.8968 10.9912 60.117 10.7738 60.3372 10.5564C60.3372 10.7738 60.3372 10.9912 60.117 11.2086ZM42.5003 34.4726C42.2801 34.0377 41.8397 33.8203 40.9588 34.0377C40.9588 33.8203 40.5184 33.6029 40.2982 33.3855C40.2982 33.3855 40.5184 33.3855 40.5184 33.1681C40.7386 33.1681 40.7386 32.9506 40.7386 32.7332C41.1791 32.5158 41.3993 32.2984 41.8397 32.081C41.8397 32.081 41.8397 32.081 42.0599 32.2984C42.0599 32.5158 42.0599 32.7332 42.2801 32.9506C42.2801 33.3855 42.7205 34.0377 42.5003 34.4726ZM62.7595 29.2545C62.5393 29.6893 62.3191 30.1242 62.0989 30.559C61.8787 30.7765 61.8787 30.7765 61.6585 30.9939C61.4383 30.9939 61.4383 30.9939 61.2181 30.7764C59.8968 30.9939 57.9149 29.9068 57.9149 32.2984C57.9149 32.2984 57.9149 32.2984 57.9149 32.081C56.8139 31.2113 55.2724 31.2113 54.1714 30.559C53.9512 30.1242 52.6299 30.3416 53.0703 29.2545C55.4926 28.8197 57.6947 30.3416 60.117 29.2545C60.117 29.2545 60.117 29.0371 60.3372 29.0371C60.9978 29.6894 61.6584 29.6893 62.5393 29.2545C62.5393 29.0371 62.7595 28.8197 62.7595 28.6022C62.5393 29.0371 62.7595 29.2545 62.7595 29.2545ZM64.5211 32.9506C64.7413 33.1681 65.1818 33.3855 65.402 33.3855C64.5211 33.6029 64.5211 33.6029 64.5211 32.9506ZM68.4849 30.7764V30.559C67.8243 29.4719 67.8243 28.6022 67.8243 27.5151C68.0445 27.5151 68.2647 27.5151 68.2647 27.5151C68.2647 28.6022 69.8061 29.6893 68.4849 30.7764ZM74.4305 33.1681C74.2103 33.1681 73.7699 32.9506 73.5497 32.7332C73.5497 32.7332 73.5497 32.5158 73.3295 32.5158L73.5497 32.7332C73.9901 32.9506 74.6507 32.9506 74.8709 32.7332C74.8709 32.9506 74.8709 33.1681 74.8709 33.6029C74.8709 33.6029 74.6507 33.3855 74.4305 33.1681ZM88.9643 31.4287C88.9643 31.4287 89.1845 31.4287 89.1845 31.6461C90.0653 32.081 90.726 32.081 91.6068 31.4287C91.827 31.6461 91.827 31.8635 92.0472 32.081C90.9462 32.7332 89.8451 32.7332 88.9643 31.4287ZM130.143 21.8622C130.143 21.6448 129.923 21.4274 129.923 21.4274C130.364 21.21 130.584 20.9925 131.024 20.7751C131.465 20.5577 131.905 20.1229 132.346 19.9054C132.125 20.3403 131.905 20.7751 131.465 21.21C131.024 21.4274 130.584 21.6448 130.143 21.8622ZM133.006 28.6022C132.566 28.3848 132.125 28.1674 131.465 28.1674C131.905 28.1674 132.125 27.95 132.566 27.95C132.566 27.95 132.566 27.95 132.786 27.95C133.447 28.1674 134.327 27.95 134.988 28.3848C134.548 28.6023 133.887 29.4719 133.006 28.6022ZM140.273 29.9068C140.053 29.9068 139.833 29.9068 139.833 29.6893C140.053 29.6893 140.273 29.4719 140.273 29.4719C140.273 29.6894 140.273 29.9068 140.273 29.9068ZM144.017 27.5151C143.356 28.1674 143.356 29.0371 142.916 29.9068C142.916 30.1242 142.695 30.1242 142.695 30.3416C142.475 30.1242 142.255 29.6893 142.035 29.2545C141.814 29.2545 141.594 29.2545 141.374 29.2545V29.0371C141.374 27.7326 139.833 28.1674 139.392 27.2977C140.053 27.0803 140.713 26.8629 141.374 26.6455C141.594 26.6455 142.035 26.6455 142.255 26.6455C143.576 26.6455 144.677 26.428 145.998 26.8629C145.118 26.8629 144.457 27.0803 144.017 27.5151ZM153.265 16.6441C153.265 16.8616 153.265 16.8616 153.265 16.6441ZM149.522 31.8635C149.522 31.6461 149.522 31.6461 149.742 31.4287C150.182 31.4287 150.843 31.2113 151.283 31.2113C151.724 31.4287 151.944 31.8635 151.944 32.2984C151.063 32.081 150.182 32.5158 149.522 31.8635ZM151.944 29.0371C151.283 29.2545 151.063 29.6893 150.843 30.3416V30.559C150.403 30.559 150.182 30.559 149.742 30.559C149.742 30.559 149.742 30.559 149.522 30.3416C149.302 29.9068 148.861 29.4719 148.641 29.0371C148.641 28.8197 148.641 28.6022 148.641 28.6022C148.421 28.3848 148.421 28.1674 148.201 27.95C148.201 27.7326 148.421 27.5151 148.421 27.2977C148.641 27.2977 148.861 27.2977 149.081 27.2977C149.302 27.2977 149.522 27.0803 149.962 26.8629C150.403 26.2106 151.504 25.9932 152.164 25.3409C152.164 25.3409 151.944 25.5584 151.944 25.7758C151.944 25.9932 152.164 26.428 152.385 26.428C153.706 27.0803 155.247 27.5151 156.789 27.5151C155.027 28.3848 153.706 29.2545 151.944 29.0371ZM159.211 27.7326C159.211 27.7326 158.991 27.7326 158.991 27.5151C158.771 27.5151 158.55 27.5151 158.33 27.5151C158.771 27.2977 158.991 27.0803 159.211 26.8629C159.431 26.8629 159.651 26.8629 159.651 26.8629C159.651 27.0803 159.872 27.0803 159.872 27.2977C159.872 27.5151 160.092 27.5151 160.092 27.5151C159.872 27.2977 159.431 27.5151 159.211 27.7326ZM164.496 23.819C164.936 23.6016 165.157 23.3842 165.597 23.3842C165.377 23.6016 164.936 23.819 164.496 23.819ZM167.139 28.1674C167.139 27.95 167.359 27.7326 167.359 27.5151L167.579 27.7326C167.359 27.95 167.359 28.1674 167.139 28.1674ZM182.773 31.2113C182.113 31.2113 181.452 31.2113 180.791 31.6461C180.791 31.4287 180.791 31.2113 180.571 30.9939L180.791 30.7764C181.012 30.7764 181.012 30.9939 181.232 30.9939C182.553 31.2113 183.434 30.7764 184.095 29.6893C184.095 30.559 184.095 31.2113 182.773 31.2113ZM184.755 22.0796C184.535 21.4274 184.755 20.7751 184.535 20.1229H184.755C184.975 20.5577 185.196 20.9925 185.856 21.21C185.196 21.4274 184.755 21.6448 184.755 22.0796ZM214.924 19.4706C214.924 19.688 214.704 19.688 214.704 19.9054C214.704 19.688 214.704 19.688 214.924 19.4706ZM210.079 19.2532C210.299 19.2532 210.079 19.4706 210.079 19.2532ZM209.639 27.0803C210.52 26.6455 211.4 26.428 212.281 25.9932C212.501 26.2106 212.722 26.2106 212.722 25.9932C212.942 26.428 213.162 26.428 213.603 26.6455C213.823 26.8629 214.043 27.0803 214.043 27.2977C213.382 27.7326 212.942 27.95 212.061 27.7326H211.841C211.621 27.5151 211.4 27.2977 211.4 27.0803C210.96 26.6455 210.52 26.8629 210.079 27.0803C209.859 27.2977 209.639 27.0803 209.639 27.0803ZM212.281 33.3855C212.281 33.3855 212.281 33.1681 212.061 33.1681C211.4 32.7332 210.74 32.2984 210.079 32.081C210.52 31.8635 210.74 31.6461 211.18 31.6461H211.4C212.501 32.5158 213.823 33.1681 215.364 32.9506C215.364 32.9506 215.364 33.1681 215.364 33.3855C214.483 32.9506 213.162 32.2984 212.281 33.3855ZM224.393 15.3396C224.173 15.1222 224.173 14.9048 223.952 14.9048L223.732 14.6874C223.952 14.0351 224.393 13.3828 225.053 12.948C224.833 13.3828 224.833 13.8177 225.053 14.0351C224.833 14.2525 224.393 14.6874 224.393 15.3396ZM228.357 27.5151C228.357 27.2977 228.136 27.0803 228.136 26.8629C228.357 26.8629 228.577 27.0803 228.797 26.8629C228.577 27.0803 228.577 27.2977 228.357 27.5151ZM239.367 25.3409V25.5584C238.927 25.5584 238.706 25.3409 238.266 25.3409C238.486 25.3409 238.706 24.9061 238.927 24.6887C239.147 24.9061 239.367 25.1235 239.367 25.3409ZM258.305 22.9493C258.305 23.1667 258.085 23.1667 258.085 23.3842C257.204 23.1667 257.424 21.8622 256.763 21.4274C255.883 22.0796 254.561 21.8622 253.46 22.2971C253.24 22.2971 253.24 22.5145 253.02 22.5145C253.02 22.2971 252.8 22.2971 252.8 22.0796C251.919 22.0796 251.038 21.8622 250.157 21.8622C250.157 21.4274 250.157 20.9925 250.157 20.5577L250.377 20.7751C252.8 20.7751 255.442 20.7751 257.864 21.21C258.525 21.4274 259.186 21.4274 259.626 21.21C259.406 21.8622 258.745 22.2971 258.305 22.9493ZM268.655 22.0796C268.655 22.0796 268.655 21.8622 268.434 21.8622C268.214 21.6448 267.774 21.6448 267.554 21.6448C267.774 21.21 267.774 20.7751 267.554 20.3403H267.333C268.655 20.3403 269.095 20.7751 269.315 21.8622C269.095 21.8622 268.875 21.8622 268.655 22.0796ZM269.315 20.3403C269.535 20.1229 269.756 20.1229 269.976 19.9054V20.1229C269.756 20.3403 269.535 20.3403 269.315 20.3403ZM269.756 10.5564C269.976 10.1215 270.416 9.68669 270.637 9.68669C270.196 9.90411 269.976 10.1215 269.756 10.5564ZM305.87 22.7319C305.65 22.5145 305.43 22.0796 305.43 21.8622C305.87 22.0796 306.31 22.2971 306.531 22.2971C306.31 22.5145 306.09 22.5145 305.87 22.7319ZM311.155 23.3842C311.155 23.1667 311.155 23.1667 311.155 23.3842ZM312.476 16.2093C312.476 16.2093 312.256 16.2093 312.256 15.9919L312.476 15.7745C312.476 15.9919 312.476 15.9919 312.476 16.2093ZM323.707 31.2113C323.487 30.9939 323.707 30.7764 323.927 30.3416C323.707 30.559 323.707 30.7764 323.707 31.2113ZM340.443 8.16475C340.663 7.72991 340.443 7.94733 340.443 8.16475ZM341.544 29.9068V30.1242C341.544 29.9068 341.544 29.9068 341.324 29.6893C341.544 29.6893 341.764 29.6893 341.984 29.6893C341.764 29.6893 341.544 29.6894 341.544 29.9068ZM342.865 32.5158C342.865 32.081 342.865 31.6461 342.645 31.4287C343.746 31.4287 344.627 31.4287 345.508 32.081C344.627 32.2984 343.746 32.081 342.865 32.5158ZM343.746 24.6887C345.067 24.6887 346.388 24.2538 347.71 24.6887C347.71 25.7758 348.811 25.9932 349.471 26.428C347.489 26.428 345.287 26.428 343.746 24.6887ZM350.132 30.3416C349.471 30.3416 349.031 30.3416 348.811 30.559C348.811 30.3416 348.59 30.3416 348.59 30.1242C349.471 29.9068 350.132 29.4719 350.793 29.0371C350.572 29.6894 350.352 30.1242 350.132 30.3416ZM345.728 21.4274C345.728 21.21 345.507 21.21 345.287 21.21C345.287 20.9925 345.067 20.5577 344.847 20.3403C344.406 19.9054 343.526 19.9054 343.085 19.4706H343.305C344.627 19.4706 345.948 19.688 347.269 19.0358C347.489 19.0358 347.71 18.8183 347.71 18.8183C348.811 20.3403 351.233 19.2532 352.334 20.9925C350.352 21.8622 348.15 23.6016 345.728 21.4274ZM357.619 29.2545C357.619 29.0371 357.399 29.0371 357.399 28.8197C357.619 29.0371 357.839 29.0371 357.619 29.2545C357.839 29.2545 357.839 29.2545 357.619 29.2545ZM356.518 26.428C356.518 26.428 356.518 26.6455 356.298 26.6455C356.078 26.428 355.857 26.428 355.857 26.6455C356.958 25.9932 358.059 25.9932 359.16 25.9932C358.28 25.9932 357.399 25.9932 356.518 26.428ZM374.575 7.51249C374.575 7.29507 374.575 7.29507 374.575 7.51249ZM386.687 25.7758C386.687 25.9932 386.687 26.2106 386.466 26.6455L386.246 26.428C386.466 26.2106 386.466 25.9932 386.687 25.7758ZM386.246 28.6022C386.466 28.6022 386.466 28.3848 386.687 28.1674C386.907 28.3848 387.127 28.8197 387.347 29.0371C386.907 28.8197 386.687 28.6022 386.246 28.6022ZM392.192 31.2113C391.972 30.7764 391.751 30.1242 391.311 29.6893V29.4719C392.412 29.9068 393.293 30.559 394.394 30.9939C393.733 31.2113 392.852 30.9939 392.192 31.2113ZM400.339 32.9506C399.679 32.7332 399.018 32.9506 398.358 32.9506C399.018 32.5158 399.679 32.081 400.56 31.6461C400.34 32.081 400.339 32.5158 400.339 32.9506ZM397.477 29.4719C397.697 28.6023 398.137 27.7326 397.257 26.8629H397.036C397.036 26.6455 397.036 26.6455 397.036 26.428L396.816 26.2106C397.477 26.2106 398.578 25.7758 398.578 27.0803C398.798 27.95 399.899 27.95 400.56 28.3848C399.459 28.1674 398.578 28.8197 397.477 29.4719ZM414.433 27.2977C414.873 27.2977 415.314 27.2977 415.754 27.2977C415.754 27.2977 415.534 27.2977 415.534 27.5151C415.314 27.95 415.314 28.1674 415.314 28.3848C414.653 28.6023 414.213 28.6023 413.552 29.0371C413.552 28.8197 413.552 28.8197 413.552 28.6022C413.772 28.3848 414.213 27.7326 414.433 27.2977ZM415.974 9.68669C416.195 9.68669 416.415 9.46927 416.635 9.46927C416.635 9.68669 416.635 9.68669 416.635 9.90411C416.415 9.90411 416.195 9.68669 415.974 9.68669ZM418.617 7.51249C418.837 7.51249 419.057 7.72991 419.277 7.72991C419.057 7.72991 418.837 7.72991 418.617 7.51249ZM449.886 18.1661L449.666 18.3835C449.666 18.1661 449.666 18.1661 449.666 17.9487C449.666 18.1661 449.886 18.1661 449.886 18.1661ZM448.565 27.5151C448.345 27.5151 448.345 27.7326 448.125 27.95C446.363 27.7326 447.024 26.2106 446.804 25.3409C447.244 25.1235 447.905 24.9061 448.345 24.6887H448.565C448.785 24.6887 448.785 24.6887 449.006 24.6887C449.446 24.6887 450.107 24.6887 450.547 24.6887C450.767 25.5584 451.208 26.428 451.868 27.0803C450.767 27.2977 449.666 27.0803 448.565 27.5151ZM489.084 27.0803C489.304 27.0803 489.744 27.0803 489.964 27.0803C489.744 27.2977 489.304 27.2977 489.084 27.0803ZM506.92 13.3828C507.141 13.3828 507.141 13.3828 507.361 13.3828C507.361 13.3828 507.141 13.3828 506.92 13.3828ZM519.693 31.8635C519.252 31.2113 519.032 30.559 518.372 30.1242C516.169 29.2545 515.949 32.081 514.188 32.081C513.967 31.4287 514.408 30.1242 512.866 30.7764C511.545 31.4287 510.003 31.2113 508.682 30.7764C507.141 30.559 505.379 30.7764 503.838 30.3416C503.397 30.559 502.957 30.559 502.296 30.559C502.076 30.559 501.856 30.3416 501.856 30.1242C502.296 30.1242 502.957 30.1242 503.617 29.9068C504.498 29.4719 505.159 29.0371 505.599 28.3848C506.04 27.7326 506.04 26.8629 506.04 26.2106C506.04 25.9932 506.04 25.7758 506.04 25.3409C506.921 25.5584 507.801 25.7758 508.242 26.428C509.123 27.5151 510.003 28.1674 511.545 28.3848C514.408 29.4719 517.711 28.8197 520.574 29.6893C520.353 30.3416 519.913 30.9939 519.693 31.8635ZM533.346 19.9054C533.346 20.1229 533.346 20.1229 533.346 19.9054ZM533.125 26.8629C533.566 26.8629 534.006 26.8629 534.667 26.6455V26.8629C534.227 26.8629 533.566 26.8629 533.125 26.8629ZM540.613 13.1654H540.392L540.613 12.948C540.613 12.948 540.613 12.948 540.613 13.1654ZM557.789 15.557C558.009 15.3396 558.009 15.1222 558.229 14.9048C558.449 14.9048 558.67 15.1222 558.67 15.1222C558.45 15.3396 558.009 15.3396 557.789 15.557ZM580.911 23.1667C581.131 22.9493 581.571 22.9493 581.792 22.9493C581.571 22.9493 581.351 23.1667 580.911 23.1667ZM587.297 14.6874C587.737 14.6874 588.178 14.4699 588.398 14.4699C588.178 14.9048 587.517 14.9048 587.297 14.6874ZM589.939 16.2093C589.939 15.9919 589.719 16.2093 589.939 16.2093ZM605.354 15.557C605.354 15.3396 605.354 15.3396 605.354 15.557ZM672.297 21.21C672.297 20.7751 672.297 20.3403 672.077 19.9054C672.518 20.1229 672.958 20.3403 673.619 20.3403C672.958 20.7751 672.518 20.9925 672.297 21.21ZM730.653 24.0364C730.653 23.819 730.873 23.819 730.873 23.819C730.653 23.819 730.653 24.0364 730.653 24.0364ZM749.37 24.0364C749.37 23.819 749.37 23.819 749.591 23.819C749.591 23.819 749.591 24.0364 749.37 24.0364ZM753.114 7.51249C753.334 7.51249 753.334 7.51249 753.114 7.51249ZM761.482 26.2106C762.143 25.9932 762.583 25.9932 763.244 25.7758C763.464 25.7758 763.684 25.5584 763.904 25.5584C763.904 25.7758 763.904 25.9932 763.904 26.2106C763.023 26.2106 762.143 26.6455 761.482 26.2106ZM776.016 8.59959C776.016 8.38217 776.236 8.38217 776.236 8.16475C777.117 8.16475 778.218 8.38217 779.099 8.59959C779.98 8.81701 781.081 8.59959 781.961 8.81701C780.2 9.03443 778.438 10.5564 776.676 10.3389C776.456 10.3389 776.456 10.5564 776.456 10.5564C776.456 10.1215 776.236 9.68669 775.796 9.46927C775.575 9.25185 775.355 9.25185 775.135 9.03443C775.355 9.03443 775.796 8.81701 776.016 8.59959ZM771.612 24.4713C771.612 24.6887 771.391 24.9061 771.391 25.3409C771.171 25.1235 770.951 24.9061 770.731 24.9061C771.171 24.6887 771.391 24.4713 771.612 24.4713ZM783.062 32.9506C783.062 32.7332 783.062 32.5158 783.062 32.5158C781.961 31.2113 779.979 31.8635 778.658 31.4287C779.539 31.4287 780.2 30.7764 780.86 30.1242C780.86 29.9068 780.86 29.6894 780.86 29.4719C780.42 29.4719 779.98 29.4719 779.319 29.4719C779.319 30.7765 778.438 30.7764 777.557 30.7764C777.557 30.559 777.557 30.559 777.557 30.3416C777.777 29.9068 777.557 29.4719 777.557 29.0371C777.117 28.3848 776.456 28.3848 775.796 28.3848C774.474 28.8197 774.254 30.1242 773.593 31.2113C772.933 29.6893 770.951 30.7765 770.07 29.9068C769.63 29.9068 769.189 29.9068 768.749 30.1242C768.308 30.3416 767.868 30.559 767.428 30.559C767.207 30.559 766.987 30.559 766.987 30.3416C767.207 29.4719 766.547 29.0371 766.106 28.6022C765.886 28.3848 765.666 28.1674 765.446 27.7326C765.666 27.7326 765.886 27.7326 766.106 27.5151C767.207 27.5151 768.529 27.5151 769.63 27.5151C769.85 28.1674 770.07 28.8197 770.29 29.4719C770.951 29.4719 771.832 29.4719 772.272 28.8197C772.492 27.95 772.272 26.8629 773.814 26.8629C774.254 27.7326 775.135 27.5151 775.796 27.5151C777.117 27.2977 778.878 27.7326 779.539 25.9932C778.438 25.1235 778.218 24.2538 778.878 23.3842C779.099 23.3842 779.099 23.3842 779.319 23.6016C779.759 23.6016 780.42 23.6016 780.86 23.6016C781.08 23.6016 781.081 23.3842 781.301 23.3842C781.961 24.0364 782.842 24.4713 783.723 24.9061C784.384 25.7758 786.366 25.7758 785.925 27.5151C785.705 27.5151 785.485 27.5151 785.044 27.5151C783.503 26.8629 782.842 27.7326 782.182 28.8197C781.961 29.6894 782.402 30.3416 783.062 30.9939C783.503 31.2113 783.943 31.4287 784.604 31.6461C784.384 31.8635 784.384 32.081 784.384 32.2984C784.384 32.7332 784.604 33.1681 785.044 33.3855C785.265 33.3855 785.485 33.3855 785.705 33.6029C784.604 33.1681 783.723 32.9506 783.062 32.9506ZM785.705 30.1242C785.264 30.1242 784.824 30.1242 784.384 30.3416C783.943 29.2545 785.264 29.6893 785.705 29.2545C785.705 29.2545 785.705 29.2545 785.705 29.4719C785.925 29.9068 786.145 30.1242 786.806 30.1242C786.366 30.559 785.925 30.1242 785.705 30.1242ZM793.412 24.6887C792.531 24.4713 791.871 24.2538 791.21 24.0364V23.819C791.871 24.0364 792.531 24.2538 793.192 24.2538C793.412 24.2538 793.632 24.2538 793.853 24.2538C793.853 24.4713 794.073 24.6887 794.073 24.6887C793.853 24.9061 793.632 24.9061 793.412 24.6887ZM811.469 22.9493H811.69V23.1667C811.91 22.9493 811.69 22.9493 811.469 22.9493ZM833.05 27.95C832.83 27.5151 833.27 27.2977 833.49 27.0803C833.49 27.2977 833.49 27.5151 833.49 27.7326C833.49 27.95 833.71 27.95 833.71 28.1674C833.27 28.1674 833.05 28.1674 833.05 27.95ZM933.905 33.8203C933.465 33.6029 933.245 33.3855 932.804 33.3855C932.584 33.3855 932.364 33.3855 932.144 33.3855C931.483 33.3855 930.823 32.2984 930.162 33.3855C930.162 32.7332 930.382 32.2984 930.823 31.6461L931.043 31.8635C931.924 32.081 932.804 32.081 933.685 31.6461C933.905 31.6461 933.905 31.4287 934.126 31.2113C935.007 31.6461 935.887 32.081 936.768 32.5158L936.988 32.7332C935.887 33.3855 935.006 33.3855 933.905 33.8203ZM939.851 22.0796C939.851 22.5145 939.851 22.9493 940.292 23.1667C940.071 22.7319 939.631 22.5145 939.19 22.2971C939.411 22.2971 939.631 22.2971 939.851 22.0796ZM939.851 31.8635C939.411 31.8635 938.75 31.8635 938.31 32.081C938.089 32.081 938.089 32.081 937.869 32.2984C937.869 31.6461 937.869 30.9939 937.209 30.559V30.3416C937.209 29.4719 937.649 29.2545 938.53 29.2545C938.75 29.6893 938.97 30.1242 939.19 30.559C940.512 30.559 940.512 29.9068 939.851 29.0371C939.631 28.6023 939.631 27.95 939.411 27.5151C940.291 27.95 940.732 29.0371 941.833 29.0371C941.613 29.4719 941.613 29.6893 941.833 30.1242L941.613 30.3416C941.393 30.7764 941.613 31.4287 941.833 31.8635C941.393 31.8635 940.732 31.8635 939.851 31.8635ZM942.714 33.8203C942.934 33.6029 942.934 33.3855 942.934 33.1681C943.154 33.3855 943.154 33.3855 943.374 33.6029C943.154 33.8203 942.934 33.8203 942.714 33.8203ZM982.792 30.9939C983.012 31.2113 983.232 31.4287 983.452 31.6461C983.232 31.6461 982.792 31.4287 982.572 31.4287C982.572 31.4287 982.572 31.2113 982.792 30.9939ZM1003.71 22.0796C1003.93 21.8622 1004.37 21.8622 1004.81 22.0796L1005.03 22.2971C1004.59 22.2971 1004.15 22.2971 1003.71 22.0796ZM1061.63 26.2106C1061.85 26.2106 1062.07 26.2106 1062.51 26.2106C1063.17 26.2106 1063.83 26.2106 1064.49 26.2106C1065.59 26.2106 1066.69 26.2106 1067.57 26.2106C1066.25 26.428 1064.71 26.428 1063.39 26.8629C1062.51 27.0803 1062.73 28.3848 1061.85 28.6022C1061.85 28.1674 1061.85 27.7326 1061.41 27.2977C1061.63 26.8629 1061.63 26.6455 1061.63 26.2106ZM1031.02 29.2545C1030.8 29.4719 1030.58 29.4719 1030.36 29.6893C1029.7 28.6022 1028.59 28.3848 1027.49 27.95C1026.39 27.7326 1025.73 27.95 1024.85 28.6022C1023.31 28.6022 1021.77 28.6023 1020.45 28.8197C1020.67 28.8197 1021.11 28.6023 1021.33 28.3848C1022.65 27.5151 1023.75 26.428 1024.19 25.1235C1023.97 25.7758 1024.41 26.2106 1025.29 26.8629C1026.61 26.8629 1027.49 26.2106 1027.71 25.1235C1028.37 25.1235 1029.26 25.1235 1029.92 24.6887C1029.92 24.9061 1029.92 25.1235 1030.14 25.1235C1031.9 25.1235 1033.44 25.3409 1035.2 25.3409C1035.2 25.5584 1035.2 25.5584 1035.2 25.7758C1035.42 26.6455 1035.86 27.2977 1036.08 28.1674C1034.32 28.3848 1032.56 28.6022 1031.02 29.2545ZM1062.07 32.9506C1061.41 32.7332 1060.97 32.9506 1060.53 33.1681C1060.53 33.1681 1060.53 32.9506 1060.31 32.9506C1059.86 32.5158 1059.2 32.2984 1058.54 32.081C1057.44 31.8635 1056.34 31.8635 1055.46 32.081C1055.24 32.081 1055.24 32.081 1055.24 32.2984H1055.02C1054.14 32.081 1053.04 31.8635 1052.16 31.4287C1051.5 30.9939 1050.62 30.7764 1049.73 30.7764C1049.51 30.7764 1049.51 30.7764 1049.29 30.7764C1049.29 30.559 1049.07 30.3416 1049.07 30.1242C1048.19 27.0803 1045.77 29.4719 1044.23 28.8197C1043.35 29.9068 1041.59 28.8197 1040.71 30.1242V30.3416C1040.71 30.1242 1040.49 29.9068 1040.49 29.6893H1040.27C1040.27 29.6893 1040.27 29.6894 1040.27 29.4719C1040.27 29.2545 1040.27 28.8197 1040.27 28.6022C1038.5 27.5151 1040.93 27.5151 1040.71 26.8629C1040.93 26.6455 1041.15 26.428 1041.37 26.2106C1041.81 26.2106 1042.25 26.2106 1042.69 26.2106C1044.01 26.2106 1044.89 26.428 1045.55 27.5151C1047.53 27.0803 1049.29 26.2106 1051.28 27.5151C1051.72 29.9068 1053.26 30.9939 1055.24 30.9939C1055.68 30.9939 1056.34 30.9939 1056.78 30.7764C1057.22 30.7764 1057.66 30.9939 1058.1 30.9939C1058.32 30.9939 1058.54 30.7764 1058.76 30.7764C1060.3 30.559 1061.19 31.4287 1062.29 32.081C1063.17 31.8635 1063.39 32.7332 1063.83 33.3855C1063.17 33.3855 1062.51 33.3855 1062.07 32.9506ZM1067.13 33.8203C1066.69 33.6029 1066.25 33.3855 1065.59 33.3855C1066.03 33.1681 1066.47 32.7332 1066.69 32.2984C1066.69 32.2984 1066.69 32.2984 1066.69 32.081C1066.91 32.2984 1066.91 32.2984 1067.13 32.5158C1067.13 32.5158 1067.13 32.7332 1066.91 32.7332C1066.91 32.9506 1066.91 33.3855 1067.13 33.8203ZM1071.32 28.1674C1071.1 28.6022 1071.32 28.8197 1071.32 29.2545C1070.65 28.8197 1069.99 29.0371 1069.11 29.4719L1068.89 29.6893C1068.23 29.4719 1067.13 29.4719 1066.91 28.6022C1068.01 27.7326 1069.77 28.8197 1070.65 27.5151C1070.21 27.2977 1069.99 26.8629 1069.77 26.428H1069.99C1070.43 26.2106 1070.87 26.2106 1071.1 25.9932C1071.1 26.2106 1071.32 26.2106 1071.32 26.428C1071.54 27.0803 1071.76 27.5151 1072.2 27.7326C1071.98 27.5151 1071.54 27.5151 1071.32 28.1674ZM1075.28 18.1661C1074.84 18.3835 1074.62 19.0358 1074.18 19.4706C1073.96 19.4706 1073.74 19.4706 1073.74 19.4706C1073.74 18.3835 1074.62 18.1661 1075.5 17.9487C1075.5 17.9487 1075.72 17.9487 1075.28 18.1661ZM1081 14.6874H1080.78C1080.78 14.6874 1080.78 14.6874 1081 14.6874ZM1084.53 23.6016C1084.31 23.3842 1084.31 23.1667 1084.53 22.7319C1084.53 23.1667 1084.75 23.3842 1084.53 23.6016ZM1088.05 23.819C1086.95 24.6887 1086.29 22.9493 1085.41 22.5145C1085.19 22.2971 1085.19 22.0796 1084.97 21.8622C1085.19 21.4274 1085.19 21.21 1085.19 20.9925C1085.19 20.7751 1085.19 20.3403 1084.97 20.1229C1085.19 19.9054 1085.41 19.9054 1085.85 19.9054C1086.07 19.9054 1086.07 19.9054 1086.29 20.1229C1086.51 20.1229 1086.73 20.1229 1086.95 19.9054C1086.95 20.3403 1086.95 20.7751 1087.39 20.9925C1088.93 22.0796 1089.37 22.9493 1088.05 23.819ZM1117.56 28.6022C1117.78 27.5151 1116.46 26.8629 1116.68 25.7758C1117.56 25.5584 1118.22 25.1235 1119.1 24.6887H1119.32C1118.66 25.5584 1118.22 26.2106 1118.88 27.2977C1119.32 27.95 1119.76 28.1674 1120.42 28.3848C1119.32 28.3848 1118.44 28.6022 1117.56 28.6022ZM1138.92 19.9054C1138.92 19.688 1138.92 19.4706 1138.92 19.0358C1139.14 19.2532 1139.36 19.4706 1139.58 19.688L1139.8 19.9054C1139.58 19.9054 1139.14 19.9054 1138.92 19.9054ZM1191.99 10.5564C1191.77 10.1215 1191.99 9.90411 1191.99 9.90411C1191.99 10.339 1191.99 10.5564 1191.99 10.9912C1191.99 10.7738 1191.99 10.7738 1191.99 10.5564ZM1219.52 19.688C1219.52 19.4706 1219.52 19.4706 1219.74 19.2532L1219.96 19.4706C1219.74 19.4706 1219.52 19.4706 1219.52 19.688ZM1279.41 22.9493C1279.85 22.9493 1279.63 23.3842 1279.41 22.9493ZM1285.36 20.3403C1284.7 20.9925 1283.38 20.9925 1282.72 21.6448C1282.5 21.4274 1282.28 20.9925 1282.28 20.7751C1282.28 20.3403 1282.28 20.1229 1282.06 19.9054C1283.16 20.3403 1284.26 20.3403 1285.58 19.9054V20.3403H1285.36ZM1304.74 20.1229C1305.18 20.5577 1305.62 20.5577 1306.28 20.5577C1305.62 20.5577 1305.18 20.3403 1304.74 20.1229ZM1306.06 25.9932C1306.72 25.5584 1307.6 25.1235 1308.04 24.2538C1308.04 24.4713 1308.26 24.6887 1308.48 24.6887C1308.48 26.428 1306.72 25.7758 1306.06 25.9932ZM1326.98 9.25185C1327.2 9.25185 1327.2 9.25185 1326.98 9.25185ZM1371.02 14.2525C1371.02 14.0351 1371.02 14.0351 1371.02 13.8177C1371.24 13.8177 1371.46 14.0351 1371.9 14.2525C1371.46 14.2525 1371.24 14.2525 1371.02 14.2525ZM1391.72 14.6874C1391.94 14.6874 1391.94 14.6874 1392.16 14.6874C1391.94 14.4699 1391.72 14.4699 1391.72 14.6874ZM1403.17 14.2525C1402.95 14.2525 1402.73 14.0351 1402.51 13.8177C1402.73 13.8177 1402.95 13.8177 1403.17 13.8177C1403.17 14.0351 1403.17 14.2525 1403.17 14.2525ZM1421.89 9.03443C1422.11 9.03443 1422.11 9.03443 1422.11 9.25185L1421.89 9.03443ZM1547.19 9.46927C1547.19 9.25185 1547.41 9.25185 1547.63 9.03443C1547.63 9.03443 1547.85 9.25185 1547.85 9.46927C1547.41 9.46927 1547.19 9.46927 1547.19 9.46927ZM1598.72 18.3835C1598.72 17.9487 1598.72 17.7312 1598.72 17.2964C1598.94 17.9487 1598.94 18.1661 1598.72 18.3835ZM1604.44 20.3403C1604 20.9925 1604.22 21.4274 1604.44 22.0796C1604.44 22.5145 1604.44 22.9493 1604 23.1667C1603.56 23.1667 1603.34 22.9493 1603.12 22.7319C1602.24 22.0796 1603.12 21.8622 1603.56 21.6448C1604.22 20.9925 1604.22 20.3403 1603.78 19.4706C1603.78 19.2532 1603.56 19.2532 1603.34 19.0358H1603.12C1603.12 19.0358 1603.12 19.0358 1603.12 18.8183C1603.12 18.8183 1603.12 18.8183 1603.12 19.0358C1603.56 19.4706 1604 19.688 1604.44 19.9054C1604.44 20.1229 1604.44 20.3403 1604.44 20.3403ZM1666.76 21.8622C1666.32 22.0796 1665.66 22.5145 1665.22 22.7319C1665 22.2971 1664.78 21.8622 1664.56 21.4274C1665.44 21.4274 1666.1 21.4274 1666.76 20.9925C1666.54 21.4274 1666.54 21.6448 1666.76 21.8622ZM1666.76 27.7326C1666.54 26.8629 1667.2 26.2106 1667.64 25.7758C1668.08 26.2106 1668.52 26.428 1669.18 26.2106C1669.18 26.2106 1669.4 26.2106 1669.4 25.9932C1669.4 26.2106 1669.4 26.2106 1669.4 26.428C1670.06 29.4719 1668.3 28.3848 1666.76 27.7326ZM1720.05 23.3842C1720.05 23.6016 1719.83 23.6016 1719.83 23.819C1719.83 23.3842 1719.61 22.7319 1719.17 22.2971C1719.17 22.2971 1719.39 22.2971 1719.39 22.5145C1719.61 22.9493 1720.05 23.1667 1720.49 23.1667H1720.71C1720.49 23.1667 1720.27 23.1667 1720.05 23.3842ZM1726.66 22.0796C1727.1 22.5145 1727.32 23.3842 1728.2 23.3842C1727.32 23.6016 1727.1 22.7319 1726.66 22.0796ZM1791.4 21.4274C1791.4 21.21 1791.62 21.21 1791.84 20.9925C1792.28 21.21 1792.5 21.4274 1792.5 21.8622C1792.28 21.8622 1791.84 21.6448 1791.4 21.4274ZM1798.66 22.9493C1799.11 23.1667 1799.77 23.3842 1799.99 23.819C1799.55 23.6016 1799.11 23.3842 1798.66 22.9493ZM1807.91 13.3828C1807.69 13.3828 1807.69 13.1654 1807.47 13.1654C1807.69 13.1654 1807.91 13.3828 1807.91 13.3828ZM1813.86 7.51249C1813.64 7.51249 1813.42 7.29507 1813.42 7.29507L1813.86 7.51249ZM1828.17 10.5564C1826.85 9.68669 1825.09 10.1215 1823.77 9.46927C1823.99 9.46927 1823.99 9.46927 1824.21 9.46927C1824.43 9.46927 1824.65 9.25185 1825.09 9.25185H1825.31C1825.97 9.25185 1826.41 9.25185 1827.07 9.03443H1827.29C1827.51 9.03443 1827.73 8.81701 1827.95 8.59959C1828.61 9.46927 1829.93 9.03443 1830.6 9.68669C1829.71 9.90411 1828.83 9.90411 1828.17 10.5564ZM1829.71 12.7306C1829.93 12.5132 1829.93 12.2957 1830.15 12.0783C1830.82 12.7306 1831.92 12.5132 1832.8 12.7306C1831.7 12.7306 1830.82 12.5132 1829.71 12.7306ZM1839.84 12.0783C1839.18 11.8609 1838.52 12.0783 1837.86 12.5132C1837.64 12.5132 1837.64 12.5132 1837.42 12.5132C1838.3 12.0783 1839.18 11.6435 1839.84 12.0783ZM1851.51 20.7751C1850.41 22.2971 1849.31 21.4274 1848.21 20.7751C1847.77 20.5577 1847.33 20.3403 1846.89 20.1229C1845.57 19.688 1844.25 19.9054 1842.93 19.4706C1842.71 19.4706 1842.27 19.4706 1842.05 19.2532C1841.39 19.2532 1840.72 19.2532 1840.06 19.2532C1838.08 19.4706 1837.2 18.1661 1836.32 17.079C1837.42 17.7312 1837.86 19.0358 1839.18 19.0358C1840.28 19.0358 1841.39 18.8183 1842.27 19.0358C1843.81 19.0358 1845.35 18.6009 1846.89 19.0358C1847.99 19.2532 1849.09 19.2532 1850.19 19.4706C1850.41 19.4706 1850.85 19.4706 1851.29 19.4706C1852.4 19.2532 1853.5 19.2532 1854.38 19.2532C1854.38 19.4706 1854.38 19.688 1854.38 19.9054C1854.38 19.9054 1854.38 20.1229 1854.6 20.1229C1853.5 19.688 1852.4 19.2532 1851.51 20.7751ZM1856.8 7.72991C1856.58 7.51249 1856.14 7.29507 1855.7 7.29507H1856.58C1856.58 7.29507 1856.58 7.29507 1856.58 7.51249V7.72991H1856.8ZM1869.13 16.8616C1869.35 15.7745 1868.91 14.6873 1868.47 13.8177C1868.69 13.8177 1868.69 13.8177 1868.91 13.6002C1869.13 13.3828 1869.13 13.3828 1869.13 13.1654C1869.79 13.1654 1870.45 13.1654 1870.89 13.3828C1870.89 13.3828 1870.89 13.3828 1870.89 13.6002C1870.89 13.8177 1870.67 14.2525 1870.67 14.4699C1870.89 15.557 1871.77 15.7745 1872.43 16.2093C1871.33 16.4267 1870.23 16.4267 1869.13 16.8616ZM1875.74 11.2086C1874.64 11.2086 1873.76 11.2086 1872.66 11.426C1872.43 11.6435 1872.21 11.6435 1871.99 11.8609C1870.89 11.8609 1870.01 11.8609 1868.91 11.8609C1868.69 11.426 1868.69 10.9912 1868.69 10.5564H1872.88C1873.32 10.7738 1873.98 10.9912 1874.64 10.9912C1875.08 10.9912 1875.52 10.9912 1875.96 10.5564C1875.96 10.9912 1875.74 10.9912 1875.74 11.2086ZM1883.45 15.9919C1883.67 15.7745 1883.67 15.7745 1883.67 15.557C1883.67 15.7745 1883.89 16.2093 1884.11 16.4267C1883.89 16.4267 1883.67 16.2093 1883.45 15.9919ZM1898.42 11.8609C1897.98 11.8609 1897.54 11.6435 1897.1 11.6435C1895.78 11.6435 1894.46 11.6435 1893.13 12.2957C1893.13 12.5131 1893.13 12.5132 1893.13 12.7306C1890.71 12.0783 1888.51 13.1654 1886.31 13.3828C1886.31 12.948 1886.09 12.2957 1886.09 11.8609C1886.09 11.426 1886.31 11.2086 1886.75 11.2086C1890.27 11.2086 1892.91 7.94733 1896.66 8.59959C1896.88 8.59959 1897.1 8.59959 1897.32 8.59959V8.81701L1897.54 9.03443C1897.98 10.1215 1899.3 10.9912 1898.42 11.8609ZM1909.87 8.59959C1909.21 8.59959 1908.55 8.59959 1907.89 8.59959C1907.67 8.59959 1907.45 8.59959 1907.23 8.59959C1907.45 8.16475 1907.67 7.94733 1908.11 7.51249C1908.33 7.51249 1908.33 7.51249 1908.55 7.72991C1908.99 7.94733 1909.65 7.94733 1909.87 8.59959Z" fill="url(#paint0_linear_10938_8837)"/>
  <defs>
    <linearGradient id="paint0_linear_10938_8837" x1="1020" y1="-1.49036e-05" x2="1020" y2="40" gradientUnits="userSpaceOnUse">
      <stop offset="0.410407" stop-color="#FAFAFA"/>
      <stop offset="0.984" stop-color="#FAFAFA" stop-opacity="1"/>
    </linearGradient>
  </defs>
</svg>