<?xml version="1.0" standalone="no"?>
<!DOCTYPE svg PUBLIC "-//W3C//DTD SVG 20010904//EN"
 "http://www.w3.org/TR/2001/REC-SVG-20010904/DTD/svg10.dtd">
<svg version="1.0" xmlns="http://www.w3.org/2000/svg"
 width="300.000000pt" height="172.000000pt" viewBox="0 0 300.000000 172.000000"
 preserveAspectRatio="xMidYMid meet">
<metadata>
Created by potrace 1.10, written by Peter Selinger 2001-2011
</metadata>
<g transform="translate(0.000000,172.000000) scale(0.100000,-0.100000)"
fill="#000000" stroke="none">
<path d="M1023 1706 c-35 -16 -43 -28 -88 -131 -17 -39 -75 -147 -128 -241
-88 -156 -100 -172 -129 -178 -65 -13 -125 -81 -142 -163 l-7 -31 -89 -4
c-116 -4 -159 -31 -208 -131 -18 -37 -44 -75 -58 -83 -22 -15 -23 -18 -8 -28
14 -11 12 -13 -11 -24 -25 -12 -27 -11 -22 7 4 18 0 17 -41 -11 -56 -37 -92
-68 -92 -79 0 -16 56 -37 166 -63 96 -23 117 -31 150 -62 80 -76 104 -86 205
-86 50 0 95 4 101 10 16 16 74 -3 121 -42 25 -20 60 -41 78 -46 52 -15 125
-12 139 5 7 8 17 15 22 15 5 0 18 10 27 22 l18 22 18 -27 c14 -22 65 -57 83
-57 3 0 -5 11 -18 25 -12 13 -27 23 -33 22 -5 -1 -12 4 -14 11 -8 20 32 14 53
-9 10 -12 19 -31 19 -43 0 -33 115 -88 176 -83 46 4 109 38 109 59 0 6 -6 6
-15 -2 -13 -11 -15 -10 -10 6 4 12 1 10 -10 -6 l-15 -25 2 25 c2 19 8 24 23
22 11 -1 39 -4 63 -5 33 -3 50 -11 72 -35 16 -18 36 -32 44 -32 8 0 38 -20 66
-45 46 -40 123 -75 169 -75 8 0 38 23 67 51 l51 50 53 -7 c34 -4 59 -14 70
-27 57 -65 133 -125 194 -153 84 -38 130 -29 207 42 44 41 66 54 89 54 52 0
99 26 115 63 28 67 175 575 175 604 0 19 -10 40 -26 56 l-26 26 35 15 c51 21
67 52 87 173 10 59 28 146 40 191 31 122 62 359 51 381 -30 56 -64 59 -736 71
-302 5 -696 12 -875 15 -273 5 -330 4 -357 -9z m707 -11 c503 -6 1087 -21
1167 -31 23 -3 52 -13 65 -24 l23 -18 -18 -128 c-10 -71 -29 -176 -43 -234
-13 -58 -30 -144 -39 -192 -20 -119 -35 -151 -79 -172 -31 -15 -47 -16 -99 -8
l-62 9 47 2 c95 2 118 25 149 147 30 117 18 123 -15 7 -15 -56 -36 -108 -45
-116 -9 -8 -38 -18 -66 -22 l-50 -7 24 26 c14 14 20 26 14 26 -6 0 -16 -7 -23
-15 -7 -8 -23 -15 -37 -15 -32 0 -95 50 -83 65 6 8 -2 23 -25 45 -41 40 -48
29 -8 -12 24 -25 25 -28 7 -28 -10 0 -31 6 -45 14 -21 10 -38 11 -78 3 -45 -9
-56 -7 -100 15 -27 13 -47 18 -44 12 2 -7 18 -18 34 -24 37 -16 36 -21 -2 -44
-26 -15 -44 -18 -103 -12 -48 4 -66 3 -56 -4 8 -5 33 -10 56 -10 47 0 59 -7
43 -27 -16 -19 -76 -16 -94 5 -9 9 -29 34 -47 55 -39 48 -76 67 -147 77 -40 6
-65 4 -90 -6 -37 -16 -61 -6 -61 26 0 20 52 48 58 31 2 -6 8 -11 13 -11 13 0
11 167 -2 175 -7 5 -10 -10 -9 -46 3 -86 2 -88 -36 -106 -29 -14 -38 -15 -55
-4 -31 19 -34 6 -5 -17 15 -11 26 -27 26 -35 0 -9 5 -19 11 -22 7 -5 5 -13 -6
-25 -26 -29 -130 -16 -173 21 -18 16 -38 29 -44 29 -6 0 -8 3 -5 7 8 8 -22 43
-36 43 -6 0 -2 -9 8 -20 17 -19 17 -19 -16 -10 -54 16 -90 12 -149 -16 -65
-30 -128 -29 -163 4 -56 53 -150 66 -226 32 -38 -18 -46 -18 -60 -6 -30 25
-66 40 -106 42 -22 1 -52 6 -67 12 l-27 11 80 143 c44 79 105 193 134 254 67
137 81 147 200 140 44 -3 307 -8 585 -11z m-953 -556 c56 -15 123 -75 123
-111 0 -14 -6 -41 -14 -59 -13 -31 -17 -33 -55 -30 -53 3 -107 -14 -151 -49
l-36 -28 -52 47 -52 46 17 53 c22 67 57 109 108 127 50 18 55 18 112 4z m98
-16 c31 -15 47 -33 29 -33 -9 0 -74 41 -74 46 0 7 8 5 45 -13z m293 -30 c31
-15 77 -65 101 -110 8 -16 9 -29 1 -42 -5 -11 -10 -29 -10 -41 0 -22 -2 -23
-68 -40 -81 -21 -162 -120 -177 -215 -4 -23 0 -67 8 -105 9 -36 14 -66 12 -68
-2 -2 -15 18 -28 45 -31 60 -66 78 -127 64 -24 -5 -47 -15 -52 -23 -5 -7 -12
-19 -16 -26 -12 -19 -180 6 -192 28 -5 8 -14 43 -21 77 -17 85 4 157 65 218
106 105 257 82 345 -53 39 -60 52 -63 22 -4 -22 43 -105 122 -128 122 -18 0
-12 31 19 96 43 93 144 125 246 77z m-228 -22 c0 -19 -22 -23 -38 -7 -15 15
-14 16 11 16 15 0 27 -4 27 -9z m607 -2 c44 -16 93 -69 124 -134 44 -91 41
-105 -31 -137 -51 -22 -65 -35 -99 -88 -24 -37 -42 -57 -45 -49 -2 8 -10 31
-16 51 -17 56 -86 120 -154 143 -31 11 -56 25 -56 32 0 20 31 95 52 124 39 57
152 86 225 58z m497 -56 c64 -45 96 -106 103 -197 l6 -77 -40 -39 c-23 -21
-56 -65 -74 -97 l-33 -58 -20 68 c-33 118 -133 207 -231 207 -25 0 -45 2 -45
3 0 21 46 128 66 155 60 77 184 94 268 35z m-736 2 c-6 -14 -14 -25 -18 -25
-4 0 -15 11 -24 25 l-16 25 35 0 c33 0 34 -1 23 -25z m433 -25 c18 0 18 -2 -3
-45 -12 -25 -24 -45 -27 -45 -4 0 -16 23 -28 51 l-23 51 31 -6 c17 -3 40 -6
50 -6z m785 -10 c69 -34 119 -97 144 -181 18 -60 20 -82 13 -116 -6 -23 -7
-40 -2 -38 10 7 39 94 39 119 0 29 -24 72 -38 69 -7 -2 -12 2 -12 7 0 6 8 10
18 10 13 1 11 4 -8 16 l-25 15 25 -5 c14 -3 35 -6 47 -6 27 0 93 -56 93 -79 0
-22 -156 -546 -176 -593 -16 -36 -37 -49 -96 -62 l-28 -6 25 36 c14 20 25 42
25 49 0 6 9 20 21 31 11 10 26 28 32 39 19 36 124 395 116 395 -5 0 -9 7 -9
15 0 8 6 15 14 15 7 0 19 20 26 44 12 43 11 46 -15 70 -40 37 -54 32 -18 -6
28 -31 30 -35 19 -66 -6 -18 -14 -30 -18 -27 -5 5 -33 -74 -118 -330 -16 -46
-19 -49 -53 -51 -74 -5 -197 -53 -197 -77 0 -5 15 0 33 11 31 20 128 52 153
52 15 0 -14 -68 -61 -143 -36 -56 -24 -55 -240 -19 -159 27 -160 28 -183 62
-12 18 -25 45 -27 59 -3 14 -12 54 -20 88 -8 34 -15 77 -15 96 0 47 64 169
111 212 43 38 125 60 186 49 58 -10 151 -63 189 -108 34 -40 73 -141 75 -195
1 -14 5 -37 10 -51 6 -17 7 -3 4 45 -3 38 -12 91 -22 116 l-16 47 31 31 c44
44 53 40 36 -18 -11 -38 -12 -55 -3 -74 8 -19 9 -34 1 -56 -6 -17 -7 -31 -3
-31 15 0 28 65 18 87 -12 27 -1 87 19 107 13 13 12 16 -6 26 -21 11 -60 -2
-60 -21 0 -5 -11 -14 -24 -20 -21 -10 -28 -7 -59 28 -20 22 -60 52 -89 68 -45
25 -64 30 -128 30 -41 0 -84 -3 -95 -8 -19 -6 -21 -4 -17 26 2 18 -1 56 -6 85
l-9 52 28 0 c33 0 34 -5 14 -53 -8 -20 -15 -51 -14 -69 0 -28 2 -25 15 21 24
90 76 155 149 187 46 20 132 17 181 -6z m-1974 -59 c25 -16 52 -39 61 -51 15
-21 14 -26 -9 -71 -26 -52 -33 -144 -14 -193 17 -45 -6 -73 -32 -40 -52 64
-81 82 -71 43 4 -12 11 -18 20 -15 8 4 17 -4 23 -18 5 -14 15 -28 22 -33 13
-7 48 -57 48 -67 0 -2 -17 1 -38 6 -33 8 -41 15 -50 46 l-11 37 4 -38 c3 -26
0 -37 -7 -35 -12 4 -17 12 -37 58 -10 23 -11 23 -5 -7 7 -38 6 -39 -96 -22
-57 10 -74 17 -101 45 -37 38 -34 39 57 24 118 -20 124 -21 124 -10 0 5 -7 10
-15 10 -20 0 -19 17 3 29 15 9 15 10 1 11 -9 0 -23 -9 -30 -20 -13 -19 -17
-19 -84 -7 -67 12 -71 15 -82 48 -28 80 -5 173 57 235 46 46 87 62 161 63 44
1 64 -5 101 -28z m799 -92 c43 -22 96 -79 117 -128 8 -20 18 -88 23 -151 4
-63 10 -126 13 -140 4 -14 -2 -8 -13 15 -11 22 -20 33 -19 25 0 -8 13 -42 29
-75 27 -55 29 -56 13 -7 -3 9 4 1 15 -18 11 -19 20 -42 20 -50 0 -10 -2 -11
-6 -2 -2 6 -9 10 -14 6 -15 -9 -71 125 -64 153 5 20 0 26 -29 38 -20 8 -53 15
-75 15 -34 0 -45 -6 -68 -35 -32 -40 -44 -41 -158 -21 -62 11 -72 15 -85 42
-24 48 -20 170 8 224 41 78 88 116 162 130 44 9 85 2 131 -21z m474 -43 c72
-33 120 -90 144 -174 20 -67 27 -154 15 -185 -4 -12 -17 -14 -59 -10 -59 6
-98 -10 -110 -46 -3 -10 -11 -21 -18 -24 -13 -5 -252 29 -266 38 -13 8 -34
152 -28 195 13 96 84 189 165 214 67 21 100 19 157 -8z m-1615 -90 c0 -7 3
-29 6 -47 l6 -34 -33 32 c-18 18 -29 36 -25 40 4 4 14 -1 22 -12 15 -19 15
-19 9 8 -5 17 -3 27 4 27 6 0 11 -6 11 -14z m-70 -69 c11 -3 20 -1 20 4 0 5
-7 9 -15 9 -8 0 -15 4 -15 9 0 20 19 20 41 1 13 -11 21 -19 18 -20 -3 0 12
-18 33 -41 22 -23 37 -43 35 -46 -5 -4 -236 52 -244 60 -3 3 17 21 44 41 l48
35 8 -24 c4 -12 17 -25 27 -28z m2545 -108 c-25 -85 -53 -172 -61 -194 -15
-38 -60 -95 -75 -95 -14 0 24 80 45 94 16 10 36 59 76 184 30 94 56 170 58
168 2 -2 -18 -73 -43 -157z m-1726 42 c10 -6 26 -29 36 -53 11 -24 22 -45 26
-48 3 -3 11 -14 18 -25 11 -19 12 -18 6 5 -4 18 1 14 15 -13 24 -44 24 -48 -7
-36 -14 5 -36 35 -57 77 -22 44 -43 72 -61 80 -35 16 -53 15 -30 -2 12 -9 16
-19 12 -32 -7 -18 -6 -18 7 -1 16 21 26 22 26 3 0 -8 11 -27 25 -42 14 -16 25
-36 23 -46 -4 -26 -22 -24 -30 4 l-6 23 -1 -23 c-1 -29 -25 -24 -29 6 -2 12
-8 22 -13 22 -6 0 -7 -9 -4 -20 8 -24 8 -24 -114 -4 -120 19 -136 26 -157 65
l-16 32 31 -6 c17 -4 60 -9 95 -13 55 -6 67 -4 72 10 9 23 23 20 34 -6 l9 -23
0 22 c1 12 -4 25 -9 28 -34 21 61 36 99 16z m-342 -43 c11 -13 23 -31 26 -41
11 -29 -30 -2 -48 33 -18 35 -7 39 22 8z m-252 -12 c17 -2 47 -7 68 -11 30 -5
41 -13 57 -44 l19 -39 -38 2 c-38 2 -79 25 -146 82 -23 20 -25 24 -10 21 11
-3 34 -8 50 -11z m1044 -17 c19 -7 31 -18 31 -29 0 -9 14 -48 31 -85 16 -37
29 -69 27 -71 -7 -6 -48 8 -48 17 0 13 14 11 30 -3 12 -11 12 -10 3 2 -6 8
-15 29 -22 45 -7 18 -10 21 -7 8 3 -15 -1 -23 -9 -23 -8 0 -15 -6 -18 -12 -2
-7 -2 -3 -1 9 6 34 -13 36 -20 2 -7 -38 -26 -29 -27 14 -1 18 -5 46 -10 62 -6
23 -7 15 -6 -33 2 -58 1 -63 -18 -58 -11 2 -70 14 -131 26 -102 20 -112 25
-128 52 -10 16 -16 32 -13 34 2 3 46 -3 98 -12 l93 -17 30 35 c43 49 62 55
115 37z m-886 -26 c2 -10 8 -26 12 -35 14 -34 -11 -18 -28 17 -13 28 -14 35
-3 35 8 0 16 -8 19 -17z m95 -21 c12 -15 10 -17 -18 -20 -34 -4 -60 12 -60 35
0 21 60 9 78 -15z m57 -2 c4 -6 10 -8 15 -5 8 5 171 -19 212 -31 10 -3 22 -20
27 -37 l9 -32 1 33 c1 17 6 32 11 32 11 0 12 -15 4 -47 -9 -32 -66 -32 -88 -1
-8 12 -13 25 -11 29 3 4 -20 9 -49 11 l-55 3 27 -29 27 -29 -30 20 c-16 12
-40 32 -53 46 -15 16 -30 23 -45 20 -14 -3 -29 2 -36 11 -12 14 -10 16 7 16
12 0 24 -5 27 -10z m1275 -75 c4 -29 7 -35 12 -22 13 32 28 18 67 -63 26 -55
34 -80 25 -80 -22 0 -54 38 -61 71 -3 16 -10 32 -16 36 -6 4 -7 -4 -3 -22 5
-19 3 -31 -6 -36 -22 -14 -29 -10 -18 10 12 24 13 31 1 31 -5 0 -12 -11 -15
-24 -7 -28 -28 -38 -62 -30 -21 5 -24 12 -25 53 l-1 46 -11 -42 c-5 -24 -15
-43 -21 -43 -17 0 -238 39 -241 42 -4 5 -35 67 -35 71 0 2 33 -2 73 -9 39 -7
99 -16 133 -19 l61 -7 21 35 c15 27 29 37 54 40 58 7 63 4 68 -38z m57 10 c9
-24 0 -25 -27 -5 l-25 20 23 0 c12 0 25 -7 29 -15z m-1167 -15 c25 -25 27 -44
2 -31 -9 5 -26 19 -36 30 -17 19 -17 21 -3 21 10 0 26 -9 37 -20z m413 -22
c105 -22 107 -22 107 -50 0 -15 0 -31 0 -35 0 -5 -11 -9 -25 -11 -27 -4 -32 7
-12 27 10 10 9 11 -4 6 -11 -4 -22 3 -33 20 -26 39 -30 23 -6 -20 29 -51 16
-57 -24 -13 -19 20 -49 43 -67 51 -19 8 -43 22 -54 31 -28 21 -12 21 118 -6z
m-48 -63 c17 -13 25 -24 18 -25 -7 0 -25 11 -40 25 -36 32 -17 32 22 0z m370
-5 c0 -1 14 -3 30 -4 17 -1 74 -9 128 -16 l99 -15 -6 -29 c-3 -15 -6 -39 -6
-52 0 -13 -4 -24 -10 -24 -5 0 -10 12 -10 26 0 35 -17 64 -38 64 -16 -1 -16
-1 1 -11 9 -5 17 -15 17 -21 0 -15 -71 0 -93 19 -9 9 -20 13 -24 10 -3 -4 0
-7 7 -7 7 0 10 -3 7 -7 -4 -3 -26 9 -49 27 -23 19 -39 27 -36 18 6 -14 3 -14
-23 -1 -37 19 -47 34 -17 29 13 -3 23 -5 23 -6z m302 -91 c-18 -21 -36 -39
-40 -39 -7 0 0 65 9 81 2 3 17 4 33 1 l30 -4 -32 -39z m673 26 c0 -19 -56 -82
-65 -73 -7 6 50 88 61 88 2 0 4 -7 4 -15z m-799 -36 c29 2 39 -1 39 -13 0 -24
-19 -29 -45 -12 -17 11 -25 13 -25 5 0 -7 -8 -5 -20 6 -24 21 -27 44 -4 24 9
-7 33 -12 55 -10z m373 -18 c17 -19 17 -21 3 -21 -19 0 -57 34 -57 50 0 14 30
-2 54 -29z m177 -6 c75 -14 147 -25 160 -25 22 0 20 -4 -22 -46 -74 -74 -159
-76 -223 -6 -18 21 -18 21 5 19 13 -1 34 -13 47 -27 15 -17 20 -19 16 -8 -5
15 0 18 37 18 50 0 89 9 89 19 0 4 -30 4 -66 0 -51 -7 -70 -5 -88 7 -13 8 -30
12 -38 9 -9 -4 -33 11 -59 35 -38 35 -41 40 -19 35 14 -2 86 -16 161 -30z
m-110 -67 l23 -33 -30 25 c-16 14 -33 28 -38 32 -6 5 -3 8 6 8 9 0 27 -15 39
-32z"/>
<path d="M1075 1661 c-47 -12 -79 -37 -105 -83 -17 -31 -19 -39 -7 -29 9 7 17
11 17 7 0 -3 -25 -56 -55 -116 -59 -117 -66 -143 -16 -57 17 28 31 48 31 44 0
-12 -49 -105 -59 -112 -17 -10 -73 -115 -69 -127 3 -7 18 14 34 46 16 32 37
66 47 77 22 24 64 115 69 149 2 14 8 28 13 32 6 4 11 15 11 25 1 10 5 27 10
37 5 14 4 17 -4 12 -17 -10 -15 5 4 32 27 39 67 52 161 53 74 1 82 3 48 10
-48 9 -89 10 -130 0z"/>
<path d="M1261 1651 c-11 -7 -5 -10 24 -13 39 -3 40 -4 58 -63 13 -41 17 -81
15 -128 -3 -58 -2 -66 9 -51 18 24 15 85 -6 167 -10 37 -14 70 -10 73 10 6 14
-1 38 -80 12 -37 21 -91 21 -120 0 -37 3 -47 10 -36 13 19 3 99 -22 174 -20
60 -19 72 5 63 13 -5 20 -23 48 -127 11 -42 13 -43 20 -20 6 18 8 10 5 -27 -2
-29 1 -53 5 -53 13 0 10 77 -6 150 -8 36 -14 68 -15 72 0 4 12 9 28 11 15 2
-11 5 -58 6 -47 0 -101 4 -120 6 -19 3 -41 1 -49 -4z m192 -50 c18 -89 18 -88
4 -51 -24 61 -29 80 -19 80 5 0 12 -13 15 -29z"/>
<path d="M1529 1645 c-3 -2 6 -51 20 -107 14 -57 27 -96 29 -87 2 9 -4 47 -13
83 -8 37 -15 78 -15 92 0 22 -10 31 -21 19z"/>
<path d="M1576 1633 c4 -10 14 -57 23 -105 8 -49 18 -88 21 -88 8 0 -6 110
-20 159 -5 19 -5 30 -1 25 14 -15 41 -136 41 -185 1 -34 3 -40 11 -27 7 12 3
46 -11 114 -24 117 -24 111 -2 117 9 3 -3 5 -27 6 -38 1 -42 -1 -35 -16z"/>
<path d="M1714 1642 c4 -7 15 -12 26 -12 20 0 26 -16 35 -105 8 -77 15 -109
22 -102 9 10 -20 217 -31 217 -6 0 -22 3 -35 7 -17 4 -22 3 -17 -5z"/>
<path d="M1891 1641 c-11 -7 -5 -10 20 -13 l34 -3 5 -105 5 -105 5 107 5 108
-29 10 c-34 12 -28 12 -45 1z"/>
<path d="M1030 1614 c-18 -16 -29 -33 -26 -41 3 -8 1 -24 -5 -36 -9 -20 -9
-21 4 -4 15 19 34 7 22 -13 -6 -10 86 -123 93 -115 3 2 -17 36 -44 76 -26 40
-49 81 -49 91 -2 24 23 38 72 39 21 0 32 3 24 6 -11 5 -11 7 0 14 9 6 2 9 -23
9 -25 0 -46 -8 -68 -26z"/>
<path d="M1668 1635 c-3 -3 1 -31 8 -63 8 -31 14 -88 15 -127 1 -64 2 -67 11
-35 7 24 6 58 -2 110 -7 41 -13 83 -14 92 -3 20 -10 30 -18 23z"/>
<path d="M1794 1593 c4 -27 9 -74 13 -105 3 -32 10 -58 14 -58 5 0 9 3 9 8 0
10 -19 131 -26 164 -4 22 -1 27 18 31 20 4 19 4 -6 6 -29 1 -29 1 -22 -46z"/>
<path d="M1997 1629 c4 -4 37 -9 73 -11 l65 -3 7 -104 c4 -56 9 -106 12 -109
8 -8 6 145 -2 193 l-7 40 -78 1 c-43 1 -75 -2 -70 -7z"/>
<path d="M2220 1630 c-36 -4 -44 -7 -24 -8 18 -1 34 -9 38 -17 3 -9 4 -62 1
-118 -2 -64 0 -96 5 -87 6 8 10 59 10 113 0 58 4 97 10 97 6 0 10 -30 11 -67
0 -38 4 -88 9 -113 7 -33 8 -13 5 73 l-4 117 27 0 c70 0 72 -3 74 -114 l2
-101 3 100 c4 100 14 125 40 103 8 -7 13 -37 14 -82 0 -39 4 -80 9 -91 6 -13
9 11 7 72 -2 80 0 93 15 96 16 5 18 -7 21 -112 l3 -116 2 118 c2 117 2 117 26
117 22 0 25 -5 31 -56 15 -119 12 -159 -17 -200 -15 -21 -25 -40 -22 -43 7 -7
29 19 53 61 18 33 20 48 14 133 -4 69 -3 95 5 95 8 0 12 -30 12 -94 0 -61 4
-97 12 -102 8 -5 10 20 5 101 l-6 107 44 -4 c28 -4 56 -15 75 -32 31 -26 57
-35 45 -16 -10 16 89 12 111 -5 28 -21 40 -18 19 5 -15 17 -31 20 -91 20 -81
0 -106 14 -42 24 22 4 39 8 37 10 -2 2 -107 6 -234 10 -126 3 -246 7 -265 9
-19 3 -60 1 -90 -3z"/>
<path d="M1190 1555 c19 -41 38 -75 42 -75 8 0 -39 116 -55 138 -25 32 -19 5
13 -63z"/>
<path d="M1250 1624 c0 -6 11 -44 25 -84 14 -40 25 -84 25 -97 0 -13 5 -23 10
-23 16 0 12 29 -16 115 -25 74 -44 114 -44 89z"/>
<path d="M1501 1610 c-2 -24 26 -161 34 -168 4 -4 4 18 0 47 -8 59 -32 146
-34 121z"/>
<path d="M1716 1563 c8 -32 14 -76 15 -98 0 -22 4 -49 9 -60 6 -15 9 -8 9 28
1 54 -26 187 -38 187 -5 0 -2 -26 5 -57z"/>
<path d="M1854 1576 c3 -27 6 -71 6 -97 0 -28 5 -49 11 -49 13 0 2 157 -13
180 -6 10 -7 -1 -4 -34z"/>
<path d="M2830 1612 c0 -6 16 -14 36 -19 65 -15 66 -27 28 -216 -18 -92 -36
-177 -39 -188 -4 -10 -2 -19 3 -19 12 0 85 367 78 395 -5 21 -28 34 -83 50
-13 3 -23 2 -23 -3z"/>
<path d="M1984 1545 c4 -38 9 -91 12 -117 l6 -46 -39 5 c-34 4 -45 1 -73 -24
-25 -23 -31 -35 -26 -49 7 -17 9 -16 21 11 7 17 14 26 14 21 1 -6 7 -2 14 8 8
11 26 18 49 18 19 0 40 3 45 7 7 4 5 43 -3 115 -15 121 -31 161 -20 51z"/>
<path d="M2041 1528 c-1 -48 3 -90 9 -93 12 -8 12 131 0 160 -6 13 -9 -9 -9
-67z"/>
<path d="M2176 1525 c4 -50 11 -97 16 -105 5 -9 6 23 2 80 -3 52 -10 99 -15
105 -6 6 -7 -26 -3 -80z"/>
<path d="M1070 1589 c1 -14 90 -180 90 -167 0 8 -77 168 -85 176 -3 3 -5 -1
-5 -9z"/>
<path d="M1121 1590 c0 -8 13 -46 29 -85 17 -38 30 -73 30 -77 0 -4 -11 -24
-25 -44 -17 -24 -25 -31 -25 -19 0 13 -3 15 -13 7 -10 -8 -19 -8 -33 2 -48 33
-114 67 -114 59 0 -5 16 -17 36 -28 20 -11 31 -21 25 -23 -7 -2 -18 2 -27 8
-8 7 -16 11 -19 9 -5 -5 102 -89 113 -89 4 1 -8 14 -26 29 -24 20 -30 31 -21
36 7 5 10 4 6 -2 -7 -11 50 -40 69 -35 6 1 17 -29 25 -67 l15 -69 -24 -12
c-21 -9 -28 -8 -47 10 -12 11 -28 20 -36 20 -19 -1 37 -50 57 -50 9 0 24 4 34
10 15 8 20 6 25 -10 7 -21 25 -28 25 -10 0 26 -34 146 -43 151 -14 10 1 62 15
53 8 -5 9 -2 5 10 -5 13 3 21 36 36 41 19 41 20 12 20 -26 0 -33 5 -44 36 -23
63 -60 139 -60 124z"/>
<path d="M1168 1540 c15 -33 30 -60 34 -60 3 0 -6 27 -20 60 -15 33 -30 60
-34 60 -3 0 6 -27 20 -60z"/>
<path d="M1884 1587 c3 -10 6 -54 6 -98 0 -50 4 -79 11 -79 14 0 1 171 -14
185 -7 7 -8 4 -3 -8z"/>
<path d="M2341 1503 c0 -64 3 -91 9 -78 12 28 12 163 0 170 -6 4 -10 -29 -9
-92z"/>
<path d="M2087 1534 c3 -32 9 -86 14 -119 7 -50 7 -42 5 48 -2 61 -7 112 -14
119 -8 8 -9 -5 -5 -48z"/>
<path d="M1042 1564 c28 -50 82 -133 85 -130 5 5 -67 125 -80 133 -5 3 -8 2
-5 -3z"/>
<path d="M2781 1510 c-6 -28 -11 -59 -10 -68 1 -16 9 10 23 71 5 22 10 26 20
18 11 -9 10 -21 -5 -67 -19 -59 -35 -132 -26 -124 3 3 15 42 27 88 16 59 27
82 38 82 10 0 3 10 -18 25 -19 14 -35 25 -36 25 -1 0 -7 -23 -13 -50z"/>
<path d="M2721 1485 c-1 -129 20 -154 38 -46 15 91 12 123 -4 46 l-13 -60 -2
45 c-3 80 -19 92 -19 15z"/>
<path d="M2869 1503 c-1 -5 -1 -11 0 -15 0 -4 -10 -38 -24 -74 -14 -37 -23
-69 -20 -72 2 -3 7 1 10 9 2 8 11 32 19 54 17 46 21 19 6 -37 -9 -33 -35 -56
-48 -43 -3 3 5 41 17 86 12 45 20 83 18 85 -2 3 -14 -33 -27 -78 -13 -46 -29
-90 -37 -99 -7 -8 -13 -25 -13 -37 0 -11 -4 -23 -9 -26 -5 -4 -7 3 -4 15 4 13
-3 30 -23 50 -29 30 -27 36 7 19 13 -7 19 -7 19 -1 0 6 -11 13 -25 17 -14 3
-30 15 -36 25 -7 13 -20 19 -42 18 -25 -1 -27 -3 -9 -6 24 -5 55 -31 59 -51 2
-7 -9 -9 -31 -5 -61 10 -132 -55 -97 -90 8 -8 11 -4 11 15 0 17 10 34 26 47
32 25 52 26 82 5 12 -8 26 -13 31 -10 16 10 18 -18 5 -58 -8 -21 -14 -47 -14
-58 0 -16 -3 -17 -21 -8 -12 7 -18 18 -15 26 6 15 -9 20 -19 5 -3 -5 9 -24 27
-42 35 -33 19 -30 -19 4 -13 11 -26 17 -30 14 -8 -9 36 -57 50 -54 5 1 10 -10
11 -26 1 -24 -5 -31 -53 -53 l-55 -25 -33 33 c-18 17 -33 27 -33 22 0 -18 54
-62 85 -68 21 -5 37 -1 50 9 20 16 19 16 -2 6 -40 -20 -49 -10 -10 10 22 11
41 18 44 16 2 -3 -3 -19 -11 -36 -19 -35 -20 -45 -5 -36 11 7 53 97 63 137 6
19 4 18 -9 -5 -19 -33 -30 -31 -17 4 5 13 12 46 16 73 6 36 10 46 19 37 9 -9
8 -17 -1 -32 -16 -25 -8 -39 21 -38 17 1 18 2 5 6 -21 5 -21 5 -7 58 6 22 10
50 10 61 0 18 6 23 34 26 19 2 35 2 35 0 0 -2 -11 -17 -25 -34 -23 -27 -32
-48 -20 -48 2 0 11 12 20 28 10 18 14 20 11 7 -3 -11 -16 -69 -31 -129 -19
-83 -31 -115 -50 -132 -25 -23 -33 -44 -16 -44 5 0 12 6 15 13 3 6 3 1 0 -13
-11 -44 12 -8 34 55 32 88 104 425 98 457 -4 20 -1 28 12 31 12 3 11 5 -5 6
-13 0 -24 -2 -24 -6z"/>
<path d="M861 1379 c-34 -60 -72 -126 -84 -146 -12 -20 -16 -34 -10 -30 19 12
172 287 159 287 -2 0 -31 -50 -65 -111z"/>
<path d="M1575 1400 c3 -5 14 -10 24 -10 10 0 25 -7 32 -16 11 -14 11 -18 -4
-29 -14 -10 -15 -15 -6 -21 8 -4 17 -1 23 8 8 14 16 12 53 -19 24 -20 47 -49
52 -67 l9 -31 1 30 c0 25 -12 41 -75 98 -41 37 -84 67 -95 67 -11 0 -17 -4
-14 -10z"/>
<path d="M1505 1370 c-22 -23 -26 -33 -17 -42 9 -9 12 -7 12 11 0 15 5 21 13
18 7 -2 18 6 24 19 15 33 3 30 -32 -6z"/>
<path d="M1280 1377 c1 -17 109 -132 117 -124 3 4 -21 36 -55 71 -34 35 -62
59 -62 53z"/>
<path d="M1360 1331 c24 -28 47 -51 53 -51 10 0 -71 92 -87 99 -5 2 10 -19 34
-48z"/>
<path d="M2017 1358 c5 -7 26 -34 46 -60 21 -26 44 -62 52 -80 14 -32 14 -32
15 -7 0 28 -92 159 -112 159 -6 0 -7 -5 -1 -12z"/>
<path d="M2335 1355 c-40 -21 -65 -52 -65 -82 0 -41 -32 -157 -49 -176 -15
-18 -41 -19 -86 -2 -16 5 -15 3 5 -14 57 -47 109 -5 130 107 7 39 18 72 23 72
5 0 7 8 4 19 -5 20 9 51 23 51 6 0 10 -7 10 -15 0 -20 46 -30 66 -14 8 7 13
20 11 29 -8 31 38 11 50 -21 10 -26 9 -33 -8 -50 -10 -10 -27 -19 -36 -19 -16
0 -16 1 0 13 15 10 8 12 -43 12 -33 0 -60 -2 -60 -5 0 -3 6 -14 14 -25 7 -11
17 -62 21 -112 4 -51 11 -93 17 -93 5 0 7 15 4 33 -12 76 -15 142 -6 122 5
-11 9 -40 10 -65 1 -25 6 -56 11 -70 6 -17 7 -5 4 39 -3 35 -5 74 -5 87 0 13
-10 32 -22 44 -28 26 -21 31 19 14 27 -12 33 -20 38 -59 4 -25 11 -45 15 -45
4 0 4 17 -1 38 -11 47 -11 52 0 52 4 0 14 -26 20 -57 16 -83 32 -136 38 -129
3 3 -5 50 -17 106 -19 80 -21 103 -11 113 10 9 15 8 27 -7 8 -11 14 -26 14
-35 0 -18 50 -104 57 -97 3 3 -4 20 -16 39 -11 19 -18 36 -15 40 3 3 -10 38
-29 79 -31 68 -37 75 -74 86 -51 15 -52 15 -88 -3z m54 -19 c10 -12 8 -17 -6
-25 -27 -14 -51 2 -34 23 17 20 25 20 40 2z"/>
<path d="M1960 1350 c0 -5 -6 -10 -14 -10 -8 0 -17 -7 -20 -16 -4 -11 0 -15
15 -12 22 3 48 48 29 48 -6 0 -10 -4 -10 -10z"/>
<path d="M996 1297 c27 -29 52 -53 56 -55 17 -8 6 11 -34 56 l-43 47 53 -44
c28 -23 52 -39 52 -34 0 16 -84 78 -108 80 -21 2 -18 -4 24 -50z"/>
<path d="M1260 1335 c-10 -12 -3 -30 39 -100 l50 -86 -25 -9 c-14 -6 -29 -10
-33 -10 -5 0 -14 -7 -21 -15 -16 -19 -11 -19 36 1 21 9 55 34 76 55 40 42 38
52 -5 19 l-25 -20 -29 52 c-16 29 -36 63 -44 76 -12 19 -12 24 0 31 8 5 9 11
3 15 -5 3 -15 -1 -22 -9z"/>
<path d="M2180 1330 c-20 -20 -28 -56 -10 -45 6 3 10 13 10 20 0 8 12 21 28
29 19 11 22 15 10 16 -10 0 -27 -9 -38 -20z"/>
<path d="M930 1328 c0 -7 11 -30 25 -50 29 -43 31 -50 8 -41 -11 4 -14 3 -9
-5 4 -7 1 -15 -8 -18 -21 -8 -20 -24 5 -54 20 -25 21 -19 3 26 -3 5 4 18 15
28 18 17 20 16 37 -13 19 -32 42 -44 25 -13 -25 47 -101 152 -101 140z"/>
<path d="M1185 1324 c12 -10 16 -18 9 -21 -13 -4 24 -163 37 -163 4 0 -1 32
-11 71 -10 39 -16 77 -13 85 6 16 -14 44 -31 44 -6 0 -2 -8 9 -16z"/>
<path d="M1680 1274 c18 -25 34 -43 37 -40 8 7 -47 86 -59 86 -5 0 5 -21 22
-46z"/>
<path d="M1611 1300 c-1 -8 16 -52 36 -97 26 -57 43 -82 56 -83 9 0 17 5 17
10 0 6 12 22 27 36 14 13 23 27 20 31 -9 8 -47 -27 -57 -52 -6 -16 -16 -2 -53
75 -25 52 -46 88 -46 80z"/>
<path d="M1995 1289 c-4 -6 5 -45 21 -87 15 -42 29 -71 32 -64 2 7 -6 37 -18
67 -12 30 -20 64 -17 75 5 21 -7 27 -18 9z"/>
<path d="M1491 1275 c-1 -43 12 -125 21 -125 9 0 0 92 -13 125 -8 20 -8 20 -8
0z"/>
<path d="M1895 1275 c4 -11 12 -57 19 -102 6 -45 15 -85 20 -90 5 -4 6 13 2
42 -4 28 -9 68 -12 90 -3 26 -2 35 4 25 5 -8 12 -39 16 -68 4 -29 11 -62 17
-75 10 -22 9 -12 -8 111 -5 35 -3 42 11 42 10 0 14 5 10 11 -3 6 -18 9 -32 6
-17 -3 -31 1 -40 11 -12 15 -13 15 -7 -3z"/>
<path d="M1548 1255 c-3 -6 4 -39 15 -75 11 -36 22 -58 24 -50 4 20 -32 137
-39 125z"/>
<path d="M2179 1234 c-12 -15 -11 -16 8 -10 15 5 24 2 32 -11 5 -10 12 -15 15
-12 7 6 -22 49 -33 49 -5 0 -15 -7 -22 -16z"/>
<path d="M2282 1182 c-7 -29 -12 -60 -12 -67 0 -8 -4 -15 -10 -15 -5 0 -10 -7
-10 -16 0 -9 5 -14 12 -12 7 3 18 33 25 69 16 78 11 115 -5 41z"/>
<path d="M2575 1195 c-37 -23 -38 -24 -14 -25 14 0 35 9 47 20 41 38 24 41
-33 5z"/>
<path d="M1401 1175 c0 -25 28 -47 53 -41 15 3 26 11 26 16 0 13 -13 13 -28
-2 -8 -8 -16 -5 -31 13 -11 13 -20 20 -20 14z"/>
<path d="M1082 1158 c6 -17 57 -23 72 -8 8 9 6 11 -11 6 -12 -4 -32 -2 -44 4
-17 10 -20 9 -17 -2z"/>
<path d="M2109 1115 c-13 -19 -27 -35 -30 -35 -3 0 -14 -7 -25 -15 -18 -14
-18 -14 0 -15 17 0 96 76 96 92 0 18 -19 5 -41 -27z"/>
<path d="M1709 1061 c-36 -29 -19 -33 21 -5 20 14 28 24 18 24 -9 0 -26 -9
-39 -19z"/>
<path d="M2115 1060 c4 -6 -1 -18 -11 -25 -16 -12 -16 -14 -3 -15 8 0 23 6 32
13 16 11 16 13 -4 25 -13 8 -18 9 -14 2z"/>
<path d="M2180 1033 c0 -5 9 -19 20 -33 13 -16 20 -20 19 -10 0 8 -6 23 -13
33 -14 18 -26 22 -26 10z"/>
<path d="M2065 282 c6 -6 93 -22 195 -37 102 -14 195 -27 208 -29 12 -2 22 1
22 5 0 5 -4 9 -9 9 -13 0 -361 49 -396 56 -21 4 -27 3 -20 -4z"/>
<path d="M460 650 c-11 -7 -4 -10 27 -10 36 0 46 -5 72 -37 17 -21 31 -32 31
-24 0 7 -15 28 -34 47 -34 34 -67 43 -96 24z"/>
<path d="M430 460 c21 -30 40 -46 40 -35 0 11 -44 65 -53 65 -4 0 1 -13 13
-30z"/>
</g>
</svg>
