<svg width="205" height="120" viewBox="0 0 205 120" fill="none" xmlns="http://www.w3.org/2000/svg">
<path d="M151.391 120C147.556 120 143.721 120 139.886 120C139.694 119.904 139.502 119.808 139.31 119.712C129.147 118.657 122.819 112.998 120.039 103.213C119.08 99.8561 117.546 96.5947 116.108 92.8537C114.862 94.964 113.711 96.4988 113.04 98.2254C111.506 101.966 108.629 103.981 105.082 105.324C96.3571 108.585 87.4405 108.297 78.5239 106.475C74.0176 105.612 70.6619 102.638 68.1691 98.801C67.0185 96.9784 65.9639 94.964 65.1969 92.9496C63.7587 89.1127 62.5123 85.1799 61.0741 81.3429C60.7865 80.5755 59.9236 80 59.2524 79.4245C58.7731 80.0959 58.006 80.6715 57.8143 81.4389C57.3349 83.5492 57.0473 85.7554 56.6637 87.8657C55.8967 92.1823 53.0204 94.7722 48.7059 95.1559C44.7749 95.5396 40.8439 96.0192 36.9129 96.307C27.9004 97.0743 20.5178 94.3885 18.4085 84.0288C17.9291 81.4389 17.0662 78.9448 16.2033 76.4508C15.0528 73.1895 13.1353 70.5995 10.2589 68.3933C6.13618 65.5156 1.91755 62.2542 0 57.0743C0 55.6355 0 54.1966 0 52.8537C1.24641 48.9209 3.16397 45.5636 6.61556 43.0695C9.77953 40.8633 11.793 37.7938 13.6146 34.4365C17.9291 26.5707 24.9282 21.8705 33.6531 20.1439C35.8583 19.6643 37.0088 18.9928 37.5841 16.8825C39.981 8.34532 46.1172 3.74101 54.1709 1.05516C55.3215 0.671462 56.5679 0.383693 57.8143 0C59.8277 0 61.7453 0 63.7587 0C64.6216 0.28777 65.4845 0.479616 66.3474 0.863309C68.9361 2.11031 71.5248 3.35731 74.1135 4.60432C75.4558 5.27578 76.7981 6.42686 78.2362 6.52278C81.7837 6.81055 83.7013 8.63309 84.7559 11.8945C85.8106 15.06 87.4405 18.0336 88.9746 21.6787C89.3581 20.3357 89.6457 19.7602 89.8374 19.0887C90.7003 14.0048 93.7684 10.4556 97.8912 7.57794C104.123 3.35731 111.026 2.78177 118.217 3.64508C123.682 4.31655 128.668 5.94724 132.215 10.2638C134.612 13.1415 136.53 16.307 138.639 19.3765C138.735 19.5683 138.831 19.7602 138.927 19.952C139.214 24.5564 142.091 25.6115 146.214 25.4197C147.843 25.3237 148.898 25.036 150.049 23.789C154.938 18.6091 160.883 15.2518 167.978 14.6763C176.511 14.1007 184.469 15.5396 189.454 23.3094C191.947 27.1463 193.385 31.6547 195.207 35.9712C195.686 37.1223 195.974 37.6978 197.221 37.9856C200.097 38.4652 202.877 39.4245 204.124 42.5899C204.124 43.8369 204.124 45.1799 204.124 46.4269C203.069 49.1127 202.302 51.9904 200.864 54.4844C198.179 59.3765 196.166 64.3645 194.632 69.7362C193.194 74.7242 191.564 79.7122 189.646 84.6043C187.825 89.4005 183.989 92.0863 178.908 92.9496C177.661 93.1415 176.415 93.2374 175.073 93.2374C171.909 93.3333 171.717 93.4293 170.758 96.4988C169.991 98.8969 169.416 101.391 168.649 103.885C166.348 110.887 162.896 116.835 155.13 118.945C153.884 119.137 152.637 119.616 151.391 120ZM171.717 73.765C171.142 69.2566 170.567 64.6523 169.799 60.1439C168.937 54.3885 166.06 49.5923 162.129 45.5635C154.747 37.9856 145.063 36.3549 134.229 40.8633C123.395 45.3717 117.738 55.3477 119.943 66.7626C120.806 71.5588 122.436 76.1631 123.778 80.8633C124.737 84.1247 125.504 84.7962 128.956 85.1799C133.078 85.5636 137.297 85.8513 141.42 86.4269C151.295 87.9616 160.02 85.4676 168.265 80.1918C170.567 78.4652 172.388 76.9305 171.717 73.765ZM114.67 66.7626C117.738 51.6067 111.122 36.6427 98.5623 29.7362C94.7272 27.6259 90.5086 27.0504 86.1941 28.0096C77.5651 29.9281 71.9083 35.4916 68.4567 43.3573C64.5257 52.3741 65.0051 61.5827 67.4979 70.8873C67.9773 72.6139 69.1279 73.4772 70.8537 73.6691C74.8805 74.3405 78.8115 74.8201 82.7425 75.6835C88.3993 76.9305 92.7138 75.9712 95.7819 70.4077C98.4664 65.4197 103.548 64.2686 108.821 64.4604C110.835 64.5564 112.752 65.9952 114.67 66.7626ZM64.6216 70.7914C64.7175 70.6954 64.9092 70.6954 65.0051 70.5995C64.9092 70.024 64.8134 69.3525 64.7175 68.777C63.4711 62.2542 62.6082 55.8273 64.334 49.2086C64.7175 47.5779 64.334 45.4676 63.8546 43.8369C62.8958 40.9592 61.7453 38.0815 60.3071 35.4916C54.8421 25.8034 44.1996 20.5276 34.3242 22.2542C23.2983 24.1727 14.2858 32.9976 12.4641 43.741C11.5053 49.4964 12.9435 55.1559 13.8064 60.8153C13.9023 61.295 14.8611 61.9664 15.4363 62.0624C20.9014 63.5012 26.3664 65.036 31.8314 66.283C36.4335 67.3381 38.447 66.1871 39.7893 61.5827C41.6109 55.3477 48.61 51.9904 55.2256 53.9089C58.3895 54.7722 60.3071 56.7866 61.0741 59.952C61.6494 62.3501 62.1288 64.7482 62.8958 67.1463C63.3752 68.4892 64.0463 69.6403 64.6216 70.7914ZM8.05373 44.7962C6.13618 45.8513 3.06809 49.976 2.5887 52.47C1.82168 55.8273 2.49282 58.705 4.79389 61.295C9.68365 66.6667 16.0116 69.3525 23.0107 70.5995C43.0491 74.3405 63.0876 77.9856 83.2219 81.6307C94.2478 83.6451 105.178 85.9472 116.204 87.7698C126.75 89.4005 137.393 90.5516 148.035 91.8945C152.254 92.3741 156.664 93.2374 160.883 92.8537C168.17 92.0863 173.73 87.9616 178.141 82.2062C183.51 75.2038 189.071 68.2014 194.152 61.0072C196.933 57.0743 199.042 52.7578 201.247 48.5372C201.823 47.3861 202.11 45.9472 202.11 44.7002C202.206 41.5348 200.001 40.0959 196.645 41.1511C196.837 42.8777 196.549 44.988 197.316 46.5228C198.659 49.2086 199.042 50.7434 197.412 52.9496C193.769 57.9377 188.975 60.6235 182.647 59.8561C179.867 59.5683 177.182 59.0887 174.402 58.705C173.635 58.6091 172.868 58.705 172.005 58.705C172.58 62.3501 173.155 65.7074 173.826 69.0648C173.922 69.5444 174.402 70.024 174.785 70.3118C177.757 72.7098 178.141 75.1079 175.169 77.506C169.512 82.1103 163.663 86.7146 156.185 87.8657C151.295 88.5372 146.309 88.5372 141.42 88.3453C136.338 88.1535 131.257 87.3861 126.175 87.0024C120.039 86.6187 116.108 83.0695 114.862 77.1223C114.286 74.3405 113.423 71.6547 112.177 69.0648C111.602 67.9137 109.876 66.7626 108.629 66.5707C104.89 66.0911 101.439 67.3381 98.9458 70.4077C97.7953 71.8465 96.5489 73.1895 95.5901 74.8201C93.8643 77.7938 91.3715 78.8489 88.1117 78.5612C86.6735 78.4652 85.1394 78.3693 83.7013 78.0815C77.9486 77.2182 72.1959 76.4508 66.5392 75.2998C65.101 75.012 63.5669 73.6691 62.704 72.4221C61.7453 70.9832 61.4576 69.1607 60.9782 67.4341C60.403 65.2278 60.0195 63.0216 59.3483 60.8153C58.3895 57.7458 55.9926 56.1151 52.8286 55.8273C48.0348 55.3477 44.5832 57.2662 42.5697 61.6787C41.9945 62.9257 41.4192 64.2686 40.748 65.5156C39.5016 67.8177 37.4882 69.0648 34.8995 68.9688C33.2696 68.9688 31.6397 68.5851 30.1056 68.2974C26.7499 67.53 23.5859 66.4748 20.2302 65.9952C13.6146 65.036 9.97129 62.1583 8.82075 55.5396C7.95785 51.9904 8.24549 48.3453 8.05373 44.7962ZM146.405 35.9712C147.556 36.1631 148.419 36.4508 149.282 36.5468C153.404 36.5468 156.76 38.3693 159.924 40.7674C164.622 44.3165 168.17 48.6331 170.087 54.2926C170.375 55.1559 171.334 56.211 172.101 56.307C176.319 56.9784 180.538 57.554 184.756 57.8417C188.687 58.0336 191.468 55.4436 194.248 53.2374C194.44 53.0456 194.632 52.7578 194.536 52.47C194.344 48.2494 194.536 43.9329 193.769 39.8082C193.098 36.259 191.468 32.8058 190.221 29.3525C187.92 23.1175 183.702 18.9928 177.182 17.3621C168.361 15.06 160.691 17.554 153.692 22.9257C149.761 26.0911 147.556 30.5995 146.405 35.9712ZM132.407 14.5803C131.257 11.7986 129.339 10.2638 127.134 8.92086C121.189 5.27578 114.67 5.17986 108.054 6.04316C100.192 7.0024 94.5355 11.5108 92.3303 19.1847C90.988 23.693 90.988 23.789 95.1107 25.8034C102.397 29.3525 108.725 33.9568 112.752 41.1511C112.944 41.4389 113.136 41.6307 113.615 42.1103C113.903 41.0552 114.19 40.2878 114.382 39.5204C115.916 33.5731 117.546 27.7218 118.793 21.7746C119.56 18.1295 121.765 16.4988 125.12 15.9233C127.422 15.3477 129.818 14.964 132.407 14.5803ZM136.242 106.091C135.859 106.859 135.284 107.53 135.284 108.01C135.571 110.408 136.051 112.71 136.626 115.108C136.913 116.451 137.776 117.41 139.214 117.41C142.283 117.506 145.447 117.89 148.515 117.698C159.061 116.93 163.951 112.806 166.636 102.638C167.211 100.432 167.786 98.2254 168.361 96.0192C168.553 95.06 168.745 94.1966 169.032 93.1415C166.731 93.717 164.718 94.3885 162.609 94.7722C156.664 95.8273 150.816 94.5803 144.967 93.3333C141.132 92.5659 137.201 91.9904 133.27 91.3189C133.366 94.6763 133.462 94.7722 136.242 95.1559C138.064 95.4436 139.886 95.8273 141.707 96.1151C141.707 96.4988 141.611 96.8825 141.611 97.2662C139.023 97.1703 136.434 97.0743 133.558 96.8825C134.516 100.24 133.174 103.885 136.242 106.091ZM79.0033 91.7026C80.2497 95.8273 81.4961 99.6643 82.5507 103.693C82.9342 105.228 83.7971 105.803 85.3312 105.995C91.2756 106.571 96.9324 105.42 102.685 103.981C109.78 102.158 112.081 96.6907 113.903 90.5516C101.63 88.0576 89.5498 85.6595 77.4692 83.2614C77.0857 86.7146 80.3456 85.4676 81.4961 87.0983C80.2497 87.482 79.195 87.7698 78.2362 88.0576C77.7569 90.8393 80.7291 89.1127 81.3043 90.6475C80.6332 90.8393 79.962 91.223 79.0033 91.7026ZM39.5016 19.6643C48.8018 20.3357 55.5132 25.2278 61.17 32.2302C61.5535 31.271 61.937 30.5995 62.1288 29.9281C63.6628 24.4604 65.1969 19.0887 66.635 13.6211C67.4021 10.6475 69.032 8.63309 71.7166 7.29017C72.1001 7.09832 72.4836 6.90647 73.1547 6.52278C65.868 1.53477 58.3895 1.43885 50.9111 4.89209C44.679 7.57794 40.1728 12.0863 39.5016 19.6643ZM27.5169 82.7818C28.2839 85.6595 29.1468 88.5372 29.818 91.4149C30.2974 93.4293 31.352 94.4844 33.4613 94.3885C38.2552 94.1007 43.0491 93.9089 47.843 93.4293C50.7193 93.1415 53.0204 91.7026 53.9792 88.8249C55.0338 85.6595 55.705 82.3022 56.5679 78.8489C45.8296 77.3142 35.6665 74.2446 24.7365 73.8609C26.0787 77.0264 29.7221 75.9712 31.6397 78.5612C29.5303 78.2734 27.9963 78.0815 26.3664 77.7938C26.4623 81.6307 30.2015 79.9041 31.9273 82.1103C30.2974 82.494 28.9551 82.5899 27.5169 82.7818ZM117.354 90.6475C119.751 96.7866 121.765 102.734 124.449 108.297C125.696 110.791 128.189 112.806 130.394 114.82C131.448 115.779 133.078 115.875 134.229 116.355C132.982 108.01 131.832 99.952 130.585 91.6067C126.559 91.223 122.148 90.9353 117.354 90.6475ZM80.4414 104.748C79.195 100.144 78.1404 95.7314 76.894 91.3189C76.3187 89.1127 75.7434 86.8106 74.9764 84.6043C74.6888 83.741 73.9217 82.6859 73.1547 82.494C69.9908 81.6307 66.7309 81.0552 63.1834 80.2878C64.8134 86.1391 66.1556 91.6067 69.1279 96.4988C71.8124 100.911 75.5517 103.693 80.4414 104.748ZM121.477 21.3909C121.189 22.1583 120.998 22.7338 120.806 23.4053C119.655 27.7218 118.793 32.1343 117.354 36.3549C115.724 41.1511 114.957 45.9472 116.3 50.9352C116.779 52.7578 116.875 54.6763 117.067 56.0192C119.272 52.3741 121.573 48.6331 123.874 44.7962C124.353 44.0288 124.449 43.0695 124.545 42.2062C124.929 37.7938 124.929 33.2854 125.6 28.8729C126.271 25.036 124.449 23.2134 121.477 21.3909ZM140.94 35.8753C139.79 31.7506 138.447 27.4341 137.489 23.0216C137.009 20.7194 135.859 20.3357 133.941 21.0072C133.27 21.199 132.599 21.4868 131.928 21.6787C129.243 22.542 127.997 24.2686 127.997 27.1463C127.997 30.2158 127.517 33.1895 127.326 36.259C127.23 37.9856 127.326 39.7122 127.326 41.5348C129.531 40.2878 131.544 39.0408 133.654 38.1775C135.763 37.4101 137.968 36.8345 140.94 35.8753ZM66.1556 42.494C68.265 39.3285 70.2784 36.5468 72.1001 33.765C72.4836 33.1894 72.6753 32.4221 72.6753 31.7506C73.0588 28.2974 73.4424 24.8441 73.73 21.3909C74.1135 16.8825 73.6341 16.0192 69.3196 14.1966C69.2237 14.3885 69.032 14.4844 68.9361 14.6763C67.0185 21.199 65.101 27.7218 63.2793 34.2446C63.0876 34.8201 63.1834 35.4916 63.3752 36.0671C64.1422 38.1775 65.101 40.0959 66.1556 42.494ZM82.2631 11.7026C81.0167 12.5659 79.962 13.2374 79.0991 14.0048C78.2362 14.7722 76.894 15.5396 76.7022 16.4988C76.0311 21.199 75.5517 25.8993 75.1682 30.4077C79.3868 28.4892 83.6054 26.5707 87.824 24.6523C86.0023 20.5276 84.1807 16.211 82.2631 11.7026ZM193.194 67.6259C192.906 67.53 192.714 67.53 192.427 67.4341C186.195 75.1079 180.058 82.8777 173.922 90.4556C179.004 91.3189 184.181 90.7434 186.674 85.1799C189.359 79.5204 191.084 73.4772 193.194 67.6259ZM16.5868 71.6547C17.8333 75.7794 18.9838 79.9041 20.3261 83.9329C20.9972 85.9472 22.0519 87.9616 23.1065 89.8801C24.1612 91.7026 25.6952 92.9496 28.4757 93.5252C26.7499 87.6739 25.12 82.2062 23.3942 76.7386C22.2436 72.9017 20.7096 71.8465 16.5868 71.6547ZM121.861 83.741C121.956 83.5492 122.052 83.4532 122.148 83.2614C120.518 78.0815 118.888 72.8058 117.163 67.1463C116.875 68.777 116.683 70.024 116.491 71.1751C115.724 75.012 116.875 78.4652 119.08 81.5348C119.655 82.5899 120.902 83.0695 121.861 83.741ZM74.2094 14.4844C75.4558 13.717 76.6063 12.9496 77.661 12.1823C78.8115 11.4149 79.8662 10.6475 81.1126 9.78417C77.0857 7.48201 73.1547 8.15348 70.4701 11.4149C71.7166 12.47 72.963 13.4293 74.2094 14.4844ZM122.436 19.7602C124.162 20.5276 125.6 21.7746 126.846 21.5827C129.435 21.0072 131.832 19.7602 134.325 18.705C130.969 15.9233 126.75 16.211 122.436 19.7602ZM141.132 27.7218C141.899 30.8873 142.474 33.4772 143.145 36.0671C143.337 36.0671 143.625 35.9712 143.817 35.9712C144.68 33.3813 145.542 30.6954 146.597 27.7218C144.775 27.7218 143.145 27.7218 141.132 27.7218Z" fill="black"/>
</svg>
