<svg width="100" height="120" viewBox="0 0 100 120" fill="none" xmlns="http://www.w3.org/2000/svg">
<path d="M87.056 61.2129C86.5975 57.4593 86.5401 53.5325 86.4828 49.7789C86.4255 47.8154 86.3682 45.852 86.3109 43.8886C86.2535 42.5026 86.1962 41.0012 85.7377 39.6153C85.5084 38.9223 84.9352 38.4025 84.4193 37.8251C84.19 37.5941 83.9608 37.3631 83.7888 37.1321L83.5595 36.9011L82.8717 37.6518C82.4132 38.1138 81.9546 38.6335 81.496 39.1533C81.4387 39.211 81.3814 39.2688 81.3814 39.3843C81.3814 39.3265 81.3241 39.2688 81.3241 39.211C81.2094 38.6335 81.0948 38.1716 80.8082 37.7096C80.5789 37.3053 80.3497 36.8434 80.0631 36.4391C79.146 34.8799 78.2289 33.263 77.0825 31.877C76.3373 31.0108 75.7068 30.6643 75.0763 30.8376C74.4458 30.9531 73.9299 31.6461 73.5287 32.9165C73.414 33.3785 73.2421 33.8405 73.1274 34.3025C72.7262 35.8039 72.325 37.3631 71.5225 38.5758C69.3444 41.8097 67.1089 43.5999 64.7015 43.9463C62.4661 44.2928 60.116 43.4844 57.422 41.4632C53.5816 38.518 51.1169 34.5912 49.9705 29.5094C49.6266 28.0079 49.3973 26.391 49.168 24.8896C48.5948 21.2514 48.0789 17.5556 46.1301 14.3217C46.474 13.9175 46.8752 13.5132 47.2192 13.1667C48.0789 12.2428 48.9387 11.3766 49.6266 10.3948C50.9449 8.66241 50.8876 6.17926 49.5119 4.15808C48.3082 2.3679 46.646 1.84817 44.4678 2.42565C44.2386 2.4834 43.6654 2.19466 43.3214 1.84817C41.6019 -0.0575093 39.3091 -0.403996 37.3602 0.866456C36.8444 1.21294 36.3858 1.67493 35.9273 2.07916C35.8126 2.19466 35.6407 2.3679 35.4687 2.4834C33.7491 1.44393 32.0296 1.21294 30.4819 1.79042C28.705 2.42565 27.3294 4.10033 26.5269 6.52574C23.7183 6.69899 23.6036 6.81448 22.4572 9.81737C22.3999 9.93287 22.2853 10.0484 22.1707 10.1639C20.1072 11.7808 19.9352 12.2428 20.795 14.6682C21.0243 15.3612 20.9096 16.2274 20.7377 16.8626C20.5657 17.6711 20.1645 18.5373 19.7059 19.288C19.3047 19.9232 18.7315 20.7317 17.9864 21.2514C15.9229 22.6374 14.3752 24.6008 13.2862 27.1417C13.1715 27.4305 13.2289 27.7192 13.2289 28.0079C13.2289 28.1234 13.2289 28.2967 13.2289 28.4699V28.8164L13.5728 28.7009C15.9229 28.1234 17.6424 29.1051 19.4193 30.0869C19.7632 30.3179 20.1645 30.4911 20.5084 30.6643C20.5084 30.7798 20.4511 30.8953 20.4511 30.9531C20.3364 31.2996 20.2791 31.5883 20.2791 31.9348C20.2791 32.6278 20.3364 33.3207 20.3364 34.0137C20.4511 35.3997 20.5084 36.8434 20.2218 38.1716C19.9925 39.2688 19.4193 40.3082 18.8461 41.3477C18.3876 42.2139 17.929 43.0801 17.6424 44.0041C17.0119 45.9098 16.4961 47.8154 15.9802 49.7211C15.9229 50.8183 15.5789 51.9733 15.2923 53.1282C12.8849 61.5017 12.4264 68.4314 13.802 74.8414C15.5789 82.9839 20.795 89.4516 29.6795 94.5912C31.9149 95.8616 34.0357 97.0743 35.1248 99.673C35.526 100.539 36.3285 101.29 37.0163 101.81C37.7615 102.387 37.8761 102.965 37.5895 103.889L37.3029 104.813C36.8444 106.199 36.3858 107.7 35.9846 109.144C35.698 110.125 35.3541 110.472 34.3223 110.53C31.2271 110.818 28.5904 112.262 26.5269 114.918C26.2976 115.207 26.2403 115.554 26.1257 115.958C26.0684 116.073 26.0684 116.247 26.011 116.362L25.8964 116.766H26.2976C26.4123 116.766 26.5842 116.766 26.7562 116.766C27.1001 116.824 27.444 116.824 27.7879 116.709C28.8197 116.362 29.7941 115.958 30.7685 115.554C30.9405 115.496 31.1125 115.438 31.2844 115.323L29.6222 118.903L30.5393 119.827L30.7112 119.654C34.3223 116.073 39.0225 114.514 45.4423 114.745H45.7289L45.7862 113.359L39.9396 110.53C39.9969 110.125 40.1116 109.721 40.1689 109.317C40.3982 108.162 40.6848 107.007 40.8567 105.852C41.086 104.524 41.3726 103.658 42.9775 103.484C44.2386 103.369 45.4996 102.618 46.5886 101.925L46.7606 101.81C47.7923 101.174 48.7094 100.481 49.5119 99.8462C49.7412 99.673 49.9705 99.4998 50.1998 99.3265L54.8999 104.12C54.8426 104.524 54.7853 104.928 54.6707 105.39C54.4414 106.776 54.2121 108.393 53.8109 109.952C53.6962 110.587 53.0657 111.223 52.6645 111.511C51.862 112.204 51.0595 112.84 50.2571 113.475C49.3973 114.168 48.4802 114.918 47.5631 115.669C47.2765 115.958 47.1618 116.362 46.9899 116.882C46.9326 117.113 46.8179 117.402 46.7033 117.748L46.474 118.383L51.1742 116.131C51.0595 116.247 50.9449 116.42 50.8303 116.535C50.0851 117.402 49.34 118.268 49.3973 119.538V119.942L49.7985 119.769C50.601 119.423 51.4035 119.019 52.2059 118.614C53.9255 117.748 55.5304 116.882 57.3073 116.535C59.0269 116.189 60.8038 116.247 62.6953 116.362C63.5551 116.42 64.4149 116.478 65.2747 116.478H65.7906L65.504 116.016C64.0137 113.417 61.4916 112.378 58.855 111.28L58.6257 111.165C58.683 110.645 58.683 110.125 58.683 109.606C58.7403 108.046 58.7976 106.429 58.9696 104.813C59.0269 104.351 59.5428 103.773 59.944 103.369C60.5172 102.849 61.205 102.387 61.7782 101.925C62.9246 101.117 64.071 100.25 64.9881 99.1533L65.504 98.518C67.2809 96.3236 67.3955 96.1504 70.2615 94.5334C73.9299 92.4545 77.0825 89.6249 79.5472 86.0445C85.7377 77.6711 88.0304 69.7596 87.056 61.2129ZM22.1707 12.0118C22.228 11.8963 22.8012 11.7231 23.0878 11.6653C23.317 11.6076 23.5463 11.5498 23.7183 11.4921L23.8329 11.4343L23.8902 11.3188C23.9475 11.0301 24.0049 10.7413 24.1195 10.3948C24.2341 9.64413 24.4061 8.8934 24.8073 8.48917C25.0366 8.31593 25.4378 8.25818 25.9537 8.25818C26.183 8.25818 26.4123 8.25818 26.6989 8.25818C27.1001 8.25818 27.5013 8.31593 27.9026 8.25818H28.1319V7.91169C28.1319 7.73845 28.1892 7.44971 28.1892 7.16097C28.3611 4.56232 30.2527 2.88763 32.8893 3.00313C33.6918 3.06087 34.1504 3.23412 34.3796 3.52286C34.6089 3.8116 34.5516 4.33133 34.3223 5.1398C34.2077 5.48628 34.1504 5.77502 34.0931 6.12151C34.0931 6.237 34.0357 6.41025 33.9784 6.58349L33.9211 6.81448L34.9528 7.16097L35.0675 6.92998C35.1821 6.75673 35.2394 6.58349 35.2968 6.3525C35.4687 5.94827 35.6407 5.54403 35.8699 5.25529C36.0419 5.0243 36.2139 4.73556 36.4431 4.50457C37.0163 3.63835 37.6468 2.71439 38.4493 2.13691C39.0225 1.67493 39.7103 1.50168 40.3408 1.61718C41.1433 1.79042 41.8311 2.31015 42.347 3.11862C42.519 3.34961 42.4617 3.92709 42.2897 4.33133C42.1751 4.67781 42.0031 4.96655 41.7738 5.31304C41.6592 5.42853 41.5445 5.60178 41.4872 5.77502L41.3726 6.00601L42.2324 6.64124L42.6909 6.06376C42.9202 5.77502 43.1495 5.54403 43.3788 5.25529C44.8117 3.63835 46.3594 3.23412 47.5631 4.10033C49.0534 5.19754 49.5692 7.73845 48.5375 9.18214C47.907 10.1061 47.1045 10.9146 46.302 11.8385C45.9581 12.185 45.6715 12.5315 45.3276 12.878C42.1751 9.58638 38.3347 8.02719 33.4625 8.14268C29.1636 8.20043 25.4378 10.0484 22.228 13.6865C22.228 13.6287 22.228 13.6287 22.228 13.571C22.1133 12.9935 21.9987 12.4738 22.1707 12.0118ZM15.6936 25.929C16.1521 25.236 16.6107 24.5431 17.1266 24.0233C18.3876 22.8106 19.2474 22.1177 20.0498 22.1177C20.1072 22.1177 20.1072 22.1177 20.1645 22.1177C20.9096 22.1754 21.7121 22.8106 22.8012 24.3121L15.235 26.622C15.407 26.391 15.5789 26.16 15.6936 25.929ZM17.9864 27.4305L23.317 25.8135L23.3744 25.8713L21.6548 29.2784L17.9864 27.4305ZM25.3232 34.9954C25.4378 35.6884 25.2659 36.4391 24.8073 37.0166C24.4634 37.4786 24.0049 37.7096 23.5463 37.7673C23.0878 37.8251 22.6865 37.6518 22.3426 37.3631C21.8841 36.9589 21.6548 36.3236 21.6548 35.5729C21.6548 34.4179 21.7694 33.3207 21.9414 31.9925C21.9987 31.5306 22.056 31.0686 22.1133 30.5488C24.1195 31.8193 25.0366 33.2052 25.3232 34.9954ZM41.258 102.098C38.22 101.983 36.7297 99.5575 35.4687 97.2476L48.4229 97.7673C46.646 100.712 44.1812 102.214 41.258 102.098ZM42.347 113.244C38.9652 113.301 36.0419 113.994 33.3479 115.38L34.6662 113.879L34.2077 112.897L29.2209 114.225C31.1125 112.724 33.004 111.973 35.0675 111.973C36.2139 111.973 36.7871 111.511 37.131 110.414C37.7042 108.508 38.392 106.199 39.4811 103.773C39.5957 104.004 39.653 104.235 39.653 104.408C39.4237 105.506 39.1945 106.66 38.9079 107.758C38.7359 108.451 38.5639 109.144 38.4493 109.837C38.3347 110.299 38.3347 110.761 38.2774 111.165C38.2774 111.338 38.22 111.511 38.22 111.627L38.1627 111.858L42.347 113.244ZM58.855 113.013C59.8867 113.359 60.9184 113.879 61.8356 114.514C59.4855 114.514 56.9634 114.687 54.4414 115.669L54.9572 115.207L54.728 114.225L50.9449 114.63C51.0595 114.572 51.1742 114.456 51.2888 114.399C52.1486 113.763 52.8938 113.244 53.6962 112.897C55.0719 112.32 55.4731 111.454 55.5878 110.241C55.7597 108.508 56.1036 106.66 56.5622 104.755C56.6195 104.524 56.9061 104.293 57.1927 104.062C57.25 104.004 57.3647 103.946 57.422 103.889L57.6513 104.12C57.6513 104.755 57.5939 105.332 57.5939 105.91C57.5366 107.411 57.4793 109.028 57.3647 110.587C57.1927 111.973 57.5939 112.609 58.855 113.013ZM71.0639 92.4545C70.3188 92.9165 69.459 93.263 68.5992 93.725C68.3126 93.8405 68.026 94.0137 67.6821 94.187L67.9114 92.108L66.937 91.7615L66.8223 91.9925C66.765 92.1658 66.6504 92.339 66.593 92.4545C66.4211 92.801 66.2491 93.2052 66.0772 93.6095C65.1601 96.4969 63.8417 99.673 60.4026 101.463C57.5366 102.965 55.4731 102.734 53.2377 100.481C50.7156 97.9983 49.9705 94.6489 49.5119 91.7038L49.4546 91.2418C49.3973 90.8953 49.34 90.5488 49.2826 90.2024C49.2253 90.0291 49.1107 89.9714 48.9387 89.8559C48.8814 89.7981 48.7668 89.7404 48.6521 89.6826L48.3655 89.5094L48.2509 89.8559C47.6777 91.4728 48.0789 92.9165 48.4802 94.3602C48.5948 94.8222 48.7668 95.2842 48.8241 95.8039C38.5066 97.1898 30.0234 94.5334 22.9731 87.7769C13.5155 78.6528 13.9167 67.7384 15.8082 57.3438C16.0948 57.4016 16.3814 57.5171 16.668 57.6326C17.5851 57.9791 18.5022 58.2678 19.362 58.1523C20.2218 57.9791 20.9669 57.4016 21.7121 56.7664C21.9414 56.5354 22.228 56.3044 22.5146 56.1311C23.7756 57.5748 25.3232 58.903 27.6733 57.8058C29.6795 56.8819 31.0551 54.5142 30.8832 52.262L30.8259 51.4536L30.3673 52.0888C30.1953 52.3198 30.0807 52.5508 29.9087 52.724C29.6795 53.0705 29.4502 53.3592 29.3356 53.648C28.5904 55.1494 27.7306 56.5354 26.0684 56.4776C24.1768 56.4199 23.489 54.8029 23.2024 53.417C23.1451 53.2437 23.0304 53.1283 22.8585 53.0128C22.8012 52.955 22.7438 52.8973 22.6292 52.8395L22.3999 52.6085L22.228 52.8973C22.056 53.186 21.8267 53.5325 21.6548 53.8212C21.2535 54.5142 20.9096 55.0917 20.3938 55.6692C19.7632 56.3621 19.1901 56.7086 18.6169 56.7086C18.0437 56.7086 17.4705 56.3044 16.8973 55.6114C16.6107 55.2072 16.4387 54.5142 16.5534 54.0522C16.84 52.8395 17.2985 51.6846 17.6424 50.6451C17.7571 50.3563 17.8717 50.0676 17.929 49.7789C18.3303 49.8944 18.7315 50.0099 19.1327 50.1254C20.1645 50.4141 21.1962 50.7606 22.1707 50.5873C23.2024 50.4141 24.1195 49.8366 25.0366 49.2591C25.3232 49.0859 25.6671 48.8549 26.011 48.6817C26.6989 50.1254 28.2465 50.7606 30.4246 50.5296C33.3479 50.1831 34.6089 48.0464 35.3541 46.083C35.6407 46.1985 35.9846 46.314 36.2712 46.4872C37.2456 46.8915 38.22 47.3535 39.2518 47.5267C40.1689 47.7 41.4299 46.8337 41.7165 46.545C43.608 45.0435 44.5251 41.5209 43.4934 39.4998L43.1495 38.8068L42.9775 39.5575C42.9202 39.8462 42.8629 40.135 42.7483 40.366C42.6336 40.8857 42.519 41.2899 42.4043 41.6942C42.347 41.8674 42.2897 42.0984 42.2324 42.2717C42.0604 42.8491 41.8885 43.4844 41.6592 44.0618C41.086 45.2168 40.2835 45.9098 39.3091 46.0253C38.3347 46.1408 37.4176 45.6788 36.5578 44.6393C36.2712 44.2928 35.9846 43.8308 35.6407 43.3689C35.4687 43.0801 35.2394 42.7914 35.0102 42.4449L34.7809 41.9829L34.6089 42.6181C34.4943 43.0224 34.437 43.3689 34.3223 43.7153C34.1504 44.3506 34.0357 44.8703 33.8638 45.39C33.1759 47.5845 32.0296 48.7394 30.2527 49.0282C29.3356 49.2014 28.6477 49.0859 28.1319 48.6817C27.616 48.3352 27.3294 47.6422 27.2147 46.7182C27.1574 46.4295 27.1001 46.1408 27.0428 45.6788C26.9855 45.4478 26.9281 45.159 26.8708 44.8126L26.7562 44.1196L25.8964 45.39C25.6671 45.7365 25.4952 45.9098 25.3805 46.1408C25.2659 46.3718 25.0939 46.545 24.9793 46.776C24.6927 47.238 24.4061 47.6422 24.0622 48.0464C22.9731 49.2014 21.1389 49.6634 20.1072 49.0282C18.8461 48.2774 18.5022 47.0647 19.0754 45.2745C19.534 43.7154 20.1645 42.1562 20.7377 40.6547C20.9669 40.0772 21.1962 39.5575 21.3682 38.98C23.317 39.3265 24.5207 39.211 25.3805 38.5758C26.2403 37.9406 26.6989 36.8434 26.9281 34.8222C30.0807 35.3997 34.0931 35.8039 37.8761 33.8982L38.0481 33.7827L37.9334 32.6855L37.6468 32.7433C37.4749 32.7433 37.3602 32.801 37.1883 32.801C36.8444 32.8588 36.5005 32.8588 36.1565 32.9743C33.3479 33.8982 30.4819 34.0137 27.616 33.3207C26.9281 33.1475 26.2403 32.4545 25.7244 31.9348C25.1513 31.3573 24.5781 30.6643 24.0049 29.9714C23.8329 29.7404 23.6036 29.4516 23.3744 29.2206C23.661 28.5854 23.8902 28.0079 24.1195 27.546C25.5525 24.4853 25.5525 24.0811 20.9096 20.5007C22.1133 16.1696 24.6354 12.7625 28.3038 10.9723C31.9149 9.1244 36.1565 9.1244 40.2262 10.9146C42.5763 11.954 44.2386 13.6287 44.9837 15.6499C46.0728 18.595 46.8752 21.6557 47.6204 24.6586L47.735 25.0628C48.1363 26.5065 48.4229 27.9502 48.7094 29.3939C48.8814 30.2024 49.0534 31.0686 49.2253 31.877C50.3144 36.7856 53.3523 40.7702 58.5684 43.9463C62.4661 46.314 66.0199 46.083 69.6883 43.0801C72.325 40.9435 74.0445 38.0561 74.847 34.4757C74.9617 33.956 75.0763 33.494 75.2482 32.9165C75.3056 32.7433 75.3056 32.57 75.3629 32.4545C79.2033 35.3419 79.8911 39.3843 80.6363 43.6576C80.7509 44.2928 80.8655 44.9281 80.9802 45.5633L81.2094 46.9492L81.496 45.621C81.668 44.9281 81.7253 44.2351 81.7826 43.5421C82.0119 41.8097 82.1839 40.135 83.4449 38.6335C83.5022 38.749 83.5595 38.8645 83.6742 38.9223C83.9608 39.3265 84.19 39.673 84.2474 40.0195C84.534 41.6364 84.7059 43.1956 84.8206 44.6971C84.9352 46.776 84.9925 48.9127 84.9925 50.9916C85.1072 55.0339 85.1645 59.1918 85.623 63.2919C86.884 73.802 78.6301 88.1234 71.0639 92.4545Z" fill="black"/>
<path d="M81.8981 68.1997C81.5542 70.6251 80.3505 72.5885 78.4589 73.9167C71.4087 78.8253 64.5304 81.4817 57.4801 82.2324C56.7923 82.2902 56.0471 82.3479 55.3593 82.3479C51.175 82.3479 47.4492 81.0775 44.5259 78.5366C40.9722 75.5337 38.8513 71.0294 38.4501 65.832C37.9916 59.7685 39.2526 53.8782 42.2332 48.219C42.4051 47.9302 42.6344 47.6415 42.8064 47.3527C42.921 47.2372 42.9783 47.1217 43.093 47.0063L43.2076 46.833L44.1247 47.1795L44.0674 47.4105C44.0101 47.5837 44.0101 47.757 43.9528 47.8725C43.8381 48.219 43.7808 48.6232 43.6088 48.9697C41.0295 53.936 39.8258 59.2488 39.9977 64.7348C40.1697 69.9321 42.1759 74.3787 45.7296 77.3239C49.2261 80.2113 53.9836 81.3662 59.0277 80.4422C65.0462 79.4028 70.8355 77.0351 76.682 73.2815C78.115 72.3576 79.8919 70.9716 80.4078 68.6617C80.6371 67.5067 80.5224 66.6405 80.0639 66.1208C79.6626 65.6588 78.9175 65.4278 77.9431 65.5433C76.5101 65.7166 75.0198 66.1785 73.6441 66.6405C73.1282 66.8138 72.6124 66.987 72.0392 67.1602C71.6953 67.2757 71.3513 67.449 71.0647 67.6222C70.8928 67.7377 70.7208 67.7955 70.5489 67.8532L70.3196 67.9687L69.6891 66.8138L69.9184 66.6983C70.205 66.525 70.4916 66.3518 70.7781 66.1785C71.466 65.7743 72.0965 65.3701 72.8416 64.9658C74.6185 64.0419 75.6503 63.0024 76.1088 61.5587C76.3954 60.6925 76.3381 59.9418 76.0515 59.3643C75.7076 58.7868 75.0771 58.4403 74.2746 58.2671C71.7526 57.8051 69.4598 58.4981 67.339 59.3643C66.7658 59.5953 66.1926 59.7685 65.6194 59.884C65.3328 59.9418 65.1035 59.9995 64.8169 60.115L64.5304 60.1728L64.1291 59.0178L64.3584 58.9023C64.5304 58.7868 64.7596 58.6713 64.9316 58.6136C65.3901 58.3826 65.7914 58.2093 66.078 57.9206L66.5365 57.5741C67.4536 56.8234 68.4281 56.0149 69.1159 55.091C69.5744 54.5135 69.6891 53.936 69.5171 53.474C69.3452 53.012 68.8293 52.7233 68.0841 52.6078C67.0524 52.4923 65.906 52.6655 64.7596 52.8388C64.5304 52.8965 64.3584 52.8965 64.1291 52.9543C63.3266 53.0698 62.4669 53.243 61.7217 53.4163C61.2632 53.5318 60.8046 53.5895 60.346 53.705C60.1741 53.7627 60.0595 53.6473 59.8875 53.5318C59.8302 53.474 59.7155 53.4163 59.6009 53.3008L59.1997 53.0698L59.5436 52.8388C59.6582 52.7233 59.7729 52.6655 59.8875 52.55C60.1168 52.3191 60.346 52.1458 60.6326 52.0881C62.5242 51.6261 64.4157 51.2218 66.2499 50.9331C66.9951 50.8176 67.8549 50.8754 68.7147 51.1063C69.8037 51.3951 70.5489 52.0303 70.8928 52.8388C71.2367 53.6473 71.1221 54.6867 70.6062 55.6684C70.4342 56.0149 70.205 56.3037 69.9757 56.7079C70.205 56.7079 70.4342 56.6501 70.6635 56.6501C71.5806 56.5924 72.4404 56.5346 73.3002 56.5346C75.3064 56.6501 76.7393 57.3431 77.4272 58.5558C78.115 59.7685 78.0004 61.3855 77.0833 63.1756C76.9686 63.4066 76.854 63.6376 76.682 63.8686C76.854 63.8686 76.9686 63.8686 77.1406 63.8686C77.7711 63.8686 78.4016 63.8686 78.9748 63.9841C81.1529 64.5038 82.242 65.9475 81.8981 68.1997Z" fill="black"/>
<path d="M17.643 60.982C21.598 66.7568 21.598 66.7568 25.8969 61.0975C26.9287 63.1765 28.4763 65.1399 30.8264 63.8117C32.4886 62.8877 33.5777 60.8665 34.8387 59.4229C35.2973 60.4046 33.7497 63.292 32.0301 64.4469C30.1386 65.7174 27.8458 65.2554 25.8396 63.1765C24.292 64.9089 22.9737 67.2766 20.0504 65.7751C18.2735 64.8511 17.1844 62.6567 17.643 60.982Z" fill="black"/>
<path d="M62.2368 73.0513C61.8929 74.7837 61.9502 76.2274 61.3197 77.1514C60.6319 78.1908 59.1989 78.0753 57.8232 77.6134C58.7403 76.4007 61.0904 77.6134 61.0331 75.7077C61.0331 74.6105 60.116 73.5133 59.4855 72.2428C60.4026 71.6653 62.6381 72.9935 62.8673 71.0301C62.982 69.9329 61.9502 68.6624 61.2624 67.2188C62.6954 67.7385 63.6125 68.6047 63.9564 69.8751C64.415 71.2611 63.6125 72.4161 62.2368 73.0513Z" fill="black"/>
<path d="M30.8833 67.2188C31.2273 69.1244 30.6541 70.6836 29.2784 71.8386C27.9601 72.9935 26.4698 72.878 25.0368 72.0696C23.7758 71.3766 22.6294 70.5681 22.3428 69.1244C24.1197 69.9906 25.7819 71.4343 27.4442 71.4921C29.737 71.5498 29.7943 68.7779 30.8833 67.2188Z" fill="black"/>
<path d="M51.404 68.1426C53.1236 68.4891 53.6968 69.644 53.8114 71.03C53.9834 72.5892 53.3528 73.8596 52.0345 74.6103C50.6588 75.3611 49.2832 75.1301 47.9648 74.2639C49.5125 73.7441 51.5186 74.7836 52.5504 72.7624C53.4675 70.9145 52.2638 69.5863 51.404 68.1426Z" fill="black"/>
<path d="M46.8753 60.1737C48.4229 59.7694 49.1107 60.6357 49.6839 61.6751C50.3144 62.7146 50.2571 63.8695 49.3973 64.8513C48.079 66.3527 46.3594 66.8724 44.2959 66.1795C44.5825 66.0062 44.8691 65.7752 45.213 65.7175C45.8435 65.5442 46.5887 65.602 47.1619 65.3132C49.3973 64.3893 49.6266 62.5991 47.7924 61.0399C47.5058 60.7512 47.1619 60.4624 46.8753 60.1737Z" fill="black"/>
<path d="M55.0149 60.6934C56.2759 61.6173 57.4796 62.83 57.1357 64.5625C56.9637 65.4287 55.9893 66.3526 55.1295 66.7569C54.0978 67.2766 52.8367 67.2766 51.8623 66.5259C51.8623 66.3526 51.9196 66.1794 51.9196 66.0062C52.4928 66.0062 53.066 66.1217 53.5819 65.9484C54.4417 65.6597 55.5881 65.4287 55.9893 64.7935C56.2759 64.2737 55.7027 63.1765 55.4161 62.368C55.1868 61.8483 54.7856 61.3863 54.4417 60.8666C54.6136 60.8666 54.7856 60.7511 55.0149 60.6934Z" fill="black"/>
<path d="M20.8525 77.1511C22.5721 77.6131 24.2344 78.5948 25.3808 78.2483C26.4125 77.9018 26.9857 75.9962 27.7882 74.668C28.3614 76.2849 27.8455 77.6131 26.8137 78.4793C26.0686 79.1145 24.7502 79.461 23.8331 79.3455C22.6868 79.1723 21.3684 78.5371 20.8525 77.1511Z" fill="black"/>
<path d="M15.4648 72.1272C18.6747 74.3216 19.0186 74.7258 21.2541 70.7412C22.1712 71.7229 21.4834 72.5314 21.0248 73.2244C20.2223 74.3793 19.076 75.0723 17.7003 74.4948C16.5539 74.1483 15.4648 73.5131 15.4648 72.1272Z" fill="black"/>
<path d="M37.8768 73.8594C38.6793 75.4763 38.2781 77.382 37.017 78.1905C35.756 78.9989 33.6352 78.5369 32.0303 76.8045C32.8327 76.92 33.234 76.9778 33.6352 77.0933C36.2146 78.075 36.9597 77.6707 37.4183 74.9566C37.4756 74.6101 37.6476 74.3214 37.8768 73.8594Z" fill="black"/>
<path d="M56.792 67.1611C58.7981 67.7964 59.5433 69.471 58.7408 70.7415C57.9957 71.8965 56.1041 72.1274 54.1553 70.9147C55.0724 70.7992 55.6456 70.7992 56.1614 70.6837C56.7346 70.5683 57.6517 70.5105 57.7664 70.164C57.9383 69.6443 57.6517 68.9513 57.4798 68.3161C57.3078 67.9119 57.0212 67.5654 56.792 67.1611Z" fill="black"/>
<path d="M30.7119 82.8684C33.6925 83.9656 34.9535 82.5219 35.2975 79.75C36.2719 80.9627 35.928 82.4641 34.7243 83.4459C33.4632 84.5431 31.8583 84.4276 30.7119 82.8684Z" fill="black"/>
<path d="M28.3619 12.9355C26.2411 12.9355 24.5215 15.13 24.5215 17.8441C24.5215 20.5583 26.2411 22.6949 28.3619 22.6949C30.4827 22.6949 32.2023 20.5005 32.2023 17.8441C32.2023 15.1877 30.4827 12.9355 28.3619 12.9355ZM29.3363 21.4245C29.5656 20.7315 29.7375 19.923 29.7375 18.9991C29.7375 17.5554 29.3936 16.2849 28.7631 15.4187C28.8204 15.6497 28.8777 15.9384 28.8777 16.2849C28.8777 17.1511 28.5338 17.7864 28.1326 17.7864C27.7314 17.7864 27.3874 17.0934 27.3874 16.2849C27.3874 15.4187 27.7314 14.7257 28.1326 14.7257H28.1899C27.7314 14.2637 27.1582 14.0328 26.585 14.0328C26.9289 13.8595 27.2728 13.8018 27.674 13.8018C29.3936 13.8018 30.7693 15.6497 30.7693 17.9596C30.8266 19.4033 30.2534 20.7315 29.3363 21.4245Z" fill="black"/>
</svg>
