<svg width="118" height="120" viewBox="0 0 118 120" fill="none" xmlns="http://www.w3.org/2000/svg">
<g clip-path="url(#clip0_10873_36)">
<path d="M33.0867 120H25.0846C24.4973 120 24.0568 119.854 23.7631 119.633C23.5429 119.413 23.4695 119.193 23.4695 118.826C23.4695 118.092 23.9834 117.652 25.0846 117.652H28.7553L28.168 115.597C27.8743 114.496 27.5807 113.542 27.2136 112.514C27.0668 112.074 26.6997 111.78 25.9656 111.487C21.9278 110.019 18.5507 107.817 15.761 104.954C15.3205 104.514 14.88 104 14.4396 103.413C14.0725 102.899 13.632 102.679 13.1181 102.679C12.9713 102.679 12.751 102.679 12.5308 102.753C11.503 103.046 10.4752 103.193 9.52082 103.193C7.53864 103.193 5.70329 102.606 4.08818 101.432C1.44527 99.4499 0.123821 96.6609 0.197235 92.771C0.197235 92.1839 0.270649 91.5967 0.417477 90.9361C0.490891 90.6426 0.490891 90.349 0.564305 90.0554C0.637719 89.615 0.857961 89.3215 1.37186 89.0279C3.20721 88.0738 5.04256 87.4866 7.02474 87.3398C7.09815 87.3398 7.24498 87.3398 7.3184 87.3398L8.05254 87.2664V85.505C8.05254 84.6242 8.05254 83.7435 8.05254 82.8628C8.05254 82.349 8.05254 81.6884 8.19936 81.1013C8.27278 80.5875 8.78668 80.2206 9.30057 80.2206C9.81447 80.2206 10.3284 80.6609 10.4018 81.1747C10.4018 81.3949 10.4018 81.6884 10.4018 81.9086C10.1081 87.8536 11.1359 92.9912 13.4118 97.6151C16.4951 103.707 21.4873 107.817 28.0946 109.799C31.7653 110.899 35.436 111.413 39.1067 111.413C42.8508 111.413 46.7417 110.826 50.4858 109.652C51.22 109.432 51.8807 109.138 52.6148 108.844L52.7617 108.771C52.9819 108.698 53.2756 108.551 53.4958 108.477C53.6426 108.404 53.7161 108.331 53.9363 108.257L54.9641 107.743L54.4502 107.083C50.1922 101.505 47.9164 94.826 47.6961 86.6793V86.0187L47.0354 85.9453C46.5949 85.9453 46.081 85.8719 45.6405 85.8719C44.6127 85.7985 43.6583 85.7985 42.704 85.6517C38.0789 85.138 34.4082 84.1839 31.0311 82.5692C25.4517 79.8536 23.1758 73.2481 25.7453 67.3031C25.8921 66.9361 26.1124 66.4958 26.3326 66.1288C26.406 65.9086 26.9199 64.8811 26.9199 64.8811L17.89 61.505L17.5964 61.9453C16.1281 63.8536 14.9535 65.8352 14.0725 67.8169C13.4852 69.2848 12.8979 70.7527 12.384 72.1472L12.3106 72.2939C12.1637 72.7343 11.9435 73.2481 11.7967 73.6884C11.6498 74.1288 11.2828 74.6426 10.622 74.6426C10.5486 74.6426 10.5486 74.6426 10.4752 74.6426C9.9613 74.5692 9.52082 74.2022 9.4474 73.6884C9.4474 73.3949 9.52082 73.0279 9.59423 72.6609C10.7689 68.5508 12.6042 64.6609 15.0269 61.2114C15.1003 61.0646 15.1737 60.9912 15.3205 60.8444L15.8344 60.0371L15.1737 59.4499C15.0269 59.3031 14.9535 59.2297 14.8066 59.1563C9.30058 55.193 6.58426 49.4683 6.73108 42.4958C6.8045 40.2206 7.24498 38.1655 8.19936 36.2572C9.66764 33.2481 10.622 30.2389 11.7232 26.5692C12.1637 25.0279 12.8244 23.56 13.4852 22.0921L13.7054 21.5783C13.9257 21.0646 14.3661 20.771 14.8066 20.771C14.9535 20.771 15.1737 20.8444 15.3205 20.9178C15.6142 21.0646 15.8344 21.2848 15.9078 21.5783C15.9813 21.8719 15.9813 22.3123 15.761 22.6793C14.8066 24.4407 14.2193 26.4224 13.7054 28.2572C13.4118 29.138 13.1915 30.0187 12.8979 30.8261C12.1637 32.9545 11.4296 34.8628 10.6954 36.4774C7.97912 42.4224 8.56643 48.3673 12.5308 54.0187C14.6598 57.0279 17.6698 59.3031 21.781 60.9178C23.3227 61.505 24.9378 61.9453 26.4795 62.3857C26.9934 62.5325 27.5073 62.6793 28.0946 62.8261C28.2414 62.8994 28.3882 62.8994 28.5351 62.8994C28.9021 62.8994 29.2692 62.8261 29.5628 62.6059C31.545 61.2114 33.6006 60.5508 35.8765 60.5508C36.9043 60.5508 38.0055 60.6976 39.1801 61.0646C40.942 61.5783 42.6305 62.3123 44.3925 63.1196C45.1266 63.4866 45.7873 63.6334 46.3747 63.6334C46.5949 63.6334 46.8151 63.6334 47.1088 63.56C47.9898 63.4132 48.8707 63.193 49.6783 63.0462C50.6327 62.8261 51.5871 62.6793 52.5414 62.4591C53.349 62.3123 53.8629 61.8719 54.3034 61.0646C57.6804 54.1655 62.0853 48.0004 67.4445 42.716C67.5179 42.6426 67.5179 42.6426 67.5913 42.5692L67.6647 42.4958C69.7203 41.3215 68.9128 39.4132 68.6191 38.7527L68.0318 37.2848C67.2977 35.5967 66.5635 33.8352 65.9028 32.0738C65.5357 31.1196 65.2421 30.0921 64.9484 29.0646C64.5813 27.8903 64.2877 26.716 63.8472 25.5417C60.7638 17.4683 54.9641 12.1105 46.6683 9.54165L46.4481 9.46826C46.1544 9.39486 45.9342 9.32147 45.7139 9.24807C45.2734 9.10128 45.0532 8.73431 44.9798 8.44073C44.9064 8.07376 45.0532 7.63339 45.3469 7.26642C46.081 6.38569 46.8151 5.57835 47.5493 4.62422C47.6961 4.47743 47.7695 4.25725 47.9164 4.11046C47.9898 4.03706 47.9898 3.89028 48.0632 3.81688L48.7239 2.64257L47.329 2.71596C45.1266 2.78936 43.5849 3.22972 42.2635 4.11046C41.2357 4.77101 40.4281 5.06459 39.6206 5.06459C39.4003 5.06459 39.2535 5.06459 39.0333 4.99119C38.2257 4.8444 37.4916 4.55083 36.8308 4.18385C35.2157 3.22972 33.5272 2.71596 31.6184 2.64257H31.3248L30.4438 3.5233L31.6184 4.9178C32.2058 5.65174 32.7931 6.38569 33.4538 7.04624C34.2613 8.00037 33.8943 8.44073 33.8209 8.58752C33.6006 8.8811 33.1601 9.17468 32.7931 9.32147C28.168 10.5692 24.0568 12.9912 20.5329 16.5141C20.2393 16.8077 19.8722 17.0279 19.5051 17.0279C19.2115 17.0279 18.9178 16.8811 18.6976 16.6609C18.1837 16.1472 18.2571 15.4866 18.8444 14.8994C21.781 11.8903 25.158 9.68844 28.9021 8.14716C29.0489 8.07376 29.1958 8.00037 29.2692 8.00037L30.0767 7.70679L29.7097 6.97284C29.4894 6.53248 29.2692 6.01872 28.9755 5.57835C28.4616 4.55083 27.9477 3.5233 27.5073 2.49578C26.9934 1.17468 27.1402 0.807707 28.3148 0.293945H31.6919C31.8387 0.36734 31.9855 0.440734 32.2058 0.440734C34.4082 0.660918 36.2435 1.32147 37.932 2.42239C38.2991 2.64257 38.7396 2.78936 39.1801 2.78936C39.6206 2.78936 40.1345 2.64257 40.6484 2.34899L40.8686 2.2756C41.6762 1.83523 42.4837 1.39486 43.2913 1.10128C44.0988 0.881101 44.9064 0.660918 45.7139 0.514129H45.7873C46.081 0.440734 46.4481 0.36734 46.7417 0.293945H50.0454C51.2934 0.807707 51.4402 1.24807 50.9263 2.49578C50.5593 3.37651 50.1188 4.25725 49.6049 5.13798C49.3846 5.50495 49.2378 5.79853 49.091 6.1655C49.0176 6.31229 48.9441 6.45908 48.7973 6.53248C48.7239 6.60587 48.6505 6.67927 48.6505 6.75266L48.21 7.41321L48.9441 7.78018C49.5315 8.07376 50.0454 8.36734 50.6327 8.66092C51.8807 9.24807 52.9819 9.83523 54.0831 10.4958C60.1031 14.1655 64.2143 19.5233 66.3433 26.2756C67.6647 30.6059 68.9862 34.5692 70.8949 38.3123L71.262 39.0462L72.143 38.4591C72.2898 38.3857 72.4366 38.2389 72.5835 38.0921C77.282 34.4958 81.8336 32.1472 86.3853 30.8261C89.0282 30.0921 91.4509 29.7251 93.7267 29.7251C95.5621 29.7251 97.3974 29.9453 99.0859 30.4591C102.61 31.4132 105.62 33.3949 108.336 36.404C111.933 40.3673 114.429 45.3582 116.118 51.9637C117.66 57.8352 118.174 64.0004 117.66 70.7527C116.999 80.0738 114.503 89.1013 110.245 97.5416C106.868 104.221 102.61 109.432 97.2506 113.395C96.8835 113.688 96.5164 113.835 96.2228 113.835C96.0025 113.835 95.7823 113.762 95.5621 113.542C95.2684 113.321 95.1216 113.028 95.1216 112.661C95.1216 112.294 95.3418 111.927 95.7089 111.633C96.1494 111.266 96.5899 110.899 97.0303 110.532C98.205 109.578 99.453 108.551 100.554 107.377C105.032 102.753 108.556 96.8077 111.346 89.2481C113.475 83.4499 114.797 77.7251 115.31 72.1472C116.191 61.7985 114.943 52.9912 111.346 45.2114C109.217 40.5875 106.501 37.138 102.977 34.7894C100.334 33.0279 97.2506 32.0738 93.8735 32.0738C93.5799 32.0738 93.2862 32.0738 92.9926 32.0738C88.5877 32.2939 84.2563 33.615 79.7046 36.1839C71.262 40.9545 64.3611 48.0004 58.6348 57.6884C56.9463 60.5508 55.4046 63.7068 53.7161 67.8903C53.349 68.8444 53.7161 69.4316 54.1565 69.7985C57.607 73.1013 59.8094 76.6242 60.9841 80.6609C61.2777 81.615 61.1309 81.982 60.3233 82.4958C57.607 84.3306 54.4502 85.4316 50.5593 86.0187L49.8985 86.0921L49.9719 86.7527C49.9719 87.193 50.0454 87.56 50.0454 88.0004C50.1188 88.9545 50.1188 89.8352 50.2656 90.7894C50.9263 96.4407 52.6883 101.211 55.7717 105.321C60.2499 111.413 66.4901 115.303 74.272 116.698C75.8871 116.991 77.5022 117.138 79.1173 117.138C82.2007 117.138 85.4309 116.551 88.6611 115.45C88.9548 115.377 89.3219 115.23 89.6155 115.23C90.1294 115.23 90.5699 115.67 90.7167 116.257C90.7901 116.771 90.4231 117.358 89.9092 117.505C87.1194 118.532 84.5499 119.12 82.1273 119.34C81.1729 119.413 80.1451 119.487 79.1907 119.487C73.9049 119.487 68.7659 118.166 63.994 115.597C61.5714 114.276 59.3689 112.661 57.5336 110.826C57.3133 110.606 56.9463 110.312 56.4324 110.312C56.2121 110.312 55.9185 110.386 55.6248 110.532C54.9641 110.826 54.3034 111.193 53.6426 111.487L52.1744 112.147L53.8629 117.945H58.855C59.8828 117.945 60.9106 117.945 62.0118 117.945C62.5257 117.945 62.8928 118.166 63.1131 118.459C63.3333 118.753 63.3333 119.12 63.2599 119.487C63.1131 120 62.6726 120.294 62.1587 120.294C59.6626 120.294 57.2399 120.294 54.7439 120.294C52.2478 120.294 49.8251 120.294 47.329 120.294C47.0354 120.294 46.7417 120.221 46.5215 120C46.3012 119.78 46.2278 119.487 46.2278 119.12C46.2278 118.532 46.7417 118.019 47.329 118.019C47.6961 118.019 48.0632 118.019 48.5037 118.019C48.7973 118.019 51.3668 118.019 51.3668 118.019L49.8985 113.101L49.3112 113.175C48.3568 113.248 47.4025 113.395 46.4481 113.468C44.3191 113.688 42.2635 113.982 40.1345 113.982C39.9142 113.982 39.694 113.982 39.5472 113.982C37.6384 113.982 35.7296 113.835 33.8943 113.688H33.8209C32.9399 113.615 31.9855 113.542 31.1045 113.468L30.0767 113.395L31.3982 117.945H39.4737C40.0611 117.945 40.4281 118.166 40.6484 118.606C40.8686 118.973 40.7952 119.413 40.6484 119.707C40.4281 120.074 40.0611 120.221 39.6206 120.294C38.7396 120.294 37.932 120.294 37.0511 120.294L33.0867 120ZM7.39181 89.8352C5.99694 89.8352 4.38183 90.2022 3.35404 90.7894C2.98697 90.9361 2.47307 91.4499 2.54648 92.0371C2.54648 92.3306 2.54648 92.6242 2.54648 92.9178C2.54648 93.9453 2.6199 94.9729 2.91355 96.0004C3.72111 99.0095 6.36401 100.991 9.4474 100.991C10.1081 100.991 10.6954 100.918 11.3562 100.698L12.2371 100.477L11.7967 99.6701C10.255 96.9545 9.15375 93.7985 8.49302 90.4224L8.41961 89.8352H7.83229C7.68547 89.8352 7.53864 89.8352 7.39181 89.8352ZM35.7296 62.7527C33.9677 62.7527 32.3526 63.2664 30.8843 64.3673C27.7275 66.6426 26.1124 71.1196 27.0668 74.9361C27.8009 77.8719 29.7831 79.8536 33.0133 81.1747C37.3447 82.8627 41.7496 83.7435 46.0076 83.7435C47.6961 83.7435 49.3846 83.5967 50.9997 83.3765C53.5692 82.9361 55.9185 82.2022 58.0475 80.9545L58.6348 80.5875L58.3411 80.0004C58.1943 79.7068 58.0475 79.4132 57.9007 79.1196C57.607 78.4591 57.3133 77.7985 56.8729 77.138C52.9819 70.3123 46.8886 65.7618 38.3725 63.193C37.4916 62.8994 36.5372 62.7527 35.7296 62.7527Z" fill="white"/>
<path d="M39.0336 51.3761C35.8768 51.3761 32.7934 50.2018 30.6644 48.1468C28.9759 46.4587 28.0215 44.4036 28.0215 42.2018C28.0215 40.0734 28.9025 37.9449 30.591 36.2569C32.7934 34.055 35.5831 33.0275 39.1804 32.9541C42.9245 33.1009 45.8611 34.3486 48.0635 36.844C50.7798 40 50.7798 44.477 47.9901 47.5596C45.8611 49.9816 42.5575 51.3761 39.0336 51.3761ZM31.3251 45.211C33.1605 47.7798 35.73 49.0275 39.0336 49.0275H39.1804C42.484 49.0275 45.0535 47.7798 46.9623 45.211L48.0635 43.7431L46.2282 44.0367C43.6587 44.477 41.3094 44.6972 38.9602 44.6972C36.6109 44.6972 34.3351 44.477 32.0593 44.0367L30.2239 43.7431L31.3251 45.211ZM38.8133 35.3027C34.9224 35.3761 31.5454 37.578 30.7378 40.5871L30.5176 41.3211L31.2517 41.4679C33.8946 42.055 36.5375 42.3486 39.1804 42.3486C41.8233 42.3486 44.4662 42.055 47.1091 41.4679L47.9167 41.3211L47.623 40.5137C46.5218 37.2844 43.2182 35.2293 39.1804 35.2293C39.0336 35.3027 38.8868 35.3027 38.8133 35.3027Z" fill="white"/>
<path d="M26.6261 34.0556C26.0388 34.0556 25.5249 33.8354 25.0844 33.4684C24.7173 33.1014 24.4971 32.5143 24.4971 32.0005C24.4971 30.8262 25.4515 29.8721 26.6261 29.8721C27.8007 29.8721 28.7551 30.8262 28.7551 32.0005C28.7551 32.5877 28.5348 33.1014 28.1678 33.5418C27.7273 33.8354 27.2134 34.0556 26.6261 34.0556Z" fill="white"/>
<path d="M51.6603 34.0559C51.0729 34.0559 50.559 33.8357 50.1186 33.3953C49.7515 33.0283 49.5312 32.4412 49.5312 31.854C49.5312 30.6797 50.4856 29.7256 51.6603 29.7256C52.8349 29.7256 53.7893 30.6797 53.7893 31.854C53.7893 32.4412 53.569 33.0283 53.202 33.3953C52.7615 33.8357 52.1742 34.0559 51.6603 34.0559Z" fill="white"/>
</g>
<defs>
<clipPath id="clip0_10873_36">
<rect width="117.756" height="120" fill="white" transform="translate(0.124023)"/>
</clipPath>
</defs>
</svg>
